<?xml version="1.0" standalone="yes"?>
<svg width="188" height="139">
<path style="fill:#000200; stroke:none;" d="M1 138C8.91686 138 15.8302 135.792 23 134C25.9161 133.271 29.9798 134 33 134L55 134L78 134C82.2689 134 84.8331 132.958 89 134C94.6818 135.42 101.573 133.643 107 135C109.824 135.706 113.176 134.294 116 135C126.779 137.695 139.142 137 151 137C154.017 137 161.421 138.407 164 137C167.389 135.151 169.291 128.929 171 126C172.69 123.103 175.505 120.99 177 118C179.691 112.617 181.085 106.746 183 101C183.902 98.2926 187.84 94.6805 186 91C183.324 85.647 176.608 81.8108 173 77C159.842 59.4558 143.513 38.8848 125 25C118.8 20.3502 113.495 14.4947 108 9C106.024 7.02368 103.478 3.23895 101 2C97.1918 0.0959015 93.9897 4.34705 92 7C85.7384 15.3488 80.8137 24.8235 74 33C69.2529 38.6966 65.4805 46.026 61 52C49.8587 66.855 38.1506 80.1325 27 95C23.3747 99.8337 20.3081 106.038 17 111C11.2855 119.572 1 127.119 1 138z"/>
<path style="fill:#a86800; stroke:none;" d="M99 6L99 9L100 9L99 6z"/>
<path style="fill:#ff9f00; stroke:none;" d="M100 6L108 27L111 39L117 51L117 54L132 86L147 107L147 109L159 126L164 133C170.64 123.041 176.487 112.832 181 102C181.927 99.7761 185.968 93.9515 184 91C183.47 90.2055 179.77 88.6928 179 88C177.735 86.8615 177.874 85.1237 177 84C175.279 81.7879 172.681 80.2412 171 78C157.967 60.6224 141.897 40.1725 123 26C117.528 21.896 112.85 16.8505 108 12C105.409 9.40898 103.487 6.58121 100 6z"/>
<path style="fill:#584114; stroke:none;" d="M94 7L96 8L94 7z"/>
<path style="fill:#f9b743; stroke:none;" d="M94 8C73.8754 38.187 51.0552 67.593 29 97C23.2973 104.604 18.4946 112.674 13 120C9.03118 125.292 4 129.021 4 136L15 132L23 131L56 130L65 130L86 131L99 131L110 132L159 134L128 82L113 47L110 43L110 40L96 8L94 8z"/>
<path style="fill:#876425; stroke:none;" d="M104 25L105 27L104 25z"/>
<path style="fill:#7a4d00; stroke:none;" d="M107 26L108 28L107 26z"/>
<path style="fill:#a5782d; stroke:none;" d="M105 28L106 30L105 28z"/>
<path style="fill:#6d4f1d; stroke:none;" d="M107 33L107 36L108 36L107 33z"/>
<path style="fill:#7f5d1e; stroke:none;" d="M108 36L109 38L108 36z"/>
<path style="fill:#b1812f; stroke:none;" d="M110 42L111 44L110 42z"/>
<path style="fill:#a26300; stroke:none;" d="M114 45L114 48L115 48L114 45z"/>
<path style="fill:#9a6200; stroke:none;" d="M116 50L117 52L116 50z"/>
<path style="fill:#5c3a02; stroke:none;" d="M119 58L120 60L119 58z"/>
<path style="fill:#a5782d; stroke:none;" d="M119 63L120 65L119 63z"/>
<path style="fill:#523200; stroke:none;" d="M123 67L124 69L123 67z"/>
<path style="fill:#955e01; stroke:none;" d="M184 92L185 94L184 92z"/>
<path style="fill:#7b5a22; stroke:none;" d="M12 120L13 121L12 120z"/>
<path style="fill:#b1812f; stroke:none;" d="M55 130L55 131L86 131L77 130L55 130M22 131L22 132L33 132L22 131z"/>
<path style="fill:#5f481a; stroke:none;" d="M33 131L33 132L45 132L33 131z"/>
<path style="fill:#a5782d; stroke:none;" d="M90 131L90 132L100 132L90 131z"/>
<path style="fill:#564019; stroke:none;" d="M14 132L14 133L21 133L14 132z"/>
<path style="fill:#402e12; stroke:none;" d="M100 132L100 133L105 133L100 132z"/>
<path style="fill:#876425; stroke:none;" d="M105 132L105 133L111 133L105 132z"/>
<path style="fill:#70511f; stroke:none;" d="M3 133L3 136L4 136L3 133z"/>
<path style="fill:#7b5a22; stroke:none;" d="M116 133L116 134L121 134L116 133z"/>
<path style="fill:#a5782d; stroke:none;" d="M159 133L134 134L134 135L153 135L160 135L159 133M4 136L6 137L4 136z"/>
</svg>
