<?xml version="1.0" standalone="yes"?>
<svg xmlns="http://www.w3.org/2000/svg" width="250" height="185">
<path style="fill:#000000; stroke:none;" d="M1 184C3.71794 184 7.37574 184.656 10 184C12.0755 183.481 13.9962 181.668 16 181C17.8013 180.4 20.1521 181.462 22 181C24.056 180.486 26.944 179.514 29 179C33.3922 177.902 38.6078 180.098 43 179C53.1113 176.472 66.1 178 77 178L98 178C101.02 178 105.084 178.729 108 178C114.658 176.336 124.211 177.303 131 179C138.757 180.939 147.228 178.057 155 180C158.866 180.966 163.881 179.97 168 181C178.185 183.546 189.881 183 201 183C204.878 183 213.606 184.697 217 183C221.547 180.727 223.859 173.67 226 170C228.677 165.411 232.631 161.739 235 157C238.174 150.652 240.745 143.766 243 137C244.228 133.316 245.754 129.738 247 126C247.353 124.941 249.021 122.531 248 121C247.265 119.897 243.388 117.388 242 116C237.619 111.619 233.709 106.945 230 102C217.251 85.0018 202.92 68.9198 187 53C180.236 46.236 173.336 38.5017 166 33C162.267 30.2 159.733 25.8 156 23C151.982 19.9865 146.164 16.2188 143 12C140.579 8.77209 136.996 3.66515 133 2C128.984 0.326797 124.228 7.02998 122 10C114.432 20.0905 107.131 31.3035 100 42C76.5938 77.1093 47.3993 109.901 24 145C18.8516 152.723 13.4175 160.777 8 168C3.70999 173.72 1 176.471 1 184z"/>
<path style="fill:#ffa000; stroke:none;" d="M132 8L136 18L147 46L149 55L155 68L159 80L176 115L203 154L217 177C220.826 175.087 221.956 170.504 224 167C227.454 161.079 231.563 155.892 235 150C237.299 146.06 238.25 141.199 240 137C241.731 132.845 243.741 129.407 245 125L246 123C244.933 119.798 239.899 118.709 238 117C236.612 115.751 236.02 113.36 235 112C233.32 109.76 230.68 108.24 229 106C226.93 103.24 225.858 100.788 224 98C219.996 91.9935 214.339 87.7855 210 82C198.955 67.2732 186.96 55.7636 175 45C167.754 38.4788 161.784 30.8381 154 25C152.072 23.5542 148.659 21.8435 147 20C142.985 15.5387 139.014 8 132 8z"/>
<path style="fill:#feb942; stroke:none;" d="M6 182C11.3165 181.114 15.1079 177.631 20 176C22.4019 175.199 25.5359 176.616 28 176C34.6788 174.33 43.0656 176.734 50 175C53.1377 174.216 56.3321 174 60 174C63.9268 174 69.2086 174.948 73 174C75.5495 173.363 78.8781 172.306 82 173C83.4122 173.314 84.0661 174.483 86 174C96.1043 171.474 110.277 172.569 120 175C128.689 177.172 138.283 173.821 147 176C153.366 177.591 161.379 175.345 168 177C181.646 180.411 198.091 179 213 179L197 149L191 142L172 113L169 105L163 95L161 88L150 63L148 61L148 58L143 44L138 34L138 30L135 26L133 18L128 10C123.492 10.7513 122.025 15.5278 120 19C118.645 21.3226 116.662 22.7841 115 25C110.39 31.1469 106.626 38.8322 102 45C77.4396 77.7472 50.5675 110.149 28 144C22.2027 152.696 16.1387 161.815 10 170C6.98394 174.021 3.46575 176.932 6 182z"/>
<path style="fill:#b5842f; stroke:none;" d="M128 12L129 14L128 12z"/>
<path style="fill:#543400; stroke:none;" d="M135 17L136 19L135 17z"/>
<path style="fill:#a87a2c; stroke:none;" d="M135 25L136 27L135 25z"/>
<path style="fill:#7a4d00; stroke:none;" d="M140 29L141 31L140 29z"/>
<path style="fill:#a1752a; stroke:none;" d="M138 33L139 35L138 33z"/>
<path style="fill:#785820; stroke:none;" d="M108 35L109 36L108 35z"/>
<path style="fill:#664a1a; stroke:none;" d="M140 37L140 40L141 40L140 37z"/>
<path style="fill:#5d3a00; stroke:none;" d="M143 37L144 39L143 37z"/>
<path style="fill:#76561f; stroke:none;" d="M101 45L102 46L101 45z"/>
<path style="fill:#945c00; stroke:none;" d="M146 45L147 47L146 45z"/>
<path style="fill:#7a4d00; stroke:none;" d="M147 48L147 51L148 51L147 48z"/>
<path style="fill:#785820; stroke:none;" d="M94 55L95 56L94 55M146 55L147 56L146 55z"/>
<path style="fill:#b1812e; stroke:none;" d="M148 60L149 62L148 60z"/>
<path style="fill:#5f3c00; stroke:none;" d="M154 67L155 69L154 67z"/>
<path style="fill:#785820; stroke:none;" d="M82 71L83 72L82 71z"/>
<path style="fill:#744800; stroke:none;" d="M160 81L161 83L160 81z"/>
<path style="fill:#5c4318; stroke:none;" d="M159 85L160 87L159 85z"/>
<path style="fill:#785820; stroke:none;" d="M69 88L70 89L69 88z"/>
<path style="fill:#815e21; stroke:none;" d="M163 94L164 96L163 94z"/>
<path style="fill:#885500; stroke:none;" d="M166 94L167 96L166 94z"/>
<path style="fill:#b1812e; stroke:none;" d="M166 101L167 103L166 101z"/>
<path style="fill:#785820; stroke:none;" d="M53 109L54 110L53 109z"/>
<path style="fill:#7c5a20; stroke:none;" d="M172 113L173 114L172 113z"/>
<path style="fill:#785820; stroke:none;" d="M37 130L38 131L37 130z"/>
<path style="fill:#78571f; stroke:none;" d="M23 150L24 151L23 150z"/>
<path style="fill:#997028; stroke:none;" d="M202 158L203 160L202 158z"/>
<path style="fill:#785820; stroke:none;" d="M16 160L17 161L16 160z"/>
<path style="fill:#d49b38; stroke:none;" d="M73 173L73 174L81 174L73 173z"/>
<path style="fill:#7c5a20; stroke:none;" d="M81 173L83 174L81 173z"/>
<path style="fill:#78571f; stroke:none;" d="M86 173L86 174L89 174L86 173z"/>
<path style="fill:#d69c38; stroke:none;" d="M89 173L89 174L110 174L89 173z"/>
<path style="fill:#4d3814; stroke:none;" d="M210 173L210 176L211 176L210 173z"/>
<path style="fill:#926a26; stroke:none;" d="M50 174L50 175L61 175L50 174z"/>
<path style="fill:#513a15; stroke:none;" d="M28 175L28 176L39 176L28 175z"/>
<path style="fill:#32240d; stroke:none;" d="M129 175L129 176L133 176L129 175z"/>
<path style="fill:#38290e; stroke:none;" d="M19 176L19 177L26 177L19 176z"/>
<path style="fill:#443212; stroke:none;" d="M140 176L140 177L148 177L140 176z"/>
<path style="fill:#8d6725; stroke:none;" d="M155 177L155 178L161 178L155 177z"/>
<path style="fill:#d69c38; stroke:none;" d="M161 177L161 178L169 178L161 177z"/>
<path style="fill:#634819; stroke:none;" d="M170 178L170 179L178 179L170 178z"/>
<path style="fill:#614619; stroke:none;" d="M187 179L187 180L212 180L205 179L187 179z"/>
</svg>
