<?xml version="1.0" standalone="yes"?>
<svg width="141" height="104">
<path style="fill:#0f0907; stroke:none;" d="M1 103C5.79406 103 8.92829 102.018 13 101C16.451 100.137 20.549 101.863 24 101C31.4886 99.1279 40.8171 100 49 100C57.1829 100 66.5114 99.1278 74 101C78.0784 102.02 82.9216 99.9804 87 101C95.3014 103.075 105.013 103 114 103C115.864 103 121.514 103.991 123 103C124.725 101.85 125.912 97.6324 127 96C132.949 87.0766 138.236 78.5861 140 68L136 76L124 99L112 82L101 67L83 25L78 12L75 4C89.9631 18.9631 108.126 31.8346 121 49C124.63 53.8394 130.747 65.9579 137 67C136.141 61.8462 130.169 58.225 127 54C116.501 40.0016 102.671 27.6712 90 15L79 4C77.7093 2.70927 75.0733 0.136131 73 1C69.8597 2.30846 68.6065 6.85797 67 9C62.6785 14.762 58.8742 20.1887 55 26C49.5982 34.1028 42.9779 41.0295 37 49C29.2793 59.2943 21.6461 70.8052 14 81C9.29535 87.2729 1 94.8395 1 103z"/>
<path style="fill:#ff9f00; stroke:none;" d="M75 4L84 28L87 39L95 55L97 61L108 77L119 94L124 99C125.853 93.4398 130.371 89.2574 133 84C134.367 81.2658 134.817 77.8389 136 75C136.701 73.3183 139.436 70.3939 138 68C137.069 66.4476 134.342 65.7892 133 64C130.261 60.3485 126.881 56.8413 124 53C113.367 38.8227 99.4543 23.8407 85 13C81.3722 10.2792 78.8744 5.93719 75 4z"/>
<path style="fill:#5c3a01; stroke:none;" d="M74 5L75 7L74 5z"/>
<path style="fill:#f9b743; stroke:none;" d="M70 6L42 45L18 78L8 92L3 102C6.68327 102 7.94897 100.017 11 99C12.6598 98.4467 15.4952 98.3762 17 98C26.1284 95.7179 37.1281 99.218 46 97C54.5116 94.8721 67.4209 97.1052 75 99C78.7647 99.9412 83.2353 98.0588 87 99C96.5283 101.382 108.704 100 119 100L96 62L90 47L82 28L80 26L75 9L72 6L70 6z"/>
<path style="fill:#af7f2d; stroke:none;" d="M80 25L81 27L80 25z"/>
<path style="fill:#ab6a00; stroke:none;" d="M83 27L84 29L83 27z"/>
<path style="fill:#221401; stroke:none;" d="M137 67L138 68L137 67z"/>
<path style="fill:#d09638; stroke:none;" d="M45 97L45 98L66 98L45 97z"/>
<path style="fill:#a17429; stroke:none;" d="M118 97L119 99L118 97z"/>
<path style="fill:#986c29; stroke:none;" d="M16 98L16 99L30 99L16 98z"/>
<path style="fill:#64471c; stroke:none;" d="M68 98L68 99L75 99L68 98z"/>
<path style="fill:#986c29; stroke:none;" d="M82 99L82 100L88 100L82 99z"/>
<path style="fill:#64471c; stroke:none;" d="M96 100L96 101L101 101L96 100z"/>
<path style="fill:#ce9335; stroke:none;" d="M101 100L101 101L120 101L101 100z"/>
</svg>
