<?xml version="1.0" standalone="yes"?>
<svg xmlns="http://www.w3.org/2000/svg" width="703" height="232">
<path style="fill:#ded500; stroke:none;" d="M229 44C235.436 44 238.266 30.5665 232 29C226.022 27.5054 218.353 30 213 30C210.743 30 206.923 29 204 29C202.768 29 197.224 30.0747 197 30C196.294 29.7648 193.378 24.9185 192 24C188.272 21.5149 179.693 23 175 23C173.851 23 170.983 22.4641 170 23C167.299 24.4735 168 27.4223 168 30L168 47C168 49.5777 167.299 52.5265 170 54C170.983 54.5359 173.851 54 175 54C179.619 54 185.507 54.9984 190 54C191.043 53.7681 193.139 51 194 51C194.861 51 196.957 53.7681 198 54C202.888 55.0862 208.792 53 213 53C216.092 53 223.487 55.916 227 54C230.171 52.2705 229 47.0703 229 44M316 30C316 21.588 305.395 22.4671 299 23C294.157 23.4036 294.298 27.0209 291 29C288.989 30.2063 282.424 29 280 29L250 29C244.729 29 240.311 28.0336 237 33C234.515 36.7277 236 45.3066 236 50C236 51.2012 235.474 53.9485 236 55C236.914 56.8285 240.306 59.4354 242 60C245.428 61.1426 256.34 60.7737 259 59C260.938 57.7082 261.386 54.9686 263 54C264.898 52.8615 269.751 54.3212 272 54L274 52C274.391 51.9674 276.575 53.9055 277 54C279.995 54.6655 283.921 54 287 54C288.655 54 290.98 53 292 53L293 54C298.733 54.8189 305.201 54 311 54C312.928 54 314.49 52.8742 316 53C319.905 53.3254 326.554 55.4822 331 54C337.783 51.7389 340.944 39.9166 337 34C333.122 28.1831 321.932 27.0342 316 30z"/>
<path style="fill:#040000; stroke:none;" d="M194 45C195.544 54.2611 209.137 51.8632 214 47L214 50L224 51L225 43L229 41L231 33L215 32L214 36C208.339 30.3387 199.661 30.3387 194 36C194 26.5649 185.514 26 178 26C175.902 26 171.268 25.0976 170 27C169.455 27.817 170 30.9763 170 32L170 46C170 47.6855 169.409 49.9393 171 51C171.986 51.6576 175.764 51 177 51C185.113 51 188.117 50.883 194 45M293 36C288.859 31.8587 284.031 31.1384 278 32L276 33C268.365 32.3638 260.365 32 253 32C247.271 32 240.175 30.4749 238 37C237.005 39.9852 238.803 43.6316 239 46C239.331 49.9717 235.96 52.6401 241 56C247.115 60.077 257.854 56.8779 259 50L270 50L271 41L272 41C272 52.6191 286.021 53.9791 293 47C293 48.2376 292.449 50.4184 294 51C296.992 52.122 307.958 52.014 311 51C312.009 50.6637 312.961 48.0866 314 48C314.654 47.9455 317.111 50.8024 318 51C323.287 52.175 331.387 51.2264 334 46C336.434 41.1325 332.359 33.4529 328 32C321.351 29.7836 315.241 33.1393 312 38L311 36C311.37 35.2606 313.153 31.1145 312 29C309.267 23.9886 296.973 24.9118 294 29C292.675 30.8216 293 33.6069 293 36z"/>
<path style="fill:#f77700; stroke:none;" d="M173 28L173 49C177.481 49 185.443 50.3713 189 48C194.782 44.1456 194.782 32.8544 189 29C185.443 26.6288 177.481 28 173 28M296 49C298.601 49 302.061 48 304 48C305.523 48 308.851 50.1722 311 49C316.628 45.9302 310.512 40.0703 310 37C309.721 35.3262 312.313 32.189 311 30C308.962 26.6031 299.209 27.2383 297 30C295.483 31.896 296 35.4528 296 38L296 49z"/>
<path style="fill:#040000; stroke:none;" d="M303 32L303 36L304 36L303 32M180 33L180 44C180.744 44 183.436 44.4233 184 44C187.04 41.72 187.04 35.28 184 33C183.436 32.5767 180.744 33 180 33z"/>
<path style="fill:#f77700; stroke:none;" d="M214 44L203 44L203 43L214 43C214 39.7567 213.811 37.0441 211 35C206.696 31.8697 197.656 34.031 196 39C192.27 50.1905 209.913 52.1738 214 44M217 34L217 49L224 49C224 44.1587 223.06 39 229 39L230 34L217 34M251 47L250 51L241 49C241 55.6375 253.118 57.8524 257 53C259.83 49.462 258 38.7191 258 34C255.399 34 251.939 35 250 35C249.805 35 245.852 32.9898 244 34C239.72 36.3345 239.72 45.6655 244 48C245.857 49.0127 249.603 47.6985 251 47M262 34L262 49L269 49C269 44.1587 268.06 39 274 39L275 34L262 34M280 34C275.62 35.4602 273.135 42.06 276 46C278.148 48.9535 284.286 50.2379 288 49C292.38 47.5398 294.865 40.94 292 37C289.852 34.0465 283.714 32.7621 280 34M333 44L322 44L322 43L333 43C333 39.7567 332.811 37.0441 330 35C325.696 31.8697 316.656 34.031 315 39C311.27 50.1905 328.913 52.1738 333 44z"/>
<path style="fill:#ded500; stroke:none;" d="M181 35L181 42L182 42C183.448 39.1048 183.755 36.6532 181 35z"/>
<path style="fill:#040000; stroke:none;" d="M203 39L203 40L207 40L203 39M249 38L249 44L250 44C251.4 41.2001 251.665 39.5989 249 38M283 38L283 45L285 45L285 38L283 38M322 39L322 40L326 40L322 39M303 39L303 46L307 45L303 39z"/>
<path style="fill:#736f6e; stroke:none;" d="M91 51L93 52L91 51z"/>
<path style="fill:#45240b; stroke:none;" d="M24 74L24 76L49 86L59 91L65 89L77 84L102 75L131 63L125 61L113 56L109 56L93 51L71 59L24 74z"/>
<path style="fill:#a9a585; stroke:none;" d="M96 51L98 52L96 51z"/>
<path style="fill:#736f6e; stroke:none;" d="M88 52L90 53L88 52z"/>
<path style="fill:#a9a585; stroke:none;" d="M99 52L101 53L99 52z"/>
<path style="fill:#736f6e; stroke:none;" d="M85 53L87 54L85 53z"/>
<path style="fill:#a9a585; stroke:none;" d="M102 53L104 54L102 53z"/>
<path style="fill:#736f6e; stroke:none;" d="M82 54L84 55L82 54z"/>
<path style="fill:#a9a585; stroke:none;" d="M105 54L107 55L105 54z"/>
<path style="fill:#736f6e; stroke:none;" d="M79 55L81 56L79 55z"/>
<path style="fill:#a9a585; stroke:none;" d="M108 55L110 56L108 55z"/>
<path style="fill:#736f6e; stroke:none;" d="M76 56L78 57L76 56M73 57L75 58L73 57z"/>
<path style="fill:#a9a585; stroke:none;" d="M115 57L117 58L115 57z"/>
<path style="fill:#736f6e; stroke:none;" d="M70 58L72 59L70 58z"/>
<path style="fill:#a9a585; stroke:none;" d="M118 58L120 59L118 58z"/>
<path style="fill:#736f6e; stroke:none;" d="M67 59L69 60L67 59z"/>
<path style="fill:#a9a585; stroke:none;" d="M121 59L123 60L121 59z"/>
<path style="fill:#736f6e; stroke:none;" d="M64 60L66 61L64 60z"/>
<path style="fill:#a9a585; stroke:none;" d="M124 60L126 61L124 60z"/>
<path style="fill:#736f6e; stroke:none;" d="M61 61L63 62L61 61z"/>
<path style="fill:#a9a585; stroke:none;" d="M127 61L129 62L127 61z"/>
<path style="fill:#736f6e; stroke:none;" d="M58 62L60 63L58 62M131 62L129 63L129 64C131.827 64 132.738 63.7378 131 62M55 63L57 64L55 63M52 64L54 65L52 64z"/>
<path style="fill:#a9a585; stroke:none;" d="M127 64L126 70L127 70L128 67L131 71L132 71L132 64L127 64z"/>
<path style="fill:#736f6e; stroke:none;" d="M49 65L51 66L49 65M117 72L114 71L114 76L111 74L109 76L109 77L111 80C116.412 77.294 121.262 66.2998 128 74C128.7 74.8004 129.282 76.9228 130 78L131 78C131 72.8898 133.163 69.5813 128 67L127 70L126 70L127 65L117 68L117 72M46 66L48 67L46 66z"/>
<path style="fill:#ded500; stroke:none;" d="M295 97C295 99.3643 294.524 101.65 297 103C299.877 104.569 310.243 103.343 312 101C312.423 100.436 312 97.7442 312 97C313.117 97 314.949 97.3502 316 97C316.533 96.8223 318.483 95 319 95C318.032 95 321.077 97.0171 321 97C324.467 97.7706 331.533 97.7705 335 97C335.389 96.9135 337.651 94.9612 338 95L339 97C349.51 98.5014 361.368 97 372 97C378.052 97 392 99.9004 392 92L397 92C397 98.995 406.498 97.4585 412 97C427.798 95.6835 447.769 97 465 97C469.231 97 474.447 96 478 96L478 97C482.986 97.831 488.718 96 493 96L494 97C502.75 98.25 515.25 98.25 524 97L525 96L526 97C531.733 97.8189 538.201 97 544 97L582 97L619 97C620.117 97 621.949 97.3502 623 97C623.386 96.8714 625.658 94.962 626 95L627 97C632.01 97.7158 637.699 96 642 96L642 97C646.986 97.831 652.718 96 657 96L658 97C663.096 97.7279 668.845 97 674 97C675.386 97 678.815 97.6463 680 97C682.702 95.5264 682 92.5777 682 90C682 84.472 683.879 74.9394 678 72C676.948 71.4743 674.201 72 673 72C668.167 72 662.777 71.3176 658 72L657 73C652.21 73 645.912 70.5441 641 73C640.602 71.8072 640.599 69.0985 640 68C637.599 63.5985 628.786 66.452 626 68C624.429 68.8727 623.604 71.1978 622 72C617.145 74.4273 609.033 68.9452 606 74L605 74L597 72L576 72L576 75C578.771 75 582.305 74.4011 585 75C586.412 75.3138 587.066 76.4835 589 76C595.089 74.4777 599.142 74.1418 604 79L605 79C608.852 75.1483 613.281 73.7292 619 75C620.199 75.2664 621.529 77.5348 623 77C625.219 76.1933 625.844 72.4371 628 71C630.529 69.3138 633.678 67.9039 636 71C636.623 71.8304 635.583 74.0263 636 75C636.063 75.1465 638.567 77.1344 639 78L652 75L658 79C658.248 77.5093 658.029 75.6571 660 75C662.191 74.2697 671.972 73.9858 674 75C678.591 77.2955 678 82.6742 678 87C678 88.149 678.536 91.0174 678 92C676.324 95.0734 663.302 95.1006 660 94C658.028 93.3428 658.248 91.4907 658 90L652 94L639 91C635.997 97.0061 628.776 93.7755 625 90L624 90C620.134 93.8658 614.77 95.2822 609 94C607.675 93.7056 606.616 91.596 605 92L603 94C597.653 94.7639 591.704 93.392 587 93L585 94C581.756 94.4634 578.598 93.2165 576 93L574 94C570.995 94.4293 568.413 93.4021 566 93C564.205 92.7009 564.37 93.6955 563 94C557.378 95.2494 548.483 94.9654 546 90L545 90L543 94L528 94L525 91L524 91C517.994 96.0047 511.802 93 505 93C500.75 93 495.121 96.7256 494 90L488 94L475 91C472.54 95.9207 469.066 93.3388 465 93L463 94C460.052 94.4212 457.305 93.1921 455 93C452.75 92.8125 449.913 94.4855 447 94C441.321 93.0536 432.369 93.5308 426 93C423.667 92.8056 418.847 95.5527 416 94C413.621 92.7026 411.742 88.2271 411 86L410 86C410 87.386 410.646 90.815 410 92C407.272 97.0005 399 94.1049 399 89L388 89L386 94L371 94L369 92L368 92L356 93L341 94L337 90L336 90C330.505 95.4948 323.495 95.4948 318 90L317 90L308 94C308 94.7442 308.423 97.4356 308 98C305.977 100.697 298.865 101.42 297 98C296.135 96.4151 297 91.8542 297 90C292.844 92.0779 288.72 95.9068 283 94C280.911 93.3035 278.957 90.9787 277 90C276.038 95.7693 266.962 95.7692 266 90L260 94L247 91C244.54 95.9207 241.066 93.3388 237 93L235 94C232.052 94.4212 229.305 93.1921 227 93C224.75 92.8125 221.913 94.4855 219 94C213.321 93.0536 204.369 93.5308 198 93C195.667 92.8055 190.847 95.5527 188 94C185.621 92.7026 183.742 88.2271 183 86L182 86C182 87.386 182.646 90.815 182 92C180.32 95.0797 172.68 95.0797 171 92C170.577 91.2251 171 88.9055 171 88L171 76C171 74.8511 170.464 71.9826 171 71C173.371 66.6539 180.485 68.97 182 72C183.124 71.4379 184.807 69.3975 186 69C188.167 68.2777 197.931 68.2754 197 72C196.307 74.771 190.909 76.2738 190 79C189.424 80.7287 193.086 84.6286 194 86L195 86C196.364 83.271 194.009 82.3786 195 80C196.829 75.6105 206.626 72.8131 211 75C212.851 75.9256 214.229 78.1146 216 79C217.257 71.459 229.002 76 234 76C236.294 76 239.149 74.0497 242 75C244.032 75.6774 245.131 77.2628 246 79C250.156 76.9221 254.28 73.0932 260 75C262.089 75.6965 264.043 78.0213 266 79C266 77.1458 265.135 72.5849 266 71C267.68 67.9203 275.32 67.9203 277 71C277.865 72.5849 277 77.1458 277 79C278.957 78.0213 280.911 75.6965 283 75C288.72 73.0932 292.844 76.9221 297 79C297.807 74.159 307.286 73.4287 312 75C313.868 75.6227 315.501 77.5006 317 79L318 79C323.495 73.5052 330.505 73.5052 336 79L337 79L346 75L346 70L340 72L337 74L335 72L321 72L318 74L316 72L296 73L281 72C281 69.6357 281.476 67.3503 279 66C276.123 64.4307 265.757 65.6571 264 68C263.577 68.5644 264 71.2558 264 72L250 72L247 73L216 72L215 73L215 72L201 72L199 66L192 66L175 66L169 68L169 74L169 91L171 97L185 96L186 97L207 97L249 97L250 96L250 97L265 96L266 97L280 96L295 97z"/>
<path style="fill:#cad316; stroke:none;" d="M344 70L355 69L372 70L370 66L363 66L346 66L344 70M397 70C401.793 70 407.264 66.5271 410 72L414 69L429 70L427 66L419 66L399 66L397 70M492 72L478 72L478 73L494 73C495.121 66.2744 500.75 70 505 70C509.25 70 514.879 66.2743 516 73L525 73L525 72L520 72L518 66L513 66L500 66L494 66L492 72M563 72L574 69L576 72L580 72C580 69.6357 580.475 67.3503 578 66C575.123 64.4306 564.757 65.6571 563 68C562.577 68.5644 563 71.2558 563 72z"/>
<path style="fill:#736f6e; stroke:none;" d="M43 67L45 68L43 67M40 68L42 69L40 68M37 69L39 70L37 69z"/>
<path style="fill:#a9a585; stroke:none;" d="M61 90L64 215L80 205L110 185L124 176L125 167L126 149L88 171L66 184L66 177L76 173L85 168L91 162L100 159L105 154L108 154L115 150L117 147L123 146L126 143L126 146L127 146L129 107L125 109L125 103L121 101L119 95L112 97L113 88L113 83L125 77L123 94L130 87L130 91L131 91C131 87.5905 132.292 81.1018 131 78C128.573 72.1746 122.575 68.9455 117 73C114.673 74.6924 113.209 77.7907 111 80L109 77L109 76L111 74L114 76L114 71L117 72L117 69L111 71L104 73L76 84L61 90z"/>
<path style="fill:#040000; stroke:none;" d="M182 86L183 86C183.391 88.3461 184.803 92.6817 187 94C189.767 95.6605 195.71 93 198 93L198 94C203.919 94.9866 210.772 93 216 93C219.138 93 226.347 93.8347 228 94C231.103 94.3103 234.607 93 237 93L237 94C240.976 94.6626 246.332 95.0079 247 91C252.646 95.7048 260.779 95.2213 266 90C266 96.0078 277 96.0077 277 90C282.661 95.6613 291.339 95.6613 297 90L297 99L308 99L308 94C312.326 94 315.052 93.896 317 90L318 90C320.926 95.853 333.073 95.853 336 90L337 90C340.666 97.3314 350.743 93 357 93C360.694 93 365.538 96.1034 368 92L369 92L370 94L383 94L387 94L388 89L399 89L399 93L410 93L410 86L411 86C411.391 88.3461 412.803 92.6818 415 94C417.767 95.6605 423.71 93 426 93L426 94C431.919 94.9866 438.772 93 444 93C447.138 93 454.347 93.8347 456 94C459.103 94.3103 462.607 93 465 93L465 94C468.976 94.6626 474.332 95.0079 475 91C480.646 95.7048 488.779 95.2213 494 90C494 91.2376 493.449 93.4185 495 94C498.156 95.1836 502.492 93 505 93C510.6 93 520.483 96.8611 524 91L525 91L527 94L544 94L545 90L546 90C547.009 96.054 558.563 94.4531 564 94C571.619 93.3651 578.738 94.1802 587 93C585.808 93.1703 589.502 94 590 94C595.663 94 601.5 95 606 92L606 93C611.61 94.2468 620.973 96.0538 624 90L625 90C625.54 91.0801 626.421 93.4736 628 94C631.833 95.2776 638.396 94.6255 639 91C644.646 95.7048 652.779 95.2213 658 90C658 91.2376 657.449 93.4184 659 94C662.783 95.4188 669.913 94 674 94C675.534 94 677.02 94.4706 678 93C678.658 92.0135 678 88.2365 678 87C678 83.0519 679.009 77.1868 675 75C674.225 74.5773 671.905 75 671 75C667.73 75 662.026 73.8651 659 75C657.449 75.5816 658 77.7623 658 79C652.779 73.7787 644.646 73.2952 639 78C638.481 74.8847 637.341 76.235 636 74C635.504 73.1738 636.662 70.6623 636 70C632.994 66.9939 627.159 70.5324 625 73C624.337 73.7576 623.626 76.6386 622 77C623.105 76.7544 619.847 74.9659 620 75C614.632 73.8071 607.359 74.2817 605 79L604 79C600.733 72.4657 593.628 75.531 588 76C584.957 76.2536 579.757 75 576 75L576 70L565 70L565 76L546 75L545 79L541 75L529 75L525 78L522 75L516 75L516 70L505 70L495 69L494 79C488.339 73.3387 479.661 73.3387 474 79C472.901 72.4058 466.22 76 462 76C457.62 76 449.901 73.162 445 75C443.449 75.5816 444 77.7623 444 79C443.052 78.052 441.246 75.4152 440 75C435.406 73.4686 425.241 74.5172 423 79C422.106 80.7889 423.636 82.7253 424 84L423 86L422 86C421.558 84.6743 417.78 79.9918 418 79C418.211 78.049 424.105 74.7893 425 73C427.551 67.8977 415.762 68.0793 413 69C412.115 69.295 410.672 71.3279 410 72L409 69L399 70L399 80C396.577 80 391.12 81.06 389 80C387 79 386 76 384 75C379.566 72.783 371.007 75.494 368 78L367 69L357 70L346 70L346 75C341.673 75 338.948 75.104 337 79L336 79C333.073 73.147 320.927 73.147 318 79L317 79C314.78 74.561 303.323 73.0039 298 75C296.449 75.5816 297 77.7623 297 79C291.339 73.3387 282.661 73.3387 277 79L277 70L266 70L266 79C260.339 73.3387 251.661 73.3387 246 79C244.901 72.4058 238.22 76 234 76C229.62 76 221.901 73.162 217 75C215.449 75.5816 216 77.7623 216 79C215.052 78.052 213.246 75.4152 212 75C207.406 73.4686 197.241 74.5172 195 79C194.106 80.7889 195.636 82.7253 196 84L195 86L194 86C193.558 84.6743 189.78 79.9918 190 79C190.211 78.0489 196.105 74.7893 197 73C199.551 67.8977 187.762 68.0793 185 69C184.115 69.2951 182.672 71.3279 182 72L181 69L171 70L171 75L171 88L171 93L182 93L182 86z"/>
<path style="fill:#ded500; stroke:none;" d="M368 70L368 78C371.341 76.3293 378.354 72.677 383 75C385 76 386 79 388 80C390.332 81.1662 396.334 80 399 80L399 70L397 70L397 77L392 77L387 72L373 72L372 70L368 70M425 70L418 79L422 86L423 86C424.364 83.271 422.009 82.3786 423 80C424.829 75.6105 434.626 72.8131 439 75C440.851 75.9256 442.229 78.1146 444 79C445.257 71.459 457.002 76 462 76C464.294 76 467.149 74.0497 470 75C472.032 75.6774 473.131 77.2628 474 79C478.156 76.9221 482.28 73.0932 488 75C490.09 75.6965 492.043 78.0213 494 79L494 73L444 72L443 73L441 72L430 72L429 70L425 70z"/>
<path style="fill:#f77700; stroke:none;" d="M174 71L174 92L181 92L183 83L184 83L189 92L197 92L188 80L188 79L196 71L187 71L181 77L181 71L174 71M269 71L269 92L276 92L276 71L269 71M349 71L349 78C339.762 73.3811 334.394 87.8515 342 92C344.149 93.1721 347.477 91 349 91L349 92C351.193 92.3655 353.772 92 356 92L356 71L349 71M360 71L360 75L367 75L367 71L360 71M402 71L402 92L409 92L411 83L412 83L417 92L425 92L416 80L416 79L424 71L415 71L409 77L409 71L402 71M497 71L497 92L504 92L504 71L497 71M508 71L508 92C510.601 92 514.061 91 516 91L516 92C518.093 92.3489 521.534 92.1727 523 91C526.347 88.322 525.976 79.1685 522 77C520.143 75.9873 516.397 77.3015 515 78L515 71L508 71M568 71L568 92L575 92L575 88L576 88C577.686 93.0592 580.898 92 586 92L584 87L581 83L586 77C581.867 77 576.755 75.4679 576 80L575 80L575 71L568 71M638 92L638 88L635 88L635 81L638 81L638 77L635 77L635 71C629.983 71.8362 625.091 75.5432 626 81L628 82C629.604 85.2085 625.799 89.7087 630 92C631.585 92.8645 636.146 92 638 92z"/>
<path style="fill:#a9a585; stroke:none;" d="M131 72L131 76L132 76L131 72z"/>
<path style="fill:#ded500; stroke:none;" d="M516 73L516 75L521 75L524 78L530 75L540 75L545 79C546.071 72.576 560.123 74.3745 565 76L565 72L516 73z"/>
<path style="fill:#736f6e; stroke:none;" d="M23 74L24 90L27 138L28 138L29 124L36 130L36 142L37 153L37 158L39 159L38 166L35 165L37 175L38 182L39 189C35.2014 188.367 32 185.931 32 182L31 182L31 193L45 202L44 192L47 187L45 183L45 171L46 169L43 163L43 145L44 141L43 136L41 135L41 130L43 115C47.4972 115 46.6174 116.682 48 120C50.6284 126.308 50 133.568 50 141C50 145.082 52.4134 148.952 49 151L49 152L53 161L51 162L51 169L52 169L54 156L53 145L51 140L54 137L52 130L52 118L50 116L52 111L51 103L51 94L59 97L59 105L60 107L59 108L60 131L60 141L61 165L60 179L62 188L62 212L54 207L55 204L54 199L53 199L52 208L64 216L62 126L61 102L61 91L58 90L48 86L23 74M122 77L122 78L125 79L122 77z"/>
<path style="fill:#f77700; stroke:none;" d="M198 82L208 81L208 82C205.286 82.9047 199.631 83.0102 198 86C194.643 92.1552 205.704 93.8271 208 90L215 92C215 89.0917 216.272 82.5448 215 80C211.98 73.9608 198.96 76.241 198 82M219 77L219 92L226 92L227 82L228 82L229 92L236 92L237 82L238 82L239 92L246 92L245 78L237 77L235 79L233 77L226 78L226 77L219 77M266 87L255 87L255 86L266 86C266 82.7567 265.811 80.0441 263 78C258.696 74.8697 249.656 77.031 248 82C244.27 93.1905 261.913 95.1738 266 87M284 77C279.62 78.4602 277.135 85.06 280 89C282.148 91.9535 288.286 93.2379 292 92C296.38 90.5398 298.865 83.94 296 80C293.852 77.0465 287.714 75.7621 284 77M300 77L300 98L307 98L307 91C315.237 95.1186 321.555 83.2444 315 78C312.246 75.797 309.509 78 307 78L307 77C304.807 76.6345 302.228 77 300 77M337 87L326 87L326 86L337 86C337 82.7567 336.811 80.0441 334 78C329.696 74.8697 320.656 77.031 319 82C315.27 93.1905 332.913 95.1738 337 87M360 77L360 92L367 92L367 77L360 77M370 82L380 81L380 82C377.286 82.9047 371.631 83.0102 370 86C366.643 92.1552 377.704 93.8271 380 90L387 92C387 89.0917 388.272 82.5448 387 80C383.98 73.9608 370.96 76.241 370 82M426 82L436 81L436 82C433.286 82.9047 427.631 83.0102 426 86C422.643 92.1551 433.704 93.8271 436 90L443 92C443 89.0917 444.272 82.5448 443 80C439.98 73.9608 426.96 76.241 426 82M447 77L447 92L454 92L455 82L456 82L457 92L464 92L465 82L466 82L467 92L474 92L473 78L465 77L463 79L461 77L454 78L454 77L447 77M494 87L483 87L483 86L494 86C494 82.7567 493.811 80.0441 491 78C486.696 74.8697 477.656 77.0309 476 82C472.27 93.1905 489.913 95.1738 494 87M527 82L537 81L537 82C534.286 82.9047 528.631 83.0103 527 86C523.643 92.1552 534.704 93.8271 537 90L544 92C544 89.0917 545.272 82.5448 544 80C540.98 73.9608 527.96 76.241 527 82M548 77L550 92L557 91L557 92L564 92L564 77L557 77L556 87L555 87L555 77L548 77M587 82L597 81L597 82C594.286 82.9047 588.631 83.0102 587 86C583.643 92.1552 594.704 93.8271 597 90L604 92C604 89.0917 605.272 82.5448 604 80C600.98 73.9608 587.96 76.241 587 82M617 89L613 87L606 88C608.123 92.2463 617.695 94.1307 622 91C624.541 89.1517 625.177 84.733 622 83C621.017 82.464 618.149 83 617 83L617 82L624 81C622.273 77.5466 614.425 74.7877 610 77C608.305 77.8477 605.882 80.9497 607 83C609.454 87.4993 614.741 84.4825 617 89M658 87L647 87L647 86L658 86C658 82.7567 657.811 80.0441 655 78C650.696 74.8697 641.656 77.0309 640 82C636.27 93.1905 653.913 95.1738 658 87M661 77L661 92L668 92L669 82L670 82L670 92L677 92L675 77L668 78L668 77L661 77z"/>
<path style="fill:#45240b; stroke:none;" d="M115 80L115 92L116 92L120 86C120 91.9042 118.347 92.1023 114 95L114 96L120 95L125 98L126 94C120.188 93.0313 124 82.6657 124 78L115 80z"/>
<path style="fill:#040000; stroke:none;" d="M614 80L617 82L614 80z"/>
<path style="fill:#736f6e; stroke:none;" d="M107 81C105.325 83.5124 103.342 86.2684 107 87L107 88L102 89L103 85L101 84L100 84L104 93C100.951 93 101 92.9507 101 96L105 95L105 96C101.546 96.6909 103.796 96.5497 104 99L103 101C103.873 103.038 105.01 105.019 106 107L109 105L107 109L111 111L113 106L109 102L108 95L105 94L105 93L108 93L107 90L110 82L107 81z"/>
<path style="fill:#040000; stroke:none;" d="M255 82L255 83L259 83L255 82M287 81L287 88L289 88L289 81L287 81M308 81L308 88L309 88C310.448 85.1048 310.755 82.6532 308 81M326 82L326 83L330 83L326 82M347 81L347 88L348 88C349.448 85.1048 349.755 82.6532 347 81M483 82L483 83L487 83L483 82M516 81L516 88L517 88C518.448 85.1048 518.755 82.6532 516 81M647 82L647 83L651 83L647 82z"/>
<path style="fill:#736f6e; stroke:none;" d="M113 82L113 88L114 88L115 82L113 82z"/>
<path style="fill:#a88611; stroke:none;" d="M115 82L113 96C118.464 93.268 120 92.5773 120 86L116 92L115 92L115 82z"/>
<path style="fill:#f77700; stroke:none;" d="M389 82L389 87L399 87L399 82L389 82z"/>
<path style="fill:#ded500; stroke:none;" d="M583 82L585 85L583 82M624 83L625 84L624 83M636 83L636 86L637 86L636 83z"/>
<path style="fill:#45240b; stroke:none;" d="M101 86L103 87L104 87L102 84L101 86z"/>
<path style="fill:#736f6e; stroke:none;" d="M123 84L123 89L124 89L123 84z"/>
<path style="fill:#040000; stroke:none;" d="M207 85L205 88C207.815 87.5309 208.75 86.7495 207 85M379 85L377 88C379.815 87.5309 380.75 86.7495 379 85M435 85L433 88C435.815 87.5309 436.75 86.7495 435 85M536 85L534 88C536.815 87.5309 537.75 86.7495 536 85M596 85L594 88C596.815 87.5309 597.75 86.7495 596 85z"/>
<path style="fill:#ded500; stroke:none;" d="M605 85L606 86L605 85z"/>
<path style="fill:#a9a585; stroke:none;" d="M23 86L23 90L24 90L23 86z"/>
<path style="fill:#45240b; stroke:none;" d="M102 87L103 89L102 87M129 87L128 89L130 89L129 87z"/>
<path style="fill:#160d00; stroke:none;" d="M101 89L101 92L103 91L103 90L101 89z"/>
<path style="fill:#a88611; stroke:none;" d="M127 89C125.78 92.6587 125.381 96.2301 130 97L130 89L127 89z"/>
<path style="fill:#736f6e; stroke:none;" d="M112 92L112 97L116 97L116 96L113 96L112 92z"/>
<path style="fill:#45240b; stroke:none;" d="M105 93L107 94L105 93z"/>
<path style="fill:#a88611; stroke:none;" d="M51 94L51 104L52 104L52 96L58 99C61.4373 95.5627 54.6512 94 51 94z"/>
<path style="fill:#ded500; stroke:none;" d="M89 100L97 99L95 94C90.9888 94.6685 90.2484 96.2548 89 100z"/>
<path style="fill:#de6b00; stroke:none;" d="M126 94L128 98L126 94z"/>
<path style="fill:#a88611; stroke:none;" d="M119 95L120 101L127 103L127 105L128 105L128 98L126 95L125 95L125 98L119 95z"/>
<path style="fill:#45240b; stroke:none;" d="M52 96L53 106L53 114C49.1775 114.765 50.9401 119.388 54 120L52 116L56 118L58 117L58 120C59.9312 118.069 58 117.431 58 115L59 115C59.4231 112.461 58 109.825 58 108L59 107C59.9591 100.286 58.9793 96 52 96z"/>
<path style="fill:#a88611; stroke:none;" d="M53 97C53 101.636 52.515 103.505 57 105L54 101L54 100L57 101C57 97.5661 56.2628 97.5438 53 97z"/>
<path style="fill:#45240b; stroke:none;" d="M128 97L127 107L129 107L130 97L128 97z"/>
<path style="fill:#736f6e; stroke:none;" d="M129 98L129 106L130 106L129 98z"/>
<path style="fill:#a9a585; stroke:none;" d="M24 99L24 103L25 103L24 99z"/>
<path style="fill:#a88611; stroke:none;" d="M89 100L87 107L85 107L84 104L82 104L81 119L84 118L83 124C88.3 124 86.7026 119.892 88 116L89 116L88 122C93.0522 122 94.1161 119.022 93 114C92.7643 112.939 91.1335 111.589 92 110C93.7446 106.802 95.7 109.15 98 108C102.019 105.99 101.942 101.314 98 100C95.4972 99.1657 92.9067 100.728 91 101C92.7365 100.752 88.7665 99.9533 89 100z"/>
<path style="fill:#736f6e; stroke:none;" d="M93 101L94 103L93 101z"/>
<path style="fill:#de6b00; stroke:none;" d="M126 103L126 108L127 108L126 103z"/>
<path style="fill:#736f6e; stroke:none;" d="M125 104L127 109L125 104z"/>
<path style="fill:#a88611; stroke:none;" d="M52 105L53 107L52 105M59 105L58 109L59 109L59 105M54 106L56 109L54 106z"/>
<path style="fill:#736f6e; stroke:none;" d="M114 106L113 111C116.846 111 115.92 109.239 117 106L114 106z"/>
<path style="fill:#a88611; stroke:none;" d="M74 108L73 115L78 112L78 111L76 108L74 108z"/>
<path style="fill:#040000; stroke:none;" d="M617 108L621 123L622 127L629 127L633 108L628 108L626 118L622 108L617 108M638 115L638 122L634 122L634 127L648 127L648 122L644 122L644 108C641.347 108 636.912 107.3 635 109C631.701 111.933 634.652 115 638 115M662 115L670 114L662 122L662 127L676 127C676 123.408 676.914 122 673 122C674.997 119.603 677.833 114.666 676 111C674.395 107.79 664.244 106.008 662 109C661.348 109.869 662 113.852 662 115z"/>
<path style="fill:#a88611; stroke:none;" d="M59 109L58 115L57 124L56 123L54 126L54 127L55 129L56 129L59 124L59 133L60 133L60 116L59 109z"/>
<path style="fill:#ded500; stroke:none;" d="M618 109L622 122L623 126L628 126L632 109L629 109L628 114L626 123C623.742 118.484 624.228 109 618 109M636 114L639 112L639 123L635 123L635 126L647 126L647 123L643 123L643 109C638.914 109 633.521 109.042 636 114M663 114C664.046 113.651 666.046 112.106 667 112C670.3 111.633 671.92 114.6 670 117C667.331 120.336 663 120.667 663 126L675 126L675 123L670 123C671.792 121.208 674.251 119.247 675 117C677.349 109.952 667.601 106.166 663 110C662.643 110.297 663 113.461 663 114z"/>
<path style="fill:#a88611; stroke:none;" d="M57 110L54 111L55 114L57 114L57 110z"/>
<path style="fill:#45240b; stroke:none;" d="M78 110L78 111L80 117L81 117L81 110L78 110z"/>
<path style="fill:#010382; stroke:none;" d="M71 129C74.8695 128.355 75 127.928 75 124L76 124L76 127L79 122L81 121L80 111L74 115L70 117L71 129z"/>
<path style="fill:#a9a585; stroke:none;" d="M25 112L25 116L26 116L25 112z"/>
<path style="fill:#a88611; stroke:none;" d="M50 112L50 117L51 117L53 112L50 112M43 115L41 127L43 127L43 115z"/>
<path style="fill:#45240b; stroke:none;" d="M44 115L43 126L41 127L41 131L44 129L45 129L47 134L49 134L49 122L47 120L47 116L44 115z"/>
<path style="fill:#a88611; stroke:none;" d="M45 115L47 116L45 115M52 116L54 120C56.5963 119.481 58 121.176 58 117L52 116z"/>
<path style="fill:#a9a585; stroke:none;" d="M88 116L88 121L89 121L88 116z"/>
<path style="fill:#a88611; stroke:none;" d="M45 117L45 120L46 120L45 117M47 117L48 122L49 122L47 117z"/>
<path style="fill:#736f6e; stroke:none;" d="M87 117L87 123L88 123L87 117z"/>
<path style="fill:#a88611; stroke:none;" d="M64 123L70 119C67.7945 116.795 64.5512 119.693 64 123z"/>
<path style="fill:#160d00; stroke:none;" d="M53 120L53 121L59 122C58.372 118.86 55.8968 119.034 53 120z"/>
<path style="fill:#736f6e; stroke:none;" d="M69 119L69 123L70 123L69 119z"/>
<path style="fill:#a88611; stroke:none;" d="M52 120L52 127L53 127L52 120z"/>
<path style="fill:#040000; stroke:none;" d="M653 120C649.084 122.61 653.613 129.925 658 127C661.916 124.39 657.387 117.075 653 120z"/>
<path style="fill:#a88611; stroke:none;" d="M44 121L44 126L45 126L48 124L44 121z"/>
<path style="fill:#45240b; stroke:none;" d="M53 121L54 129L53 136L54 137L53 137L53 146L54 146L53 142L56 143L55 140L59 141L59 148L60 148L59 124L56 129L55 129L54 126L57 123L58 124L53 121z"/>
<path style="fill:#736f6e; stroke:none;" d="M79 121L79 126L80 126L79 121z"/>
<path style="fill:#040000; stroke:none;" d="M82 125L83 128L88 125L93 121L82 125z"/>
<path style="fill:#a88611; stroke:none;" d="M112 121L110 124L113 123L112 128L113 128C114.448 125.105 114.755 122.653 112 121z"/>
<path style="fill:#ded500; stroke:none;" d="M654 121C651.162 122.892 653.994 128.004 657 126C659.838 124.108 657.006 118.996 654 121z"/>
<path style="fill:#a88611; stroke:none;" d="M49 122L49 136L50 136L49 122M54 122L54 125L55 125L54 122z"/>
<path style="fill:#ded500; stroke:none;" d="M107 122L107 123L110 124L107 122z"/>
<path style="fill:#736f6e; stroke:none;" d="M70 123L72 130L70 123z"/>
<path style="fill:#de6b00; stroke:none;" d="M106 123L105 124L106 131L107 131L109 129L108 125L111 128L113 123L106 123z"/>
<path style="fill:#45240b; stroke:none;" d="M107 123L109 124L107 123z"/>
<path style="fill:#a88611; stroke:none;" d="M29 127C35.3789 124.874 35 131.904 35 137C36.9426 135.057 36.3561 127.356 34 125C31.4005 122.4 29 123.878 29 127z"/>
<path style="fill:#45240b; stroke:none;" d="M75 124L75 128L76 128L75 124z"/>
<path style="fill:#a9a585; stroke:none;" d="M26 125L26 129L27 129L26 125z"/>
<path style="fill:#cad316; stroke:none;" d="M104 125L103 127L105 127L104 125z"/>
<path style="fill:#45240b; stroke:none;" d="M105 125L103 127L103 128C105.815 127.531 106.75 126.75 105 125z"/>
<path style="fill:#a88611; stroke:none;" d="M108 125L108 127L110 127L110 125L108 125z"/>
<path style="fill:#45240b; stroke:none;" d="M29 127C29.2854 128.713 30.3859 130.263 30 132C29.5956 133.82 27.5924 133.554 28 136C28.3724 138.235 30.1489 139.957 31 142C31.6948 143.668 31 147.167 31 149C31 156.16 30.3778 162.189 38 166C39.9856 162.029 38.1961 160.588 37 157C35.8216 153.465 37.7826 151.797 33 151L35 154L32 150C37.8722 150 35 147.372 35 144L36 144C36.4956 141.027 35.6019 138.407 35 136C34.2805 133.122 36.0393 129.294 34 127C32.2821 125.067 30.7337 126.133 29 127z"/>
<path style="fill:#a88611; stroke:none;" d="M46 126L47 129L48 129L48 126L46 126M71 131L79 126L71 131M31 127L32 129L31 127M92 139L97 138L97 137L93 137L95 132L103 127L93 131L92 139M105 127L104 130C106.673 129.465 106.479 128.479 105 127z"/>
<path style="fill:#45240b; stroke:none;" d="M109 127L109 129L111 129L109 127M111 127L112 128L111 127z"/>
<path style="fill:#a88611; stroke:none;" d="M53 128L52 131L53 128z"/>
<path style="fill:#040000; stroke:none;" d="M71 134C74.963 134 79.3492 131.905 80 128C75.6887 128 71 129.965 71 134z"/>
<path style="fill:#de6b00; stroke:none;" d="M102 128L103 131L101 130L104 133L105 128L102 128z"/>
<path style="fill:#a88611; stroke:none;" d="M29 129L28 134L29 134L29 129M44 129L48 133L44 129z"/>
<path style="fill:#45240b; stroke:none;" d="M102 129L103 131L102 129z"/>
<path style="fill:#a88611; stroke:none;" d="M107 131L110 130C108.521 128.521 107.535 128.327 107 131z"/>
<path style="fill:#45240b; stroke:none;" d="M97 130L99 135L97 130z"/>
<path style="fill:#de6b00; stroke:none;" d="M98 130L99 135L100 135L100 130L98 130z"/>
<path style="fill:#45240b; stroke:none;" d="M100 130C100 133.049 99.9507 133 103 133L103 132L100 130M104 130L106 131L104 130z"/>
<path style="fill:#a88611; stroke:none;" d="M31 131L34 134C34 130.951 34.0493 131 31 131M41 131L41 136L42 136L41 131z"/>
<path style="fill:#160d00; stroke:none;" d="M42 131L49 135L42 131z"/>
<path style="fill:#a88611; stroke:none;" d="M54 131L54 135L55 135L58 134L54 131z"/>
<path style="fill:#f77700; stroke:none;" d="M96 131C92.4296 133.856 93.9848 138.508 99 136L96 131z"/>
<path style="fill:#cad316; stroke:none;" d="M104 131L104 132L107 132L104 131z"/>
<path style="fill:#a88611; stroke:none;" d="M117 132L120 134L118 138L119 138L121 132L117 132z"/>
<path style="fill:#45240b; stroke:none;" d="M42 132L45 142L44 142L45 149L44 154L45 161L43 167L46 170L45 174L47 188L45 193L46 198L45 203L53 206L51 201L52 201L52 180L50 172L51 172L50 167L50 160L52 161L49 151L50 151L49 144L49 135L47 137L42 132z"/>
<path style="fill:#cad316; stroke:none;" d="M89 133L92 136L93 133L92 132L89 133z"/>
<path style="fill:#ded500; stroke:none;" d="M114 132L116 134L116 132L114 132z"/>
<path style="fill:#a88611; stroke:none;" d="M43 133C43.5576 136.346 44.56 137 48 137L43 133z"/>
<path style="fill:#45240b; stroke:none;" d="M95 133L96 134L95 133z"/>
<path style="fill:#cad316; stroke:none;" d="M100 133L100 134L103 134L100 133z"/>
<path style="fill:#a88611; stroke:none;" d="M112 133L114 134L112 133z"/>
<path style="fill:#45240b; stroke:none;" d="M112 134L113 136C112.175 137.651 110.666 139.333 114 140L115 137L116 137L115 133L112 134z"/>
<path style="fill:#de6b00; stroke:none;" d="M116 133L115 138L120 134L116 133z"/>
<path style="fill:#a88611; stroke:none;" d="M87 134L87 136L89 136L89 134L87 134z"/>
<path style="fill:#45240b; stroke:none;" d="M89 134L91 135L89 134z"/>
<path style="fill:#f77700; stroke:none;" d="M111 134L111 140L109 139L110 142C112.275 140.294 113.794 135.676 111 134z"/>
<path style="fill:#a88611; stroke:none;" d="M30 135L32 138C27.3758 138.925 32.8807 141.294 35 142L32 139L34 136L30 135z"/>
<path style="fill:#ded500; stroke:none;" d="M85 135L87 136L85 135z"/>
<path style="fill:#f77700; stroke:none;" d="M89 135L88 139L89 139L91 135L89 135z"/>
<path style="fill:#160d00; stroke:none;" d="M93 135L93 137L95 137L93 135z"/>
<path style="fill:#a88611; stroke:none;" d="M114 135C112.343 138.315 113.053 140.974 117 139L114 135M28 136L28 139L29 139L28 136M57 136L58 138L57 136z"/>
<path style="fill:#cad316; stroke:none;" d="M80 136L80 137L84 138L84 137L80 136z"/>
<path style="fill:#45240b; stroke:none;" d="M83 143L84 143C84.0407 143.244 83.5214 138.827 83 140C84.5454 136.523 86.4673 136.804 87 140L88 140L88 136C83.3478 136 80.9671 138.934 83 143M110 136L111 137L110 136z"/>
<path style="fill:#a88611; stroke:none;" d="M43 137L43 140L44 140L43 137z"/>
<path style="fill:#de6b00; stroke:none;" d="M78 137L78 146L79 146L83 138L78 137z"/>
<path style="fill:#45240b; stroke:none;" d="M80 137L82 138L80 137z"/>
<path style="fill:#de6b00; stroke:none;" d="M86 143C85.4854 140.427 84.9193 141 88 141L87 137C82.4916 137.751 81.5809 142.116 86 143z"/>
<path style="fill:#a88611; stroke:none;" d="M89 137L88 141L91 137L89 137M100 143L111 140C109.914 133.487 100.609 139.956 100 143z"/>
<path style="fill:#45240b; stroke:none;" d="M117 137L118 138L117 137z"/>
<path style="fill:#a9a585; stroke:none;" d="M27 138L27 142L28 142L27 138z"/>
<path style="fill:#a88611; stroke:none;" d="M45 138L48 141L45 138z"/>
<path style="fill:#45240b; stroke:none;" d="M93 138L95 139L93 138z"/>
<path style="fill:#736f6e; stroke:none;" d="M28 139L30 177L32 177L32 165L33 162L31 160L32 154L30 148L28 139z"/>
<path style="fill:#a88611; stroke:none;" d="M51 139L51 145L52 145L53 139L51 139M76 139L78 147L76 139z"/>
<path style="fill:#45240b; stroke:none;" d="M77 139L77 146L78 146L77 139z"/>
<path style="fill:#cad316; stroke:none;" d="M93 139L95 140L93 139z"/>
<path style="fill:#de6b00; stroke:none;" d="M107 139C105.044 141.347 103.694 142.339 107 143L107 144L104 141C99.9831 142.339 101 144.737 101 149L102 149L102 145L107 145L107 139z"/>
<path style="fill:#45240b; stroke:none;" d="M108 139L110 142L108 139z"/>
<path style="fill:#a88611; stroke:none;" d="M55 140L56 143L53 142L59 147L59 141L55 140z"/>
<path style="fill:#45240b; stroke:none;" d="M80 140L81 142L80 140z"/>
<path style="fill:#a88611; stroke:none;" d="M111 142L114 141C112.521 139.521 111.535 139.327 111 142M30 141L30 149L31 149L30 141M43 141L43 146L44 146L45 141L43 141M60 141L60 167L61 167L61 148L60 141z"/>
<path style="fill:#45240b; stroke:none;" d="M85 141L86 142L85 141z"/>
<path style="fill:#cad316; stroke:none;" d="M86 141L88 142L86 141z"/>
<path style="fill:#45240b; stroke:none;" d="M104 141C104 144.049 103.951 144 107 144L107 143L104 141z"/>
<path style="fill:#a88611; stroke:none;" d="M36 142L36 153L37 153L36 142M81 142L79 146L84 143L81 142M87 148L87 149C91.3864 149 93.7348 147.796 95 144L98 145L97 142L87 148z"/>
<path style="fill:#ded500; stroke:none;" d="M98 142L100 143L98 142z"/>
<path style="fill:#cad316; stroke:none;" d="M108 142L110 143L108 142z"/>
<path style="fill:#a88611; stroke:none;" d="M32 143L32 145L34 145L34 143L32 143M45 143C45 146.744 45.084 148.347 49 149L49 145L48 145L46 147L47 143L45 143M49 143L50 145L49 143z"/>
<path style="fill:#45240b; stroke:none;" d="M98 143L98 144L100 149L101 149L101 143L98 143M102 143L103 144L102 143z"/>
<path style="fill:#a88611; stroke:none;" d="M125 143L123 146C125.881 145.424 125 145.646 125 149L124 149L123 147L121 152C124.965 150.678 128.233 146.233 125 143z"/>
<path style="fill:#de6b00; stroke:none;" d="M95 144L94 151L95 151L95 144z"/>
<path style="fill:#f77700; stroke:none;" d="M98 144C96.529 146.942 96.3997 148.4 100 149L100 144L98 144z"/>
<path style="fill:#160d00; stroke:none;" d="M54 145C54 150.848 52.6939 155.949 59 157C61.7326 151.535 60.1393 146.023 54 145z"/>
<path style="fill:#45240b; stroke:none;" d="M96 145L98 149L96 145M98 145L99 147L98 145z"/>
<path style="fill:#a88611; stroke:none;" d="M102 145L102 148L103 148L104 145L102 145z"/>
<path style="fill:#f77700; stroke:none;" d="M124 145L119 150L115 149L117 154L124 147L124 149L125 149L124 145z"/>
<path style="fill:#a88611; stroke:none;" d="M50 146L50 151L51 151L50 146M53 146L53 156L55 160L56 160L59 160L54 153L53 146z"/>
<path style="fill:#cad316; stroke:none;" d="M120 146L122 147L120 146z"/>
<path style="fill:#45240b; stroke:none;" d="M122 146L123 147L122 146z"/>
<path style="fill:#a88611; stroke:none;" d="M32 147L35 149L32 147z"/>
<path style="fill:#f77700; stroke:none;" d="M92 147L83 152L83 156L84 156L86 155L87 152L89 151L94 152L92 147z"/>
<path style="fill:#45240b; stroke:none;" d="M93 147L93 151L94 151L93 147z"/>
<path style="fill:#a88611; stroke:none;" d="M95 147L95 151L98 150L95 147M116 147C116.73 150.65 118.814 150.559 120 147L116 147z"/>
<path style="fill:#45240b; stroke:none;" d="M120 147L122 148L120 147z"/>
<path style="fill:#040000; stroke:none;" d="M183 147L183 157L185 157L186 152L190 157L190 147L186 151L185 151L185 147L183 147M208 147L208 149L210 149L210 147L208 147M248 147L251 157L254 157L257 147C253.82 147.636 253 151.411 253 155L252 155C252 151.411 251.18 147.636 248 147M271 147L271 157L276 157C277.635 153.73 277.872 148.564 273 151L273 147L271 147M292 147L292 149L294 149L294 147L292 147M340 147L340 151L337 150L337 157L342 157L342 147L340 147M346 147L343 157L344 157L346 147M360 147L360 151L357 150L357 157L362 157L362 147L360 147M380 147L383 157L386 157L389 147C385.82 147.636 385 151.411 385 155L384 155C384 151.411 383.18 147.636 380 147M423 147L423 151L420 150L420 157L425 157L425 147L423 147M452 147L452 149L454 149L454 147L452 147M511 147L511 151L508 150L508 157L513 157L513 147L511 147M535 147L535 157C539.466 157 542.807 157.649 542 152L541 151C541 150.625 543.454 148.636 541 147C540.014 146.342 536.236 147 535 147M556 147L556 151L553 150L553 157L558 157L558 147L556 147M560 147L560 149L562 149L562 147L560 147M628 147L628 151L625 150L625 157L630 157L630 147L628 147z"/>
<path style="fill:#a88611; stroke:none;" d="M44 148L45 150L44 148M55 148L58 151L58 152L55 151L59 155C59 150.401 59.7345 148.789 55 148z"/>
<path style="fill:#040000; stroke:none;" d="M297 148C294.654 150.815 294.756 156.293 299 157L297 148M404 148L405 149L404 148M407 148L408 149L407 148M463 148L460 151L460 150L455 151L455 153L459 155L459 156L455 155L455 156L461 156L461 154L457 152L457 151L462 151C462 154.555 461.218 156.37 465 157L463 148M487 148C484.654 150.815 484.756 156.293 489 157L487 148M540 148L540 151L537 151L537 148L540 148M35 149L33 150L33 151C35.8268 151 36.7379 150.738 35 149z"/>
<path style="fill:#45240b; stroke:none;" d="M87 149L87 150L90 150L87 149z"/>
<path style="fill:#a88611; stroke:none;" d="M32 150L35 154L32 150M82 151L82 152L87 151L82 151M101 161L102 161L108 155L109 159C105.096 159 101.612 160.938 101 164L117 155L117 154L109 157L109 154L115 153L114 150C108.301 152.85 101 153.967 101 161z"/>
<path style="fill:#160d00; stroke:none;" d="M115 150L117 154L115 150z"/>
<path style="fill:#45240b; stroke:none;" d="M117 150L117 152L119 152L117 150z"/>
<path style="fill:#040000; stroke:none;" d="M193 150C189.769 152.154 192.748 159.834 197 157C200.232 154.846 197.252 147.166 193 150M200 150L200 160L202 160L202 156L205 157L205 150L200 150M208 150L208 157L210 157L210 150L208 150M218 156L218 155L214 156L218 154C218 150.989 214.494 147.26 212 151C208.808 155.788 214.748 157.626 218 156M220 150L220 157L222 157L224 151L220 150M231 156L231 155L227 156L231 154C231 150.989 227.494 147.26 225 151C221.808 155.788 227.748 157.626 231 156M233 150L233 157L235 157L236 151L237 151L237 157L239 157L238 150L233 150M264 156L264 155L260 156L264 154C264 150.989 260.494 147.26 258 151C254.808 155.788 260.748 157.626 264 156M266 150L266 157L268 157L270 151L266 150M279 150L279 157L281 157L283 151L279 150M290 156L290 155L286 156L290 154C290 150.989 286.494 147.26 284 151C280.808 155.788 286.748 157.626 290 156M292 150L292 157L294 157L294 150L292 150M306 156L306 155L302 156L306 154C306 150.989 302.494 147.26 300 151C296.808 155.788 302.748 157.626 306 156M308 150L308 157L310 157L311 151L312 151L312 157L314 157L313 150L308 150M320 150L321 157L326 157L326 150L324 150L323 156L322 156L322 150L320 150M328 150L328 157L330 157L331 151L332 151L332 157L334 157L333 150L328 150M349 150C345.769 152.154 348.748 159.834 353 157C356.232 154.846 353.252 147.166 349 150M370 156L370 155L366 156L370 154C370 150.989 366.494 147.26 364 151C360.808 155.788 366.748 157.626 370 156M372 150L372 157L374 157L376 151L372 150M396 156L396 155L392 156L396 154C396 150.989 392.494 147.26 390 151C386.808 155.788 392.748 157.626 396 156M398 150L398 157L400 157L402 151L398 150M403 151L403 152L407 151L407 152L403 156L409 157C409 151.935 408.736 148.132 403 151M411 150L411 157L413 157L414 151L415 151L415 157L417 157L416 150L411 150M433 156L433 155L429 156L433 154C433 150.989 429.494 147.26 427 151C423.808 155.788 429.748 157.626 433 156M435 150L435 157L437 157L439 151L435 150M440 150L440 157L442 157L443 151L444 151L444 157L446 157L445 150L440 150M452 150L452 157L454 157L454 150L452 150M470 150L471 157L476 157L476 150L474 150L473 156L472 156L472 150L470 150M478 150L478 157L480 157L481 151L482 151L482 157L484 157L483 150L478 150M496 156L496 155L492 156L496 154C496 150.989 492.494 147.26 490 151C486.808 155.788 492.748 157.626 496 156M498 150L498 157L500 157L502 151L498 150M521 156L521 155L517 156L521 154C521 150.989 517.494 147.26 515 151C511.808 155.788 517.748 157.626 521 156M523 150L523 157L525 157L526 151L527 151L527 157L529 157L528 150L523 150M550 156L550 155L546 156L550 154C550 150.989 546.494 147.26 544 151C540.808 155.788 546.748 157.626 550 156M560 150L560 157L562 157L562 150L560 150M564 150L564 157L566 157L567 151L568 151L568 157L570 157L569 150L564 150M573 150C571.365 153.27 571.128 158.436 576 156C575.426 159.442 574.954 158.985 572 158L572 159C579.182 162.591 578 155.296 578 150L573 150M580 150L581 157L586 157L586 150L584 150L583 156L582 156L582 150L580 150M588 150L588 157L590 157L591 151L592 151L592 157L594 157L593 150L588 150M597 150C595.365 153.27 595.128 158.436 600 156C599.426 159.442 598.954 158.985 596 158L596 159C603.182 162.591 602 155.296 602 150L597 150M610 156L610 155L606 156L610 154C610 150.989 606.494 147.26 604 151C600.808 155.788 606.748 157.626 610 156M612 150L612 157L614 157L615 151L616 151L616 157L618 157L617 150L612 150M638 156L638 155L634 156L638 154C638 150.989 634.494 147.26 632 151C628.808 155.788 634.748 157.626 638 156M640 150L640 157L642 157L644 151L640 150z"/>
<path style="fill:#a9a585; stroke:none;" d="M28 151L28 155L29 155L28 151z"/>
<path style="fill:#a88611; stroke:none;" d="M45 151L45 152L49 154L45 151z"/>
<path style="fill:#45240b; stroke:none;" d="M89 151L87 152L87 153L87 154L91 152L89 151z"/>
<path style="fill:#040000; stroke:none;" d="M196 151L196 156L194 156L194 151L196 151M204 151L204 156L203 156C201.654 153.307 201.446 152.532 204 151M216 151L216 153L214 153L214 151L216 151M229 151L229 153L227 153L227 151L229 151M262 151L262 153L260 153L260 151L262 151M275 151L275 156L274 156C272.654 153.307 272.446 152.532 275 151M288 151L288 153L286 153L286 151L288 151M304 151L304 153L302 153L302 151L304 151M339 151L339 156L338 156L339 151M352 151L352 156L350 156L350 151L352 151M359 151L359 156L358 156L359 151M368 151L368 153L366 153L366 151L368 151M394 151L394 153L392 153L392 151L394 151M422 151L422 156L421 156L422 151M431 151L431 153L429 153L429 151L431 151M494 151L494 153L492 153L492 151L494 151M510 151L510 156L509 156L510 151M519 151L519 153L517 153L517 151L519 151M548 151L548 153L546 153L546 151L548 151M555 151L555 156L554 156L555 151M575 151L575 156L574 156L575 151M599 151L599 156L598 156L599 151M608 151L608 153L606 153L606 151L608 151M627 151L627 156L626 156L627 151M636 151L636 153L634 153L634 151L636 151z"/>
<path style="fill:#a88611; stroke:none;" d="M50 152L52 156L50 152M73 154L73 155L78 158C77.4854 155.427 76.9193 156 80 156L79 152L73 154z"/>
<path style="fill:#cad316; stroke:none;" d="M80 152L82 153L80 152z"/>
<path style="fill:#45240b; stroke:none;" d="M80 153L84 157L83 152L80 153z"/>
<path style="fill:#f77700; stroke:none;" d="M112 154L115 154L114 152L112 154z"/>
<path style="fill:#040000; stroke:none;" d="M540 152L540 156L537 156L537 152L540 152z"/>
<path style="fill:#de6b00; stroke:none;" d="M79 153L78 159L82 157L82 154L79 153z"/>
<path style="fill:#cad316; stroke:none;" d="M89 153L91 154L89 153z"/>
<path style="fill:#45240b; stroke:none;" d="M111 153L111 157L112 157L111 153z"/>
<path style="fill:#040000; stroke:none;" d="M407 153L405 156L407 153z"/>
<path style="fill:#a88611; stroke:none;" d="M46 154L51 159L46 154z"/>
<path style="fill:#45240b; stroke:none;" d="M84 154L84 156L86 156L84 154z"/>
<path style="fill:#a88611; stroke:none;" d="M86 156L89 155C87.5209 153.521 86.5347 153.327 86 156z"/>
<path style="fill:#f77700; stroke:none;" d="M109 154L109 157C111.859 156.428 111.859 154.572 109 154z"/>
<path style="fill:#a88611; stroke:none;" d="M44 155L43 164L45 164L44 155z"/>
<path style="fill:#45240b; stroke:none;" d="M73 155L75 157L75 155L73 155z"/>
<path style="fill:#f77700; stroke:none;" d="M75 155L73 156L73 162L78 161L75 155z"/>
<path style="fill:#45240b; stroke:none;" d="M107 155L109 159L107 155z"/>
<path style="fill:#040000; stroke:none;" d="M241 155L241 159L242 159L243 155L241 155z"/>
<path style="fill:#a88611; stroke:none;" d="M33 156L33 161C35.4324 162.216 35.4549 162.725 36 160L37 160L37 163L38 163C38 158.846 36.6404 157.213 33 156M52 156L50 160L53 162L52 156z"/>
<path style="fill:#45240b; stroke:none;" d="M54 156L55 163L53 168L59 168L57 173L60 174L60 175L54 171L55 170L53 174L55 175L55 192L56 198L54 199L55 204L54 208L62 212L62 209L60 210L55 207L60 204L62 207L61 185L60 184L61 184L60 178L61 178L60 156L59 156L59 160C56.7287 158.107 56.6068 156.966 56 160L55 160L54 156z"/>
<path style="fill:#a88611; stroke:none;" d="M71 156L71 164L74 163L73 156L71 156z"/>
<path style="fill:#45240b; stroke:none;" d="M77 156L79 157L77 156z"/>
<path style="fill:#de6b00; stroke:none;" d="M104 156L104 160L107 156L104 156z"/>
<path style="fill:#a88611; stroke:none;" d="M31 157L31 161L32 161L31 157M79 160L84 158C82.084 156.084 79.5693 156.584 79 160z"/>
<path style="fill:#45240b; stroke:none;" d="M103 157L103 162L104 162L103 157z"/>
<path style="fill:#a88611; stroke:none;" d="M38 158L39 160L38 158z"/>
<path style="fill:#45240b; stroke:none;" d="M77 158L77 160L79 160L77 158z"/>
<path style="fill:#f77700; stroke:none;" d="M98 159L100 163L103 158L102 158L102 161L101 161L101 158L98 159z"/>
<path style="fill:#a88611; stroke:none;" d="M46 159L49 161L46 159z"/>
<path style="fill:#160d00; stroke:none;" d="M75 160L76 161L75 160z"/>
<path style="fill:#de6b00; stroke:none;" d="M96 160L96 165L99 164L98 160L96 160z"/>
<path style="fill:#45240b; stroke:none;" d="M98 160L101 164L98 160z"/>
<path style="fill:#a88611; stroke:none;" d="M54 161L52 163L52 168L50 172L51 180L52 180L53 173L53 166L54 161M58 161L59 163L58 161z"/>
<path style="fill:#cad316; stroke:none;" d="M74 163L77 162C75.5209 160.521 74.5347 160.327 74 163M92 161L92 162L96 162L92 161z"/>
<path style="fill:#a88611; stroke:none;" d="M90 162L90 163L95 163L90 162z"/>
<path style="fill:#45240b; stroke:none;" d="M95 162L95 166L96 166L95 162z"/>
<path style="fill:#a88611; stroke:none;" d="M32 163C32.5907 165.954 33.3425 165.886 36 165L32 163M47 165L50 163L47 165z"/>
<path style="fill:#de6b00; stroke:none;" d="M89 163L89 169L90 169L89 163z"/>
<path style="fill:#45240b; stroke:none;" d="M90 163L91 166L92 166L92 163L90 163z"/>
<path style="fill:#f77700; stroke:none;" d="M92 163L92 168L95 163L92 163z"/>
<path style="fill:#040000; stroke:none;" d="M184 168L180 168L180 169L182 172C178.171 171.362 175.72 166.675 180 164C180.364 163.772 183.176 164.863 184 165C180.775 159.626 172.929 165.37 176 171C177.394 173.556 182.099 173.901 184 172C184.39 171.61 184 168.61 184 168M186 163L186 173L188 173L188 167L189 167L193 173L193 163L191 163L191 168L190 168L188 163L186 163M195 163L195 172L202 172L202 163L200 163L200 172L197 172L197 163L195 163M208 163L208 173L210 173L210 169L214 169L214 168L210 168L210 164L214 164L208 163M241 163L241 173C242.149 173 245.017 173.536 246 173C249.022 171.352 249.022 164.648 246 163C245.017 162.464 242.149 163 241 163M317 163L317 165L319 165L319 163L317 163M341 163L341 173L347 173L347 172L343 172L343 163L341 163M349 163L349 165L351 165L351 163L349 163M397 163L400 173L403 173L406 163C402.82 163.636 402 167.411 402 171L401 171C401 167.411 400.18 163.636 397 163M426 163L426 165L428 165L428 163L426 163M450 167L452 166L452 173L454 173L454 163L450 167M460 164L460 165L464 164L460 173L466 173L466 172L462 172C463.499 170.501 465.377 168.868 466 167C467.615 162.156 462.484 162.758 460 164M484 163L484 167L481 166L481 173L486 173L486 163L484 163M513 163L513 165L515 165L515 163L513 163M600 163L603 173L606 173L609 163C605.82 163.636 605 167.411 605 171L604 171C604 167.411 603.18 163.636 600 163M629 163L629 165L631 165L631 163L629 163z"/>
<path style="fill:#a88611; stroke:none;" d="M56 164L59 167L56 164M90 164L87 172L100 165L100 164L92 168L90 164z"/>
<path style="fill:#736f6e; stroke:none;" d="M67 194L69 197L69 209L91 196L94 191L100 188L115 176L124 168L117 172L116 171L121 165C116.462 162.731 110.224 169.743 107 172C104.105 174.027 100.076 175.291 97 177C95.5272 177.818 94.5889 179.546 93 180C94.2735 179.636 91.5065 178.862 91 179C88.1812 179.769 86.5731 182.499 84 184C83.027 184.568 80.8705 184.129 80 185C76.2343 188.766 71.8267 190.782 67 194z"/>
<path style="fill:#040000; stroke:none;" d="M244 164L245 164C246.616 167.231 247.169 171.305 243 172L244 164M302 164C299.654 166.815 299.756 172.293 304 173L302 164M314 164C311.654 166.815 311.756 172.293 316 173L314 164M557 164L558 165L557 164M560 164L561 165L560 164M565 164C562.654 166.815 562.756 172.293 567 173L565 164z"/>
<path style="fill:#a9a585; stroke:none;" d="M29 165L29 169L30 169L29 165z"/>
<path style="fill:#45240b; stroke:none;" d="M32 165L33 177L36 176L37 179L38 179L37 174L38 170L34 165L32 165z"/>
<path style="fill:#a88611; stroke:none;" d="M45 165L50 170L45 165z"/>
<path style="fill:#45240b; stroke:none;" d="M88 165L88 170L89 170L88 165M93 165L94 166L93 165z"/>
<path style="fill:#a88611; stroke:none;" d="M50 166L51 168L50 166M68 175L71 179L72 179L88 166L74 174L68 175z"/>
<path style="fill:#040000; stroke:none;" d="M216 166L216 173L218 173L220 167L216 166M227 172L227 171L223 172L227 170C227 166.989 223.494 163.26 221 167C217.808 171.788 223.748 173.626 227 172M235 172L235 171L231 172L235 170C235 166.989 231.494 163.26 229 167C225.808 171.788 231.748 173.626 235 172M251 166C247.769 168.154 250.748 175.834 255 173C258.232 170.846 255.252 163.166 251 166M264 172L264 171L260 172L260 167L264 168C259.957 161.262 253.54 173 262 173L264 172M265 166L266 173L271 173L271 166L269 166L268 172L267 172L267 166L265 166M273 166L273 173L275 173L276 167L277 167L277 173L279 173L280 167L281 167L281 173L283 173L282 166L273 166M291 172L291 171L287 172L291 170C291 166.989 287.494 163.26 285 167C281.808 171.788 287.748 173.626 291 172M293 166L293 173L295 173L296 167L297 167L297 173L299 173L298 166L293 166M305 167L305 168L309 167L309 168L305 172L311 173C311 167.935 310.735 164.132 305 167M317 166L317 173L319 173L319 166L317 166M322 166C318.769 168.154 321.748 175.834 326 173C329.232 170.846 326.252 163.166 322 166M329 166L329 173L331 173L332 167L333 167L333 173L335 173L334 166L329 166M349 166L349 173L351 173L351 166L349 166M359 172L359 171L355 172L355 167L359 168C354.957 161.262 348.54 173 357 173L359 172M366 172L366 171L362 172L366 170C366 166.989 362.494 163.26 360 167C356.808 171.788 362.748 173.626 366 172M368 166L368 173L370 173L371 167L372 167L372 173L374 173L373 166L368 166M375 167L375 169L379 171L379 172L375 171L375 172L381 172L381 170L377 168L377 167L381 168C379.401 165.335 377.8 165.6 375 167M388 172L388 171L384 172L388 170C388 166.989 384.494 163.26 382 167C378.808 171.788 384.748 173.626 388 172M413 172L413 171L409 172L413 170C413 166.989 409.494 163.26 407 167C403.808 171.788 409.748 173.626 413 172M415 166L415 173L417 173L417 167L423 171L423 172L419 171L419 172L425 172L425 170L421 168L421 167L425 168L419 167L415 166M426 166L426 173L428 173L428 166L426 166M431 166C427.769 168.154 430.748 175.834 435 173C438.232 170.846 435.252 163.166 431 166M438 166L438 173L440 173L441 167L442 167L442 173L444 173L443 166L438 166M473 166C469.769 168.154 472.748 175.834 477 173C480.232 170.846 477.252 163.166 473 166M494 172L494 171L490 172L494 170C494 166.989 490.494 163.26 488 167C484.808 171.788 490.748 173.626 494 172M496 166L496 173L498 173L500 167L496 166M511 172L511 171L507 172L511 170C511 166.989 507.494 163.26 505 167C501.808 171.788 507.748 173.626 511 172M513 166L513 173L515 173L515 166L513 166M517 166L517 173L519 173L520 167L521 167L521 173L523 173L522 166L517 166M531 172L531 171L527 172L531 170C531 166.989 527.494 163.26 525 167C521.808 171.788 527.748 173.626 531 172M533 166L533 173L535 173L537 167L533 166M541 167L541 169L545 171L545 172L541 171L541 172L547 172L547 170L543 168L543 167L547 168C545.401 165.335 543.8 165.6 541 167M548 166L548 176L550 176L550 172L553 173L553 166L548 166M556 167L556 168L560 167L560 168L556 172L562 173C562 167.935 561.735 164.132 556 167M574 172L574 171L570 172L574 170C574 166.989 570.494 163.26 568 167C564.808 171.788 570.748 173.626 574 172M576 166L576 173L578 173L580 167L576 166M587 172L587 171L583 172L587 170C587 166.989 583.494 163.26 581 167C577.808 171.788 583.748 173.626 587 172M589 166L589 173L591 173L592 167L593 167L593 173L595 173L594 166L589 166M616 172L616 171L612 172L616 170C616 166.989 612.494 163.26 610 167C606.808 171.788 612.748 173.626 616 172M618 166L618 173L620 173L620 167L626 171L626 172L622 171L622 172L628 172L628 170L624 168L624 167L628 168L622 167L618 166M629 166L629 173L631 173L631 166L629 166M634 166C630.769 168.154 633.748 175.834 638 173C641.232 170.846 638.252 163.166 634 166M641 166L641 173L643 173L644 167L645 167L645 173L647 173L646 166L641 166z"/>
<path style="fill:#a88611; stroke:none;" d="M33 167L34 169L33 167M35 167L35 169L37 169L35 167M54 167L54 168L59 171C59 167.321 57.4253 167.571 54 167z"/>
<path style="fill:#de6b00; stroke:none;" d="M87 167L84 170L78 172L78 177L84 173L85 171L87 173L87 167z"/>
<path style="fill:#45240b; stroke:none;" d="M93 167L94 168L93 167z"/>
<path style="fill:#040000; stroke:none;" d="M225 167L225 169L223 169L223 167L225 167M233 167L233 169L231 169L231 167L233 167M254 167L254 172L252 172L252 167L254 167M289 167L289 169L287 169L287 167L289 167M325 167L325 172L323 172L323 167L325 167M364 167L364 169L362 169L362 167L364 167M386 167L386 169L384 169L384 167L386 167M411 167L411 169L409 169L409 167L411 167M434 167L434 172L432 172L432 167L434 167M476 167L476 172L474 172L474 167L476 167M483 167L483 172L482 172L483 167M492 167L492 169L490 169L490 167L492 167M509 167L509 169L507 169L507 167L509 167M529 167L529 169L527 169L527 167L529 167M552 167L552 172L551 172C549.654 169.307 549.446 168.532 552 167M572 167L572 169L570 169L570 167L572 167M585 167L585 169L583 169L583 167L585 167M614 167L614 169L612 169L612 167L614 167M637 167L637 172L635 172L635 167L637 167M53 168L59 172L53 168z"/>
<path style="fill:#45240b; stroke:none;" d="M83 169L85 170L83 169z"/>
<path style="fill:#040000; stroke:none;" d="M309 169L307 172L309 169M560 169L558 172L560 169z"/>
<path style="fill:#a88611; stroke:none;" d="M32 170L31 182L32 182L35 177L37 179C36.4559 175.735 35.808 175.596 33 177L32 170M35 170L37 172L37 170L35 170M54 171L60 175L60 174L54 171z"/>
<path style="fill:#45240b; stroke:none;" d="M84 171L84 173L86 173L84 171z"/>
<path style="fill:#040000; stroke:none;" d="M390 171L390 175L391 175L392 171L390 171M457 171L457 173L459 173L459 171L457 171M649 171L649 175L650 175L651 171L649 171z"/>
<path style="fill:#736f6e; stroke:none;" d="M52 173L53 198L54 198L54 179L52 173z"/>
<path style="fill:#cad316; stroke:none;" d="M71 173L71 174L75 174L71 173z"/>
<path style="fill:#160d00; stroke:none;" d="M77 173L77 177L78 177L77 173z"/>
<path style="fill:#45240b; stroke:none;" d="M79 173L79 176L80 176L79 173z"/>
<path style="fill:#a88611; stroke:none;" d="M81 176L85 174C83.1531 172.153 81.5267 172.84 81 176M45 174L45 184L46 184L45 174M47 174L50 177L47 174M54 174L54 180L55 180L54 174z"/>
<path style="fill:#de6b00; stroke:none;" d="M75 174L73 179L77 174L75 174z"/>
<path style="fill:#a88611; stroke:none;" d="M38 175L37 181L33 179L34 182L35 181L38 182L37 185L33 183L38 187L38 181L39 181L38 175z"/>
<path style="fill:#45240b; stroke:none;" d="M73 175L72 180L69 179C69.6487 182.244 71.2442 180.919 74 180L73 175z"/>
<path style="fill:#a88611; stroke:none;" d="M56 176C56 179.812 56.0912 182.349 60 183L60 179L59 179L58 181L58 176L56 176z"/>
<path style="fill:#de6b00; stroke:none;" d="M66 176L68 183L66 183L66 184C69.9135 184 69 182.592 69 179L72 180L71 176L66 176z"/>
<path style="fill:#45240b; stroke:none;" d="M68 176L70 177L68 176z"/>
<path style="fill:#a9a585; stroke:none;" d="M30 177L30 182L31 182L30 177z"/>
<path style="fill:#160d00; stroke:none;" d="M34 177C34 180.6 35.0043 180.999 38 180L34 177z"/>
<path style="fill:#736f6e; stroke:none;" d="M66 177L68 183L66 177z"/>
<path style="fill:#a88611; stroke:none;" d="M74 180L79 178C77.11 176.11 74.5773 177.114 74 180z"/>
<path style="fill:#45240b; stroke:none;" d="M32 178C32 183.816 31.7188 189 39 189L39 184L38 184L38 187L33 183C35.7829 185.319 37.3243 186.054 38 182L33 182L34 178L32 178z"/>
<path style="fill:#a88611; stroke:none;" d="M47 178C47 182.572 45.6897 187.115 51 188L48 184L50 184L48 180L50 181L50 180L47 178M61 179L60 185L61 198L62 198L61 179z"/>
<path style="fill:#040000; stroke:none;" d="M261 189L263 189L263 183L265 183L265 189L267 189L267 181L269 180L265 180L262 179L261 189M289 179L289 189L291 189L291 179L289 179M293 179L293 181L295 181L295 179L293 179M304 179L304 189L306 189L307 183L308 183L308 189L310 189C310 185.15 310.835 180.582 306 183L306 179L304 179M351 179L351 183L348 182L348 189L353 189L353 179L351 179M372 179L372 189L374 189L374 185L378 185L378 184L374 184L374 180L378 180L372 179M410 188L405 187L405 188C406.948 188.974 414.754 190.049 412 185C410.7 182.616 408.24 182.479 407 180L412 181C410.322 178.203 402.441 178.309 405 183C406.3 185.384 408.76 185.521 410 188M422 189L424 189L424 183L426 183C426 186.555 425.218 188.37 429 189L428 183L429 183L431 189L433 189L434 185L435 185L436 189L438 189L440 182L437 186L436 186L435 182L434 182L433 186L432 186L427 180L424 182L426 180C424.573 178.573 421.538 178.771 421 182C420.758 183.45 422 186.877 422 189M466 179L466 189L468 189L468 185L472 185L472 184L468 184L468 180L472 180L466 179M502 179L502 183L499 182L499 189L504 189L504 179L502 179M518 179L518 181L520 181L520 179L518 179M559 179L559 189L561 189L561 179L559 179M579 179L579 189L584 189C585.635 185.73 585.872 180.564 581 183L581 179L579 179z"/>
<path style="fill:#cad316; stroke:none;" d="M72 180L74 181L72 180z"/>
<path style="fill:#040000; stroke:none;" d="M254 180L255 181L254 180M257 180L258 181L257 180M265 180L265 182L263 182L263 180L265 180M286 180C283.654 182.815 283.756 188.293 288 189L286 180M313 180C310.654 182.815 310.756 188.293 315 189L313 180M515 180C512.654 182.815 512.756 188.293 517 189L515 180M588 180C585.654 182.815 585.756 188.293 590 189L588 180z"/>
<path style="fill:#a88611; stroke:none;" d="M55 181L56 183L55 181z"/>
<path style="fill:#cad316; stroke:none;" d="M69 183L72 182C70.5209 180.521 69.5347 180.327 69 183z"/>
<path style="fill:#040000; stroke:none;" d="M232 182L234 189L237 189L239 182L236 187L235 187L232 182M246 188L246 187L242 188L246 186C246 182.989 242.494 179.26 240 183C236.808 187.788 242.748 189.626 246 188M248 182L248 189L250 189L252 183L248 182M254 182C250.769 184.154 253.748 191.834 258 189C261.232 186.846 258.252 179.166 254 182M275 188L275 187L271 188L275 186C275 182.989 271.494 179.26 269 183C265.808 187.788 271.748 189.626 275 188M277 182L277 189L279 189L280 183L281 183L281 189L283 189L282 182L277 182M293 182L293 189L295 189L295 182L293 182M303 188L303 187L299 188L299 183L303 184C298.957 177.262 292.54 189 301 189L303 188M319 182L321 189L324 189L326 182L323 187L322 187L319 182M328 182C324.769 184.154 327.748 191.834 332 189C335.232 186.846 332.252 179.166 328 182M335 182L335 189L337 189L338 183L339 183L339 189L341 189L340 182L335 182M361 188L361 187L357 188L361 186C361 182.989 357.494 179.26 355 183C351.808 187.788 357.748 189.626 361 188M363 182L363 189L365 189L367 183L363 182M380 182L380 189L382 189L384 183L380 182M391 188L391 187L387 188L391 186C391 182.989 387.494 179.26 385 183C381.808 187.788 387.748 189.626 391 188M399 188L399 187L395 188L399 186C399 182.989 395.494 179.26 393 183C389.808 187.788 395.748 189.626 399 188M415 182C411.769 184.154 414.748 191.834 419 189C422.232 186.846 419.252 179.166 415 182M441 183L441 184L445 183L445 184L441 188L447 189C447 183.935 446.735 180.132 441 183M449 182L449 189L451 189L453 183L449 182M460 188L460 187L456 188L460 186C460 182.989 456.494 179.26 454 183C450.808 187.788 456.748 189.626 460 188M475 182C471.769 184.154 474.748 191.834 479 189C482.232 186.846 479.252 179.166 475 182M482 182L483 189L488 189L488 182L486 182L485 188L484 188L484 182L482 182M490 182L490 189L492 189L493 183L494 183L494 189L496 189L495 182L490 182M506 183L506 184L510 183L510 184L506 188L512 189C512 183.935 511.735 180.132 506 183M518 182L518 189L520 189L520 182L518 182M523 182C519.769 184.154 522.748 191.834 527 189C530.232 186.846 527.252 179.166 523 182M530 182L530 189L532 189L533 183L534 183L534 189L536 189L535 182L530 182M552 188L552 187L548 188L552 186C552 182.989 548.494 179.26 546 183C542.808 187.788 548.748 189.626 552 188M554 182L554 189L556 189L558 183L554 182M563 183L563 184L567 183L567 184L563 188L569 189C569 183.935 568.735 180.132 563 183M571 182L572 189L577 189L577 182L575 182L574 188L573 188L573 182L571 182M244 183L244 185L242 185L242 183L244 183M257 183L257 188L255 188L255 183L257 183M273 183L273 185L271 185L271 183L273 183M331 183L331 188L329 188L329 183L331 183M350 183L350 188L349 188L350 183M359 183L359 185L357 185L357 183L359 183M389 183L389 185L387 185L387 183L389 183M397 183L397 185L395 185L395 183L397 183M418 183L418 188L416 188L416 183L418 183M458 183L458 185L456 185L456 183L458 183M478 183L478 188L476 188L476 183L478 183M501 183L501 188L500 188L501 183M526 183L526 188L524 188L524 183L526 183M550 183L550 185L548 185L548 183L550 183M583 183L583 188L582 188C580.654 185.307 580.446 184.532 583 183z"/>
<path style="fill:#a88611; stroke:none;" d="M56 184L60 187L56 184z"/>
<path style="fill:#040000; stroke:none;" d="M445 185L443 188L445 185M510 185L508 188L510 185M567 185L565 188L567 185z"/>
<path style="fill:#a88611; stroke:none;" d="M57 187L56 188L60 190L57 187z"/>
<path style="fill:#040000; stroke:none;" d="M538 187L538 191L539 191L540 187L538 187M591 187L591 189L593 189L593 187L591 187z"/>
<path style="fill:#a88611; stroke:none;" d="M47 189L51 192L47 189M52 191L52 203L53 203L53 199L56 199L56 193L55 193L54 198L53 198L52 191M57 191L60 194L57 191M44 192L44 194L46 192L44 192M50 193L51 195L50 193M57 195L60 198L57 195M47 197L46 201L51 204L51 199L51 198L47 197M57 202L59 203L57 202z"/>
<path style="fill:#736f6e; stroke:none;" d="M46 203L48 204L46 203z"/>
<path style="fill:#a88611; stroke:none;" d="M55 207C58.0668 208.533 61.0697 212.582 62 207L58 207L60 204L55 207M49 205L49 206L53 207L53 206L49 205z"/>
<path style="fill:#040000; stroke:none;" d="M58 206L59 208L60 208L61 206L58 206z"/>
<path style="fill:#e7dede; stroke:none;" d="M484 209L485 210L484 209z"/>
<path style="fill:#45240b; stroke:none;" d="M484 210L484 211L492 213C491.296 208.773 487.536 208.232 484 210z"/>
<path style="fill:#e7dede; stroke:none;" d="M489 209L490 210L489 209M500 209L501 210L500 209z"/>
<path style="fill:#736f6e; stroke:none;" d="M501 209L503 210L501 209z"/>
<path style="fill:#e7dede; stroke:none;" d="M503 209L504 210L503 209z"/>
<path style="fill:#736f6e; stroke:none;" d="M507 213L508 213L512 210C509.801 207.801 507.561 209.632 507 213z"/>
<path style="fill:#e7dede; stroke:none;" d="M512 209L514 211L512 209z"/>
<path style="fill:#736f6e; stroke:none;" d="M516 213L517 213L521 210C518.801 207.801 516.561 209.632 516 213z"/>
<path style="fill:#e7dede; stroke:none;" d="M521 209L523 211L521 209M527 209L528 210L527 209z"/>
<path style="fill:#736f6e; stroke:none;" d="M528 209L530 210L528 209z"/>
<path style="fill:#e7dede; stroke:none;" d="M530 209L531 210L530 209M550 209L551 210L550 209z"/>
<path style="fill:#736f6e; stroke:none;" d="M551 209L551 210L554 210L551 209z"/>
<path style="fill:#e7dede; stroke:none;" d="M559 209L560 210L559 209z"/>
<path style="fill:#736f6e; stroke:none;" d="M560 209L562 210L560 209z"/>
<path style="fill:#e7dede; stroke:none;" d="M562 209L563 210L562 209M568 209L569 210L568 209z"/>
<path style="fill:#736f6e; stroke:none;" d="M569 209L571 210L569 209z"/>
<path style="fill:#e7dede; stroke:none;" d="M571 209L572 210L571 209M575 209L575 210L583 210L575 209z"/>
<path style="fill:#736f6e; stroke:none;" d="M589 209L589 210L593 214L589 209z"/>
<path style="fill:#e7dede; stroke:none;" d="M591 209L592 210L591 209z"/>
<path style="fill:#efebeb; stroke:none;" d="M595 209L593 212L595 209z"/>
<path style="fill:#736f6e; stroke:none;" d="M596 209L596 210L599 210L596 209M633 209L635 210L633 209z"/>
<path style="fill:#e7dede; stroke:none;" d="M635 209L635 221L636 221L635 209z"/>
<path style="fill:#736f6e; stroke:none;" d="M671 209L671 210L673 221L674 221C674 216.644 675.744 209.791 671 209z"/>
<path style="fill:#e7dede; stroke:none;" d="M673 209L674 210L673 209M675 209L675 221L676 221L675 209z"/>
<path style="fill:#736f6e; stroke:none;" d="M676 209L678 210L676 209z"/>
<path style="fill:#efebeb; stroke:none;" d="M482 210L483 211L482 210z"/>
<path style="fill:#736f6e; stroke:none;" d="M483 210L481 218L482 218L482 212L484 210L483 210M486 210L488 211L486 210z"/>
<path style="fill:#efebeb; stroke:none;" d="M491 210L492 211L491 210z"/>
<path style="fill:#736f6e; stroke:none;" d="M499 210L498 213L499 213L499 210z"/>
<path style="fill:#040000; stroke:none;" d="M499 213L503 211L498 221L505 221L505 219L501 219C501.948 218.052 504.585 216.246 505 215C506.755 209.736 499.89 207.658 499 213z"/>
<path style="fill:#736f6e; stroke:none;" d="M504 210L505 214L506 214L504 210z"/>
<path style="fill:#040000; stroke:none;" d="M509 210C504.732 212.561 507.478 224.681 513 221C515.756 219.162 514.918 206.449 509 210M518 210C513.732 212.561 516.478 224.681 522 221C524.756 219.162 523.918 206.449 518 210z"/>
<path style="fill:#a9a585; stroke:none;" d="M526 210L527 211L526 210z"/>
<path style="fill:#040000; stroke:none;" d="M527 212L532 212C528.687 206.479 523.281 212.843 525 218C527.058 224.173 535.2 219.8 532 215C530.535 212.803 528.502 214.504 527 212z"/>
<path style="fill:#a9a585; stroke:none;" d="M531 210L532 211L531 210M549 210L548 213L549 213L549 210z"/>
<path style="fill:#040000; stroke:none;" d="M549 213L553 211L554 213L549 221L556 221L556 219L552 219C552.855 217.29 557.665 213.498 556 211C553.828 207.742 549.435 210.389 549 213z"/>
<path style="fill:#efebeb; stroke:none;" d="M555 210L556 211L555 210z"/>
<path style="fill:#a9a585; stroke:none;" d="M558 210L557 214L558 214L558 210z"/>
<path style="fill:#040000; stroke:none;" d="M559 210C555.195 212.537 557.512 224.659 563 221C566.806 218.463 564.488 206.341 559 210z"/>
<path style="fill:#a9a585; stroke:none;" d="M563 210L564 214L565 214L563 210M567 210L566 214L567 214L567 210z"/>
<path style="fill:#040000; stroke:none;" d="M568 210C564.195 212.537 566.512 224.659 572 221C575.806 218.463 573.488 206.341 568 210z"/>
<path style="fill:#a9a585; stroke:none;" d="M572 210L573 214L574 214L572 210z"/>
<path style="fill:#040000; stroke:none;" d="M575 210L575 212L580 212L577 221L579 221L583 210L575 210z"/>
<path style="fill:#45240b; stroke:none;" d="M589 210L589 221L590 221L589 210z"/>
<path style="fill:#040000; stroke:none;" d="M590 210L590 221L591 221L592 216L594 216L599 221L595 214L598 210L591 214L590 210z"/>
<path style="fill:#e7dede; stroke:none;" d="M598 210L597 212L598 210z"/>
<path style="fill:#040000; stroke:none;" d="M633 210L633 221L635 221L635 210L633 210M671 210C670.181 214.912 668.293 209.797 666 214C662.716 220.02 668.928 221 673 221L673 210L671 210M676 210L678 211L676 210z"/>
<path style="fill:#160d00; stroke:none;" d="M483 211L484 212L483 211z"/>
<path style="fill:#e7dede; stroke:none;" d="M484 211L484 214L485 214L484 211M489 211L491 213L489 211z"/>
<path style="fill:#736f6e; stroke:none;" d="M500 213L503 212L500 213z"/>
<path style="fill:#e7dede; stroke:none;" d="M525 211L526 212L525 211z"/>
<path style="fill:#736f6e; stroke:none;" d="M551 211L551 212L553 214L554 214L551 211M560 211L562 212L560 211M569 211L571 212L569 211M582 211L583 212L582 211M676 211L676 213L678 213L678 211L676 211z"/>
<path style="fill:#040000; stroke:none;" d="M482 212L483 213L482 212z"/>
<path style="fill:#736f6e; stroke:none;" d="M485 212L486 213L485 212z"/>
<path style="fill:#160d00; stroke:none;" d="M485 214L488 213L485 214z"/>
<path style="fill:#736f6e; stroke:none;" d="M488 212L489 215L490 215L488 212M492 212L492 218L493 218L492 212z"/>
<path style="fill:#a9a585; stroke:none;" d="M509 212L510 214L509 212z"/>
<path style="fill:#efebeb; stroke:none;" d="M511 212L512 213L511 212z"/>
<path style="fill:#736f6e; stroke:none;" d="M514 212L514 218L515 218L514 212z"/>
<path style="fill:#a9a585; stroke:none;" d="M518 212L519 214L518 212z"/>
<path style="fill:#efebeb; stroke:none;" d="M520 212L521 213L520 212z"/>
<path style="fill:#736f6e; stroke:none;" d="M523 212L523 218L524 218L523 212M525 212L526 213L525 212M527 212L528 213L527 212z"/>
<path style="fill:#e7dede; stroke:none;" d="M529 212L527 213L527 214C529.827 214 530.738 213.738 529 212z"/>
<path style="fill:#736f6e; stroke:none;" d="M531 212L532 213L531 212z"/>
<path style="fill:#e7dede; stroke:none;" d="M532 212L533 213L532 212M579 212L580 213L579 212z"/>
<path style="fill:#efebeb; stroke:none;" d="M582 212L583 213L582 212z"/>
<path style="fill:#a9a585; stroke:none;" d="M596 212L595 215L596 215L596 212z"/>
<path style="fill:#e7dede; stroke:none;" d="M601 212L600 214L601 212z"/>
<path style="fill:#45240b; stroke:none;" d="M602 212L602 213L606 213L602 212z"/>
<path style="fill:#e7dede; stroke:none;" d="M606 212L608 214L606 212M609 212L610 213L609 212z"/>
<path style="fill:#a9a585; stroke:none;" d="M610 212L610 213L614 213L610 212z"/>
<path style="fill:#040000; stroke:none;" d="M610 213L610 221L611 221L612 214L614 214L615 221L616 221L617 214L619 214L620 221L621 221L620 212L616 214L615 212L610 213z"/>
<path style="fill:#a9a585; stroke:none;" d="M615 212L616 213L615 212z"/>
<path style="fill:#736f6e; stroke:none;" d="M616 214L619 213L616 214z"/>
<path style="fill:#a9a585; stroke:none;" d="M620 212L622 214L620 212z"/>
<path style="fill:#736f6e; stroke:none;" d="M624 214L627 213L624 214z"/>
<path style="fill:#040000; stroke:none;" d="M630 218L627 220L626 217L631 217C631 213.133 626.595 209.675 624 214C621.004 218.994 628.824 225.055 630 218z"/>
<path style="fill:#736f6e; stroke:none;" d="M628 212L629 213L628 212z"/>
<path style="fill:#e7dede; stroke:none;" d="M629 212L631 214L629 212z"/>
<path style="fill:#736f6e; stroke:none;" d="M639 212L641 213L639 212z"/>
<path style="fill:#040000; stroke:none;" d="M641 212C634.13 212.573 637.341 224.087 643 221C646.834 218.909 645.467 211.628 641 212z"/>
<path style="fill:#736f6e; stroke:none;" d="M642 212L643 213L642 212z"/>
<path style="fill:#e7dede; stroke:none;" d="M643 212L644 213L643 212z"/>
<path style="fill:#a9a585; stroke:none;" d="M647 212L647 213L655 214L647 212z"/>
<path style="fill:#736f6e; stroke:none;" d="M657 214L660 213L657 214z"/>
<path style="fill:#040000; stroke:none;" d="M663 218L660 220L659 217L664 217C664 213.133 659.595 209.675 657 214C654.004 218.994 661.824 225.055 663 218z"/>
<path style="fill:#736f6e; stroke:none;" d="M661 212L662 213L661 212z"/>
<path style="fill:#e7dede; stroke:none;" d="M662 212L664 214L662 212z"/>
<path style="fill:#a9a585; stroke:none;" d="M667 212L668 213L667 212z"/>
<path style="fill:#736f6e; stroke:none;" d="M669 212L670 213L669 212z"/>
<path style="fill:#e7dede; stroke:none;" d="M670 212L671 213L670 212z"/>
<path style="fill:#a9a585; stroke:none;" d="M681 212L682 213L681 212z"/>
<path style="fill:#040000; stroke:none;" d="M680 215L685 214C683.498 216.504 681.465 214.803 680 217C677.114 221.329 683.443 220.519 685 220L685 221L687 221C687 219.379 687.756 215.385 687 214C684.853 210.063 680.567 212.165 680 215z"/>
<path style="fill:#a9a585; stroke:none;" d="M685 212L686 213L685 212z"/>
<path style="fill:#e7dede; stroke:none;" d="M486 213L488 214L486 213z"/>
<path style="fill:#45240b; stroke:none;" d="M488 213L488 218L489 218L488 213z"/>
<path style="fill:#e7dede; stroke:none;" d="M499 213L501 214L499 213z"/>
<path style="fill:#45240b; stroke:none;" d="M512 213L512 217L513 217L512 213M521 213L521 217L522 217L521 213z"/>
<path style="fill:#e7dede; stroke:none;" d="M549 213L551 214L549 213z"/>
<path style="fill:#736f6e; stroke:none;" d="M559 213L559 218L560 218L559 213M562 213L562 218L563 218L562 213M568 213L568 218L569 218L568 213M571 213L571 218L572 218L571 213z"/>
<path style="fill:#e7dede; stroke:none;" d="M581 213L582 214L581 213z"/>
<path style="fill:#040000; stroke:none;" d="M601 215L605 214L600 217C600 222.49 602.506 220.499 606 220C604.264 220.248 608.233 221.047 608 221L607 213L601 215z"/>
<path style="fill:#736f6e; stroke:none;" d="M609 213L609 221L610 221L609 213z"/>
<path style="fill:#efebeb; stroke:none;" d="M637 213L638 214L637 213z"/>
<path style="fill:#a9a585; stroke:none;" d="M644 213L645 214L644 213z"/>
<path style="fill:#45240b; stroke:none;" d="M647 213L647 224L648 224L647 213z"/>
<path style="fill:#040000; stroke:none;" d="M648 213L648 224L649 224L649 220L654 221L654 213L648 213z"/>
<path style="fill:#736f6e; stroke:none;" d="M666 213L665 219L666 219L666 213z"/>
<path style="fill:#040000; stroke:none;" d="M676 213L676 221L678 221L678 213L676 213z"/>
<path style="fill:#736f6e; stroke:none;" d="M686 213L687 214L686 213z"/>
<path style="fill:#040000; stroke:none;" d="M481 214L481 217L482 217L481 214M492 214L492 217L493 217L492 214z"/>
<path style="fill:#a9a585; stroke:none;" d="M502 214L500 217L502 214z"/>
<path style="fill:#efebeb; stroke:none;" d="M505 214L506 215L505 214z"/>
<path style="fill:#e7dede; stroke:none;" d="M509 214L509 217L510 217L509 214M518 214L518 217L519 217L518 214M531 214L532 215L531 214M552 214L550 217L552 214M555 214L556 215L555 214z"/>
<path style="fill:#a9a585; stroke:none;" d="M578 214L579 215L578 214z"/>
<path style="fill:#736f6e; stroke:none;" d="M580 214L581 215L580 214M600 214L601 215L600 214M602 214L603 215L602 214z"/>
<path style="fill:#efebeb; stroke:none;" d="M604 214L605 215L604 214z"/>
<path style="fill:#736f6e; stroke:none;" d="M607 214L607 220L608 220L607 214z"/>
<path style="fill:#e7dede; stroke:none;" d="M612 214L613 215L612 214z"/>
<path style="fill:#a9a585; stroke:none;" d="M617 214L618 215L617 214z"/>
<path style="fill:#45240b; stroke:none;" d="M621 214L621 221L622 221L621 214z"/>
<path style="fill:#e7dede; stroke:none;" d="M623 214L624 215L623 214M626 214L627 215L626 214z"/>
<path style="fill:#736f6e; stroke:none;" d="M628 214L629 215L628 214M637 214L638 215L637 214z"/>
<path style="fill:#e7dede; stroke:none;" d="M640 214L639 217L640 217L640 214z"/>
<path style="fill:#736f6e; stroke:none;" d="M642 214L643 215L642 214M645 214L645 218L646 218L645 214z"/>
<path style="fill:#efebeb; stroke:none;" d="M650 214L652 215L650 214z"/>
<path style="fill:#736f6e; stroke:none;" d="M652 214L653 215L652 214z"/>
<path style="fill:#e7dede; stroke:none;" d="M656 214L655 218L656 218L656 214M659 214L660 215L659 214z"/>
<path style="fill:#736f6e; stroke:none;" d="M661 214L662 215L661 214z"/>
<path style="fill:#a9a585; stroke:none;" d="M668 214L669 215L668 214M670 214L671 215L670 214z"/>
<path style="fill:#efebeb; stroke:none;" d="M679 214L680 215L679 214z"/>
<path style="fill:#e7dede; stroke:none;" d="M682 214L683 216L682 214z"/>
<path style="fill:#736f6e; stroke:none;" d="M684 214L683 216L685 216L684 214z"/>
<path style="fill:#a9a585; stroke:none;" d="M504 215L503 217L504 215M532 215L532 220L533 220L532 215z"/>
<path style="fill:#736f6e; stroke:none;" d="M554 215L552 218L554 215z"/>
<path style="fill:#e7dede; stroke:none;" d="M580 215L581 216L580 215z"/>
<path style="fill:#efebeb; stroke:none;" d="M596 215L597 216L596 215z"/>
<path style="fill:#e7dede; stroke:none;" d="M602 215L604 216L602 215z"/>
<path style="fill:#736f6e; stroke:none;" d="M604 215L605 216L604 215z"/>
<path style="fill:#45240b; stroke:none;" d="M611 215L611 221L612 221L611 215z"/>
<path style="fill:#736f6e; stroke:none;" d="M614 215L614 221L615 221L614 215z"/>
<path style="fill:#45240b; stroke:none;" d="M616 215L616 221L617 221L616 215z"/>
<path style="fill:#736f6e; stroke:none;" d="M619 215L619 221L620 221L619 215z"/>
<path style="fill:#45240b; stroke:none;" d="M623 215L623 219L624 219L623 215z"/>
<path style="fill:#736f6e; stroke:none;" d="M625 215L626 216L625 215z"/>
<path style="fill:#efebeb; stroke:none;" d="M628 215L629 216L628 215z"/>
<path style="fill:#e7dede; stroke:none;" d="M631 215L631 218L632 218L631 215z"/>
<path style="fill:#736f6e; stroke:none;" d="M649 215L649 218L650 218L649 215z"/>
<path style="fill:#e7dede; stroke:none;" d="M652 215L653 216L652 215z"/>
<path style="fill:#45240b; stroke:none;" d="M656 215L656 219L657 219L656 215z"/>
<path style="fill:#736f6e; stroke:none;" d="M658 215L659 216L658 215z"/>
<path style="fill:#efebeb; stroke:none;" d="M661 215L662 216L661 215z"/>
<path style="fill:#e7dede; stroke:none;" d="M664 215L664 218L665 218L664 215M484 218L487 217C485.521 215.521 484.535 215.327 484 218z"/>
<path style="fill:#736f6e; stroke:none;" d="M527 216L528 217L527 216z"/>
<path style="fill:#efebeb; stroke:none;" d="M529 216L530 217L529 216z"/>
<path style="fill:#736f6e; stroke:none;" d="M538 216L539 218L538 216z"/>
<path style="fill:#040000; stroke:none;" d="M539 216L539 218L543 218L543 216L539 216z"/>
<path style="fill:#736f6e; stroke:none;" d="M577 216L578 218L577 216z"/>
<path style="fill:#efebeb; stroke:none;" d="M592 216L594 217L592 216z"/>
<path style="fill:#736f6e; stroke:none;" d="M596 216L597 217L596 216z"/>
<path style="fill:#efebeb; stroke:none;" d="M600 216L601 217L600 216z"/>
<path style="fill:#736f6e; stroke:none;" d="M601 216L602 217L601 216z"/>
<path style="fill:#a9a585; stroke:none;" d="M680 216L681 217L680 216z"/>
<path style="fill:#160d00; stroke:none;" d="M482 217L483 219L482 217M485 217L486 218L485 217z"/>
<path style="fill:#736f6e; stroke:none;" d="M485 220L490 221L488 217L485 220z"/>
<path style="fill:#e7dede; stroke:none;" d="M489 217L490 218L489 217z"/>
<path style="fill:#160d00; stroke:none;" d="M491 217L489 219L489 220C491.815 219.531 492.75 218.749 491 217z"/>
<path style="fill:#e7dede; stroke:none;" d="M499 217L498 219L499 217M502 217L506 219L506 218L502 217z"/>
<path style="fill:#736f6e; stroke:none;" d="M509 217L510 219L509 217M518 217L519 219L518 217z"/>
<path style="fill:#e7dede; stroke:none;" d="M527 217L528 218L527 217z"/>
<path style="fill:#efebeb; stroke:none;" d="M549 217L550 218L549 217z"/>
<path style="fill:#a9a585; stroke:none;" d="M557 217L557 220L558 220L557 217M564 217L564 220L565 220L564 217M566 217L566 220L567 220L566 217M573 217L573 220L574 220L573 217z"/>
<path style="fill:#736f6e; stroke:none;" d="M579 217L580 218L579 217M591 217L591 221L592 221L591 217z"/>
<path style="fill:#a9a585; stroke:none;" d="M594 217L595 218L594 217z"/>
<path style="fill:#e7dede; stroke:none;" d="M597 217L598 218L597 217M602 219L605 218L602 219z"/>
<path style="fill:#736f6e; stroke:none;" d="M626 217L626 218L627 220L630 218L629 221L630 221L631 217L626 217M639 217L642 220L642 219L639 217M659 217L659 218L660 220L663 218L662 221L663 221L664 217L659 217z"/>
<path style="fill:#e7dede; stroke:none;" d="M679 217L680 218L679 217z"/>
<path style="fill:#a9a585; stroke:none;" d="M682 217L682 218L685 219L682 217z"/>
<path style="fill:#e7dede; stroke:none;" d="M481 218L482 219L481 218z"/>
<path style="fill:#736f6e; stroke:none;" d="M483 218L484 219L483 218M490 218L491 219L490 218z"/>
<path style="fill:#efebeb; stroke:none;" d="M492 218L493 219L492 218z"/>
<path style="fill:#736f6e; stroke:none;" d="M501 218L502 219L501 218M507 218L508 219L507 218z"/>
<path style="fill:#e7dede; stroke:none;" d="M511 218L512 219L511 218M514 218L515 219L514 218z"/>
<path style="fill:#736f6e; stroke:none;" d="M516 218L517 219L516 218z"/>
<path style="fill:#e7dede; stroke:none;" d="M520 218L521 219L520 218M523 218L524 219L523 218z"/>
<path style="fill:#736f6e; stroke:none;" d="M525 218L526 219L525 218M527 218L528 219L527 218z"/>
<path style="fill:#efebeb; stroke:none;" d="M529 218L530 219L529 218z"/>
<path style="fill:#e7dede; stroke:none;" d="M552 218L552 219L556 219L552 218z"/>
<path style="fill:#efebeb; stroke:none;" d="M579 218L580 220L579 218z"/>
<path style="fill:#736f6e; stroke:none;" d="M637 218L638 219L637 218z"/>
<path style="fill:#e7dede; stroke:none;" d="M642 218L643 219L642 218M645 218L646 219L645 218z"/>
<path style="fill:#a9a585; stroke:none;" d="M652 218L653 219L652 218z"/>
<path style="fill:#efebeb; stroke:none;" d="M668 218L669 219L668 218M670 218L671 219L670 218z"/>
<path style="fill:#a9a585; stroke:none;" d="M679 218L680 220L679 218M482 219L483 220L482 219z"/>
<path style="fill:#040000; stroke:none;" d="M483 219L483 220L489 221L489 220L483 219z"/>
<path style="fill:#a9a585; stroke:none;" d="M491 219L492 220L491 219z"/>
<path style="fill:#736f6e; stroke:none;" d="M498 219L499 220L498 219M505 219L506 221L505 219z"/>
<path style="fill:#e7dede; stroke:none;" d="M507 219L508 220L507 219M516 219L517 220L516 219M525 219L526 220L525 219z"/>
<path style="fill:#736f6e; stroke:none;" d="M548 219L549 221L548 219z"/>
<path style="fill:#e7dede; stroke:none;" d="M576 219L577 221L576 219M595 219L596 220L595 219z"/>
<path style="fill:#a9a585; stroke:none;" d="M598 219L599 220L598 219z"/>
<path style="fill:#e7dede; stroke:none;" d="M623 219L624 220L623 219M637 219L638 220L637 219z"/>
<path style="fill:#736f6e; stroke:none;" d="M644 219L643 221L644 219M651 219L652 220L651 219M654 219L655 220L654 219z"/>
<path style="fill:#e7dede; stroke:none;" d="M656 219L657 220L656 219z"/>
<path style="fill:#736f6e; stroke:none;" d="M669 219L670 220L669 219M682 219L684 220L682 219z"/>
<path style="fill:#e7dede; stroke:none;" d="M483 220L484 221L483 220M490 220L491 221L490 220z"/>
<path style="fill:#a9a585; stroke:none;" d="M508 220L509 221L508 220z"/>
<path style="fill:#efebeb; stroke:none;" d="M513 220L514 221L513 220z"/>
<path style="fill:#a9a585; stroke:none;" d="M517 220L518 221L517 220z"/>
<path style="fill:#efebeb; stroke:none;" d="M522 220L523 221L522 220z"/>
<path style="fill:#a9a585; stroke:none;" d="M526 220L527 221L526 220z"/>
<path style="fill:#e7dede; stroke:none;" d="M531 220L532 221L531 220M558 220L559 221L558 220M563 220L564 221L563 220M567 220L568 221L567 220M572 220L573 221L572 220z"/>
<path style="fill:#736f6e; stroke:none;" d="M596 220L597 221L596 220z"/>
<path style="fill:#e7dede; stroke:none;" d="M599 220L599 221L604 222L604 221L599 220z"/>
<path style="fill:#a9a585; stroke:none;" d="M605 220L606 221L605 220M624 220L625 221L624 220M638 220L639 221L638 220z"/>
<path style="fill:#efebeb; stroke:none;" d="M644 220L645 221L644 220z"/>
<path style="fill:#736f6e; stroke:none;" d="M649 220L649 224L650 224L649 220z"/>
<path style="fill:#efebeb; stroke:none;" d="M654 220L655 221L654 220z"/>
<path style="fill:#a9a585; stroke:none;" d="M657 220L658 221L657 220z"/>
<path style="fill:#e7dede; stroke:none;" d="M666 220L667 221L666 220z"/>
<path style="fill:#736f6e; stroke:none;" d="M680 220L681 221L680 220z"/>
<path style="fill:#a9a585; stroke:none;" d="M684 220L685 221L684 220M687 220L688 221L687 220z"/>
<path style="fill:#e7dede; stroke:none;" d="M485 221L485 222L489 222L485 221M509 221L509 222L512 222L509 221M518 221L518 222L521 222L518 221M528 221L530 222L528 221M560 221L562 222L560 221M569 221L571 222L569 221M626 221L626 222L629 222L626 221M640 221L640 222L643 222L640 221M651 221L653 222L651 221M659 221L659 222L662 222L659 221M668 221L670 222L668 221M681 221L681 222L684 222L681 221M647 224L647 225L650 225L647 224z"/>
</svg>
