<?xml version="1.0" standalone="yes"?>
<svg xmlns="http://www.w3.org/2000/svg" width="18" height="18">
<path style="fill:#f7ea06; stroke:none;" d="M1 4C4.44844 4.57474 4 5.65007 4 9L7 9L7 14L8 14L8 11L9 11L9 14L10 14L13 10L11 18C14.2559 16.372 12.9128 15.8992 14 13C14.5748 11.4671 17.166 11.8348 18 10C19.2203 7.31531 12.6599 0.891708 10 2C8.25041 2.729 6.65228 5.17386 5 6L6 2L5 1L1 4z"/>
<path style="fill:#a5a5a5; stroke:none;" d="M5 1L6 2L5 1z"/>
<path style="fill:#999999; stroke:none;" d="M5 4L6 6L5 4z"/>
<path style="fill:#c3bbac; stroke:none;" d="M16 6L17 7L16 6z"/>
<path style="fill:#c1c091; stroke:none;" d="M17 7L18 8L17 7z"/>
<path style="fill:#b7b362; stroke:none;" d="M5 9L6 17L7 17L5 9z"/>
<path style="fill:#beb43a; stroke:none;" d="M8 11L8 14L9 14L8 11z"/>
<path style="fill:#a5a5a5; stroke:none;" d="M12 11L13 13L12 11z"/>
<path style="fill:#d0c714; stroke:none;" d="M16 11L14 14C17.5057 13.2989 15.5526 14.6847 15 18C18.0188 17.3962 17.6458 12.6458 16 11z"/>
<path style="fill:#d1c616; stroke:none;" d="M7 14L6 18L10 18L10 14L9 14L9 17L8 17L7 14z"/>
<path style="fill:#a5a5a5; stroke:none;" d="M12 14L13 15L12 14M12 17L13 18L12 17z"/>
<path style="fill:#c3bbac; stroke:none;" d="M14 17L15 18L14 17z"/>
</svg>
