<?xml version="1.0" standalone="yes"?>
<svg xmlns="http://www.w3.org/2000/svg" width="62" height="106">
<path style="fill:#9ea09d; stroke:none;" d="M32 0L32 1L35 1L32 0z"/>
<path style="fill:#34423d; stroke:none;" d="M17 17L26 16L29 10L28 7L40 5C37.008 -0.984085 26.2077 -0.415306 23 6C22.0143 7.97139 22.2054 11.1058 21 13C19.096 15.9919 17.632 13.84 17 17z"/>
<path style="fill:#121c1c; stroke:none;" d="M28 7L29 10C23.247 10 28.399 13.3564 25 16C22.8135 17.7006 18.773 14.5351 16 17C13.9131 18.855 14.3145 22.8092 13 25L11 26C7.9498 35.1506 7.03876 44.8837 4 54C2.36451 58.9065 1 63.3485 1 69C1 70.0237 0.455356 73.183 1 74C3.49066 77.736 8.44296 74.7047 11 73L8 69L12 64L12 63L9 63L9 62C12.0121 61.3976 10.8258 61.4774 10 59L11 58L7 55L9 39L13 33L12 31L14 24C17.495 26.097 19.6332 26.1834 24 24C24 27.3674 23.4526 28 27 28L25 23L30 28L39 23L43 24L43 13L44 13C44.7465 17.4792 45.512 21.252 50 22L50 23L46 24L47 27L51 25L52 29L48 28C48 31.4176 50.3598 34.0561 53 33L53 37L47 34L44 38C44.7808 42.685 45.4907 49.3056 41 52L40 59L41 65L38 75L37 75L36 68L33 69L33 66L36 67L31 62L30 63L30 74L28 75L29 78L24 78C24.6131 81.0653 29.0676 84 33 84L34 88L37 88L38 88L38 84L41 82L46 83L43 72L48 72L48 78L55 76C57.0644 63.6139 61.2538 49.0151 58 36C56.5875 30.35 58.1707 25.2096 56 20C55.2225 18.1341 53.1376 16.7064 52 15C45.7453 5.6179 38.3372 1.83139 28 7z"/>
<path style="fill:#545c58; stroke:none;" d="M21 8L17 15C21.1031 15 22.3719 11.7686 23 8L21 8z"/>
<path style="fill:#010d07; stroke:none;" d="M43 13L43 24L39 23L30 28L25 23L27 28L24 24L17 26L16 24L14 24L12 30L13 33L9 38L7 55L11 58L9 62L9 63L12 63L12 64L8 69L10 70L10 72L18 74L21 77L29 78L28 75L30 75L29 72L30 63L31 62L36 67L33 66L33 69L36 68L37 75L38 75L41 66L40 55L42 54L41 52C45.5646 51.0871 45.3512 42.0535 44 38C47.3373 37.4438 47.9653 36.8958 47 34L53 37L53 33L51 34L48 28L52 29L51 25L47 27L46 24L50 23L50 22L43 13z"/>
<path style="fill:#464d54; stroke:none;" d="M58 28L59 53L57 66L58 66L60 55L59 35L58 28z"/>
<path style="fill:#90979f; stroke:none;" d="M60 42L60 52L61 52L60 42z"/>
<path style="fill:#868e95; stroke:none;" d="M59 55L57 74L58 74L61 55L59 55z"/>
<path style="fill:#354041; stroke:none;" d="M56 69L55 76L48 78L48 72L43 72L46 83L43 83L43 84L43 85L52 84L54 78L56 77L56 69z"/>
<path style="fill:#717980; stroke:none;" d="M56 74L52 84L53 84C55.012 80.982 58.3558 76.3558 56 74z"/>
<path style="fill:#9ca1a3; stroke:none;" d="M55 78L54 83L55 83L55 78z"/>
<path style="fill:#444f50; stroke:none;" d="M25 80L28 82L25 80z"/>
<path style="fill:#4f5a5b; stroke:none;" d="M41 82L38 84L38 88L44 86L43 82L41 82z"/>
<path style="fill:#6e6f5b; stroke:none;" d="M32 86L33 87L32 86z"/>
<path style="fill:#a39b82; stroke:none;" d="M34 89L37 86L34 89z"/>
<path style="fill:#f4f7f3; stroke:none;" d="M37 87L36 87L35 89C32.9082 86.3853 31.9209 86.7589 30 89C29.002 90.1643 27.225 91.14 28 93C31.4433 101.264 37 91.1839 37 87z"/>
<path style="fill:#beba8c; stroke:none;" d="M30 90L31 94L32 94L30 90z"/>
<path style="fill:#727049; stroke:none;" d="M32 92L33 94L32 92z"/>
<path style="fill:#9ba172; stroke:none;" d="M35 92L36 94L35 92z"/>
<path style="fill:#c2be9d; stroke:none;" d="M28 93L28 98L32 97L28 93z"/>
<path style="fill:#7e633d; stroke:none;" d="M27 94L28 95L27 94z"/>
<path style="fill:#fdfcf3; stroke:none;" d="M26 95L26 99L30 99L30 98L26 95z"/>
<path style="fill:#edd5a7; stroke:none;" d="M25 96L26 101L29 100L29 99L25 96z"/>
<path style="fill:#fcf6c6; stroke:none;" d="M23 97L15 105L26 102L23 97z"/>
<path style="fill:#c7ae7a; stroke:none;" d="M22 98L21 100L23 100L22 98z"/>
<path style="fill:#b09060; stroke:none;" d="M23 102L25 103L23 102z"/>
<path style="fill:#6b391c; stroke:none;" d="M22 103L24 104L22 103z"/>
<path style="fill:#8e7550; stroke:none;" d="M17 105L17 106L21 105L17 105z"/>
<path style="fill:#c2b29a; stroke:none;" d="M15 105L17 106L15 105z"/>
</svg>
