<?xml version="1.0" standalone="yes"?>
<svg width="203" height="65">
<path style="fill:#000000; stroke:none;" d="M85 0C80.7867 1.05333 75.2133 0.946671 71 2C68.1765 2.70588 64.8235 1.29412 62 2C49.0698 5.23254 36.1252 6.94782 24 12C22.4637 12.6401 20.5363 12.3599 19 13C13.3368 15.3597 2.22935 22.3119 0 29C-1.99734 34.992 2.22148 39.2215 6 43C14.4061 51.4061 25.208 54.302 36 57C78.0218 67.5054 127.864 67.534 170 57C173.101 56.2249 176.055 54.2272 179 53C185.755 50.1853 191.256 48.7438 197 43C200.779 39.2215 204.997 34.992 203 29C201.945 25.8336 197.615 22.3967 195 20C192.847 18.0261 190.497 16.4565 188 15C185.209 13.3719 181.943 13.2262 179 12C166.875 6.94782 153.93 5.23254 141 2C133.899 0.224716 126.152 2.78801 119 1C111.803 -0.799339 102.881 0 95 0C91.9798 0 87.9161 -0.729027 85 0z"/>
<path style="fill:#ffffff; stroke:none;" d="M85 2C80.7867 3.05333 75.2133 2.94667 71 4C68.1765 4.70588 64.8235 3.29412 62 4C49.0698 7.23254 36.1252 8.94782 24 14C17.061 16.8913 5.00765 19.9771 2 29C0.0524932 34.8425 4.09418 39.4197 8 43C15.6292 49.9934 26.3718 52.5929 36 55C78.0218 65.5054 127.864 65.534 170 55C173.101 54.2249 176.055 52.2272 179 51C183.746 49.0226 188.617 47.9223 193 45C203.391 38.0726 203.391 26.9274 193 20C190.533 18.3554 186.809 16.1706 184 15C170.423 9.34287 155.446 7.61144 141 4C133.899 2.22472 126.152 4.78801 119 3C111.803 1.20066 102.881 2 95 2C91.9798 2 87.9161 1.27097 85 2z"/>
</svg>
