<?xml version="1.0" standalone="yes"?>
<svg width="62" height="106">
<path style="fill:#9ea09d; stroke:none;" d="M27 0L27 1L30 1L27 0z"/>
<path style="fill:#4f5a5b; stroke:none;" d="M22 5L39 7C35.916 0.832001 25.6385 -2.27691 22 5z"/>
<path style="fill:#121c1c; stroke:none;" d="M14 78C14 72.6615 14.5772 69.9038 20 69L19 77L20 77L21 74L24 75L21 65L20 52L18 38L15 34L9 37L9 33C11.6402 34.0561 14 31.4176 14 28L11 29L11 25L15 27L16 24L12 23L12 22C16.5229 21.2462 16.6129 18.1612 18 14L19 14L19 24C23.2767 24.7128 24.3679 25.9481 27 22L27 26L30 28L34 27L35 29L39 30C39.9101 24.5392 45.0167 28.9916 49 27L48 31L49 35C56.1661 38.5831 53.0898 49.2695 55 55L51 58L51 62L55 62L55 63L50 63L50 64L54 69L52 69L51 73C53.557 74.7047 58.5093 77.736 61 74C61.5446 73.1831 61 70.0236 61 69C61 63.3485 59.6355 58.9065 58 54C53.9122 41.7366 52.4807 28.9613 47 18C45.228 14.456 41.737 15.895 40 13C39.2647 11.7745 40.7353 9.22548 40 8C39.4067 7.01121 36.0561 5.35203 35 5C32.8984 4.29946 30.156 5.53901 28 5C18.3875 2.59687 7.403 13.179 6 23L4 25C2.71326 28.0882 4.81741 32.7304 4 36C2.03202 43.8719 3.14616 52.5846 5 60C6.26153 65.0461 5.01855 69.3766 7 74L7 76C8.07992 77.2342 12.3341 77.7224 14 78z"/>
<path style="fill:#545c58; stroke:none;" d="M40 8C40 12.8418 39.5052 15 45 15L40 8z"/>
<path style="fill:#010d07; stroke:none;" d="M18 14L12 22L12 23C15.5064 23.5844 15.5013 23.9919 15 27L11 25L11 29L14 28L10 34L9 33L9 37L15 34L18 38L20 53L21 66L24 75L21 74L16 83L20 85L24 84L24 88L25 88L29 87L33 84L35 81L37 81L39 77L53 72L52 69L54 69L50 64L50 63L55 63L55 62L51 62L51 58L55 55C54.4726 51.8357 55.7984 49.5929 55 46C54.7468 44.8607 53.2844 43.1375 53 42C52.0666 38.2664 53.5948 35.7658 49 35C49.9306 32.2082 50.8769 31.5754 48 31L49 27C45.2448 28.2517 39 24.5549 39 30L35 27L31 28L27 26L27 22L24 25L19 24L20 19L19 18L20 18L18 14z"/>
<path style="fill:#464d54; stroke:none;" d="M3 28L2 55L4 66L5 66L3 38L3 28z"/>
<path style="fill:#90979f; stroke:none;" d="M1 42L1 52L2 52L1 42z"/>
<path style="fill:#7c7e8a; stroke:none;" d="M1 55L4 74L5 74L3 55L1 55z"/>
<path style="fill:#51525b; stroke:none;" d="M5 69L6 77L8 78L11 84C12.2582 81.4835 12.9182 80.5836 10 80L11 77L5 69z"/>
<path style="fill:#363e3a; stroke:none;" d="M14 78L11 77L10 80L11 84C14.3823 85.1274 18.1681 87.9916 19 83L16 83L20 69C13.8363 69 14 72.5754 14 78z"/>
<path style="fill:#717980; stroke:none;" d="M5 74L9 84L10 84L5 74z"/>
<path style="fill:#9ca1a3; stroke:none;" d="M6 78L7 83L8 83L6 78z"/>
<path style="fill:#6a7173; stroke:none;" d="M34 81L36 82L34 81z"/>
<path style="fill:#4f5a5b; stroke:none;" d="M19 83L18 86L22 87L19 83z"/>
<path style="fill:#74787b; stroke:none;" d="M22 84L21 88C24.5474 88 24 87.3674 24 84L22 84z"/>
<path style="fill:#595850; stroke:none;" d="M25 86L28 88L25 86z"/>
<path style="fill:#6e6f5b; stroke:none;" d="M29 86L30 87L29 86z"/>
<path style="fill:#f3f4dd; stroke:none;" d="M25 87C25 90.0341 25.8878 94.5854 29 96C32.8451 97.7478 34.044 92.088 33 90L32 90L29 94L32 88L25 87z"/>
<path style="fill:#727049; stroke:none;" d="M31 89L32 91L31 89z"/>
<path style="fill:#c7cdaf; stroke:none;" d="M30 90L30 94L31 94L30 90z"/>
<path style="fill:#9ba172; stroke:none;" d="M26 92L27 94L26 92z"/>
<path style="fill:#727049; stroke:none;" d="M29 92L30 94L29 92z"/>
<path style="fill:#dfd4b4; stroke:none;" d="M33 93L30 97L34 98L33 93z"/>
<path style="fill:#7e633d; stroke:none;" d="M34 94L35 95L34 94z"/>
<path style="fill:#fdfcf3; stroke:none;" d="M35 95L32 98L32 99L36 99L35 95z"/>
<path style="fill:#edd5a7; stroke:none;" d="M36 96L33 99L33 100L36 101C37.7475 98.3788 38.7849 97.6709 36 96z"/>
<path style="fill:#fcf6c6; stroke:none;" d="M38 97L36 102L41 105L47 106L40 100L38 97z"/>
<path style="fill:#c7ae7a; stroke:none;" d="M39 98L39 100L41 100L39 98z"/>
<path style="fill:#b09060; stroke:none;" d="M37 102L40 104L37 102z"/>
<path style="fill:#8e7550; stroke:none;" d="M42 105L42 106L45 106L42 105z"/>
</svg>
