<?xml version="1.0" standalone="yes"?>
<svg width="93" height="57">
<path style="fill:#848244; stroke:none;" d="M2 4C4.61322 19.6793 10.8789 35.8789 22 47C23.162 48.162 25.7118 48.2486 27 49C30.642 51.1245 33.1032 53.7011 37 55C40.1894 56.0631 45.6081 55 49 55C52.4095 55 58.8982 56.2924 62 55L64 53C74.7662 51.462 84.1375 42.725 89 33C91.9366 27.1267 90.522 21.088 89 15C88.4042 12.617 89.7009 10.7943 90 9C90.4018 6.58943 89 2.96675 89 0L58 1L39 1L2 4z"/>
<path style="fill:#3a381f; stroke:none;" d="M89 0L89 7L90 7L89 0z"/>
<path style="fill:#040204; stroke:none;" d="M90 0L90 20C90 24.8069 91.2807 27.4385 89 32C81.621 46.7581 66.2962 56 50 56C47.2821 56 43.6243 56.6561 41 56C36.0109 54.7527 32.5005 51.6253 28 49C25.0879 47.3013 22.2581 46.2581 20 44C12.8236 36.8236 9.28524 26.5705 5 18C2.96984 13.9397 5.25152 5.87525 0 5C0.715789 7.14737 0.254142 9.76242 1 12C2.56775 16.7033 4.97824 21.451 7 26C7.3724 26.8379 6.64694 28.1527 7 29C8.82524 33.3806 11.9779 35.9705 15 40C21.0994 48.1326 29.0163 54.5041 39 57C42.2079 57.802 46.6775 57 50 57C53.0202 57 57.0839 57.729 60 57C78.5621 52.3595 96.3674 36.4696 91 15C89.791 10.1638 93.4726 3.4726 90 0z"/>
<path style="fill:#3a381f; stroke:none;" d="M89 9L89 16L90 16L89 9z"/>
<path style="fill:#424023; stroke:none;" d="M63 53L65 54L63 53z"/>
<path style="fill:#504e2a; stroke:none;" d="M40 55L40 56L59 56L40 55z"/>
</svg>
