<?xml version="1.0" standalone="yes"?>
<svg width="93" height="57">
<path style="fill:#040204; stroke:none;" d="M2 0C2 2.96675 0.598239 6.58943 1 9C1.29906 10.7943 2.59576 12.617 2 15C1.10482 18.5807 -0.366519 25.9004 1 30C6.8753 47.6259 24.6487 57 43 57C46.3225 57 50.7921 57.802 54 57C59.963 55.5093 67.0526 51.7106 72 48C75.0557 45.7082 76.0649 42.5801 78 40C79.3876 38.1498 81.7188 36.9218 83 35C84.702 32.4471 85.0229 28.9312 86 26C87.5705 21.2886 90.4295 16.7114 92 12C92.7459 9.76243 92.2842 7.14737 93 5C87.7485 5.87525 90.0302 13.9397 88 18C85.6473 22.7055 84.1044 27.2652 82 32C81.3025 33.5693 78.9592 34.5612 78 36C76.4379 38.3432 75.2912 41.9379 73 44C72.4072 44.5335 69.4933 45.4245 69 46C65.3418 50.2679 57.8012 54.5497 52 56C49.3757 56.6561 45.7179 56 43 56C26.6392 56 11.4124 46.8248 4 32C1.33397 26.6679 2.60378 21.5849 4 16C4.70467 13.1813 3 10.106 3 8C3 6.06131 4 2.60084 4 0L2 0z"/>
<path style="fill:#848244; stroke:none;" d="M4 0C4 2.96675 2.59824 6.58943 3 9C3.29906 10.7943 4.59576 12.617 4 15C2.478 21.088 1.06337 27.1267 4 33C8.88347 42.7669 18.1781 51.454 29 53L31 55C34.1018 56.2924 40.5905 55 44 55C47.3919 55 52.8106 56.0631 56 55C59.686 53.7714 62.7257 51.3388 66 49L68 49C69.582 47.8926 68.4567 47.1575 70 46C70.6856 45.4858 73.4851 44.6007 74 44C83.571 32.8338 88.625 18.25 91 4L54 1L35 1L4 0z"/>
<path style="fill:#424023; stroke:none;" d="M28 53L30 54L28 53z"/>
<path style="fill:#504e2a; stroke:none;" d="M34 55L34 56L53 56L34 55z"/>
</svg>
