<?xml version="1.0" standalone="yes"?>
<svg xmlns="http://www.w3.org/2000/svg" width="328" height="166">
<path style="fill:#9aa7a6; stroke:none;" d="M297 2L294 4L290 25L288 39L283 59L285 59L287 48L294 15L295 9L297 2z"/>
<path style="fill:#080000; stroke:none;" d="M111 31L97 52L87 67L86 67L86 63L85 63L83 81L86 77L92 77L92 76C88.4447 76 86.6304 76.7823 86 73L91 74L96 66L97 62L99 61L105 50L110 41L109 41L93 64L86 72C88.5464 66.9073 92.4597 62.7204 96 58C99.7941 52.9413 103.166 46.3135 107 42C110.377 38.2005 109.539 34 116 34L116 38C119.556 34.4445 114.993 31.6655 111 31z"/>
<path style="fill:#252925; stroke:none;" d="M112 34L110 41L111 41L115 34L112 34z"/>
<path style="fill:#9aa7a6; stroke:none;" d="M115 34L115 38L116 38L115 34z"/>
<path style="fill:#983333; stroke:none;" d="M110 35L111 37L110 35z"/>
<path style="fill:#f76160; stroke:none;" d="M111 35L112 37L111 35z"/>
<path style="fill:#f75256; stroke:none;" d="M109 37L103 47L100 53L101 53L111 37L109 37z"/>
<path style="fill:#cacfce; stroke:none;" d="M113 37L98 62L91 73L121 73L118 54L115 37L113 37z"/>
<path style="fill:#553d3b; stroke:none;" d="M116 38L116 42L117 42L116 38z"/>
<path style="fill:#252925; stroke:none;" d="M117 38L117 47L118 47L117 38z"/>
<path style="fill:#47fcf9; stroke:none;" d="M114 39L101 61L94 72L101 72L120 71L116 46L114 39z"/>
<path style="fill:#983333; stroke:none;" d="M105 42L106 44L105 42z"/>
<path style="fill:#000000; stroke:none;" d="M118 43L119 55L120 55L118 43z"/>
<path style="fill:#9aa7a6; stroke:none;" d="M118 51L118 55L119 55L118 51z"/>
<path style="fill:#ff2121; stroke:none;" d="M99 52L87 71L93 65L101 55L99 52z"/>
<path style="fill:#553d3b; stroke:none;" d="M119 55L119 59L120 59L119 55z"/>
<path style="fill:#000800; stroke:none;" d="M120 55L120 64L122 72L123 72L121 62L120 55M114 73L114 74L156 73L177 72L187 72L218 71L250 70L265 65L276 63L284 60L284 61L316 59L321 73L323 81L327 89L325 101L325 111L322 135L323 135L325 124L325 113L327 106L327 97L328 87L323 76L316 57L307 58L304 57L292 59L282 58L273 61L262 63L248 68L238 68L222 69L209 69L181 70L171 70L152 71L133 72L114 73z"/>
<path style="fill:#311018; stroke:none;" d="M306 57L306 58L315 58L306 57z"/>
<path style="fill:#983333; stroke:none;" d="M310 59L310 60L316 61L310 59z"/>
<path style="fill:#000800; stroke:none;" d="M80 60L85 63L85 62L80 60z"/>
<path style="fill:#d49494; stroke:none;" d="M283 60L282 64C284.808 63.4384 284.528 61.5278 283 60z"/>
<path style="fill:#553d3b; stroke:none;" d="M286 60L286 61L297 61L286 60z"/>
<path style="fill:#ff7373; stroke:none;" d="M284 61C283.926 61.4426 283 64.1249 283 64C283 69.5336 288.204 67 291 67C294.371 67 300.062 70.6281 301 65C303.471 66.6474 309.936 69.8401 308 65L311 68L317 67L315 60L307 60L284 61z"/>
<path style="fill:#553d3b; stroke:none;" d="M97 61L98 63L97 61z"/>
<path style="fill:#983333; stroke:none;" d="M278 61L278 62L283 62L278 61z"/>
<path style="fill:#252925; stroke:none;" d="M79 62L78 66L79 66L79 62z"/>
<path style="fill:#cacfce; stroke:none;" d="M80 62C79.1008 67.3955 76.226 77.7043 84 79C84 73.5565 86.3223 63.0537 80 62z"/>
<path style="fill:#f75256; stroke:none;" d="M211 72L213 77L222 77L246 77L258 75L258 77L260 76L272 77L275 78L278 76L280 77L283 75L284 75L293 77L317 76L320 77L319 71L318 67L314 68L311 68L308 65L309 67L305 68L304 66L301 65C298.891 69.2182 298.463 67 295 67C292.936 67 289.561 68.4269 287 68C284.847 67.6411 282.677 67 280 67L283 62L266 66L262 66L247 71L238 71L211 72z"/>
<path style="fill:#553d3b; stroke:none;" d="M83 63L84 79L85 79L85 63L83 63z"/>
<path style="fill:#9aa7a6; stroke:none;" d="M120 64L120 68L121 68L120 64M282 64L280 67L284 67L282 64z"/>
<path style="fill:#983333; stroke:none;" d="M317 64L317 67L318 67L317 64z"/>
<path style="fill:#6f1313; stroke:none;" d="M264 65L264 66L267 66L264 65z"/>
<path style="fill:#000000; stroke:none;" d="M77 66L77 74C70.156 74 63.2938 75 56 75C47.5153 75 37.7799 74.055 30 76C27.169 76.7078 22.5776 74.7112 20 76C12.8336 79.5832 7.61363 89.5455 6 96C5.20259 99.1897 3.80621 102.775 3 106C2.45098 108.196 3.54902 110.804 3 113C2.57109 114.716 1.20038 116.2 3 118C4.43549 119.435 8.2067 119.954 10 121C12.6 122.517 14.4 124.483 17 126C22.8765 129.428 29.5211 131.434 35 136C36.0468 135.215 38.4637 133.788 39 132C39.6025 129.992 37.7729 129.817 38 128L39 128C39.2561 126.463 38.5102 124.47 39 123C40.3249 119.025 44.8972 114.103 48 111C49.0359 109.964 50.6656 107.556 52 107C53.4416 106.399 57.8462 108 60 108C66.7688 108 76.4731 108.368 83 110C85.6999 110.675 86.9904 109.237 89 112C90.4638 114.013 91.2097 117.629 92 120L91 121C91.456 123.28 93.4338 125.735 94 128C94.6971 130.788 93.5869 136.19 96 138C97.3119 138.984 101.353 137.588 103 138C112.003 140.251 122.51 137.418 132 139C136.601 139.767 143.163 138.791 148 140C154.747 141.687 163.893 142 171 142C177.948 142 187.292 140.323 194 142C202.567 144.142 212.762 144 222 144C224.752 144 229.441 144.93 232 144C235.383 142.77 234 137.211 234 135L235 133C234.178 128.888 236.497 117.626 243 116C245.824 115.294 249.176 116.706 252 116C258.148 114.463 266.761 112.88 273 116C276.053 117.526 278.323 120.62 281 123C282.275 124.133 284.058 124.273 285 126C286.191 128.183 285.378 131.512 286 134C286.824 137.295 288.115 138.654 287 142C292.675 144.837 299.667 140.333 305 139C308.431 138.142 311.843 137.789 315 137C318.078 136.231 320.183 136.817 322 135L309 137L304 137L289 141L287 130L287 125L282 119L280 119L274 113L268 113L252 114L243 115L238 115L235 121L232 142L210 141L195 140L181 140L149 138L120 138L97 136L93 120L90 109L75 108L56 106L49 106L44 112L38 119L38 122L36 133L19 124L4 116L5 106L12 88L22 78L31 78L52 77L79 76L77 66z"/>
<path style="fill:#9aa7a6; stroke:none;" d="M78 66L78 74L79 74L78 66z"/>
<path style="fill:#553d3b; stroke:none;" d="M257 67L257 68L260 68L257 67z"/>
<path style="fill:#980000; stroke:none;" d="M90 68L91 70L90 68z"/>
<path style="fill:#553d3b; stroke:none;" d="M121 68L121 72L122 72L121 68M250 69L252 70L250 69z"/>
<path style="fill:#c41b09; stroke:none;" d="M86 70L89 72L89 71L86 70z"/>
<path style="fill:#983333; stroke:none;" d="M238 70L238 71L248 71L238 70M319 70L320 72L319 70z"/>
<path style="fill:#dd3738; stroke:none;" d="M217 71L217 72L238 72L217 71z"/>
<path style="fill:#6f1313; stroke:none;" d="M176 72L176 73L196 73L176 72z"/>
<path style="fill:#ff3d42; stroke:none;" d="M80 79L81 84L93 83L94 85L95 85L96 83L113 84L115 83L134 83L147 85L148 85L157 84L160 83L160 84L166 83L166 84L183 83L183 79L198 79L203 79L205 83L210 84L209 72C195.856 72 182.843 74 170 74C158.194 74 143.986 72.2535 133 75C126.725 76.5686 119.275 73.4314 113 75C108.709 76.0727 103.867 76 99 76C97.4315 76 94.4272 75.4053 93 76L91 78C89.8289 78.1673 86.9526 77.3649 86 78L86 79C83.2192 81.7808 82.9422 80.4711 80 79z"/>
<path style="fill:#553d3b; stroke:none;" d="M209 72L210 84L212 95L206 119L204 127L204 132L197 134L178 134L101 135L95 108L93 98L89 97L82 90L77 76L79 85L80 92L91 101L93 112L98 127L99 135L116 136L162 136L194 136L205 136L206 131L209 121L209 116L214 99L213 94L214 94L211 72L209 72z"/>
<path style="fill:#6f1313; stroke:none;" d="M320 72L321 74L320 72z"/>
<path style="fill:#cacfce; stroke:none;" d="M86 73C86 77.1883 88.2348 76 92 76L86 73z"/>
<path style="fill:#553d3b; stroke:none;" d="M90 74L93 77L94 74L93 73L90 74z"/>
<path style="fill:#dd3738; stroke:none;" d="M155 73L155 74L176 74L155 73z"/>
<path style="fill:#9aa7a6; stroke:none;" d="M94 74L94 75L99 75L94 74z"/>
<path style="fill:#000000; stroke:none;" d="M99 74L99 75L114 75L99 74z"/>
<path style="fill:#6f1313; stroke:none;" d="M114 74L114 75L134 75L114 74z"/>
<path style="fill:#983333; stroke:none;" d="M94 75L94 76L113 76L94 75M209 75L209 79L210 79L209 75M211 75L211 79L212 79L211 75z"/>
<path style="fill:#fb3d3d; stroke:none;" d="M212 75L212 84C218.759 82.6483 225.176 84.304 233 83L233 84C235.194 84 235.965 83.3392 238 83C240.782 82.5363 242.716 83.7716 245 84L246 83C247.355 83.3387 251.258 83.6882 255 84C259.516 84.3763 269.087 80.1456 272 85L273 85L281 84L295 83L309 83L309 85L317 83L318 84L324 83L321 75L314 77L311 76L294 77L284 75L283 75L279 76L278 77L278 76L275 78L275 77L269 78L269 77L258 77L258 75C255.154 77.1348 249.79 77.6843 245 77L243 76C234.753 76.6873 218.351 79.763 212 75z"/>
<path style="fill:#983333; stroke:none;" d="M321 75L322 77L321 75z"/>
<path style="fill:#430e0e; stroke:none;" d="M52 76L52 77L73 77L52 76z"/>
<path style="fill:#fb3d3d; stroke:none;" d="M17 84L30 82L30 84L46 84L54 83L55 84L57 82L59 83L67 83L77 85L77 76C61.8957 76 46.6373 78 31 78C25.0825 78 18.2127 76.7237 17 84z"/>
<path style="fill:#252925; stroke:none;" d="M79 76C79.5836 79.5018 80.9144 81.0285 84 80L79 76z"/>
<path style="fill:#983333; stroke:none;" d="M31 77L31 78L52 78L31 77M86 77L86 78L92 78L86 77z"/>
<path style="fill:#553d3b; stroke:none;" d="M183 79L184 84L205 83L204 79L198 79L183 79z"/>
<path style="fill:#f72929; stroke:none;" d="M13 82L14 83L13 82z"/>
<path style="fill:#ff2121; stroke:none;" d="M8 98L13 99L12 97L14 99L15 99C17.4081 94.9866 23.5604 97.2802 27 99L27 97L30 99L30 97L33 99L33 97C35.2713 98.8927 35.3932 100.034 36 97L41 99L41 98L38 98L38 97L48 99L48 98L44 98L44 97L60 97L64 99L64 98L62 98L62 97L67 97L67 96L63 96L63 95L70 97L69 95L70 95L77 98L74 99L74 100L89 100L80 91L78 83L77 85C74.3466 81.6832 72.1653 84.0413 68 83C63.2939 81.8235 62.4155 82.3692 58 83C59.377 82.8033 56.2318 82 56 82L54 84C53.6389 84.1204 51.3582 82.4104 49 83C44.6985 84.0754 32.4401 86.0668 30 82C25.044 83.652 23.3223 83.5197 19 84C19.0861 83.9904 16.536 82.732 16 83C11.3334 85.3333 8 93.3213 8 98M212 94L211 84L206 83L191 84L184 83L171 84L171 83L166 84L166 83L164 84L164 83L156 84L156 83L154 84L152 83L150 84L148 85L147 85L147 83L133 83L117 83L116 84L116 83L113 84L113 83L107 83L97 84L95 83L95 85C92.1801 81.4752 91.444 84 88 84C87.9248 84 83.6922 81.8719 82 83C79.9428 84.3715 80.9333 89.5332 82 91C87.4984 98.5602 99.9072 101.523 110 99C126.529 94.8678 146.347 100.163 163 96C168.369 94.6578 174.886 96.2786 180 95C190.139 92.4652 202.284 97.2386 212 94z"/>
<path style="fill:#983333; stroke:none;" d="M186 83L186 84L193 84L186 83z"/>
<path style="fill:#ff2121; stroke:none;" d="M213 83L214 94L243 92L272 92L288 91L314 90L326 89L325 83L318 84L318 83L315 84L315 83L313 84L309 85L305 84L305 83L293 84L293 83L290 84L290 83L284 84L284 83L280 84L280 83L276 84L276 83L273 85L272 85L272 83L256 83L244 84L244 83L236 84L236 83L233 84L233 83L228 84L228 83L213 83z"/>
<path style="fill:#553d3b; stroke:none;" d="M198 86L198 88L202 88L202 86L198 86z"/>
<path style="fill:#983333; stroke:none;" d="M211 88L211 92L212 92L211 88M213 88L213 92L214 92L213 88z"/>
<path style="fill:#980000; stroke:none;" d="M326 88L326 96L327 96L326 88z"/>
<path style="fill:#d49494; stroke:none;" d="M319 89L319 91L326 91L326 89L319 89z"/>
<path style="fill:#ef5252; stroke:none;" d="M288 90L288 91L303 91L288 90z"/>
<path style="fill:#cacfce; stroke:none;" d="M288 91L288 92L319 91L310 90L288 91z"/>
<path style="fill:#d49494; stroke:none;" d="M272 91L272 93L288 93L288 91L272 91z"/>
<path style="fill:#dd3738; stroke:none;" d="M304 91L304 92L319 92L304 91z"/>
<path style="fill:#ce0000; stroke:none;" d="M214 96L207 124L204 136L199 136L185 136L135 137L135 138L232 142L236 120L239 115L253 114L266 113L273 113L279 119L281 119L288 128L288 134L290 141L305 137L310 137L322 135L326 91L214 96z"/>
<path style="fill:#ff4e4a; stroke:none;" d="M242 92L242 93L257 93L242 92z"/>
<path style="fill:#cacfce; stroke:none;" d="M242 93L242 94L272 93L264 92L242 93z"/>
<path style="fill:#ef7373; stroke:none;" d="M225 93L225 94L242 95L242 93L225 93z"/>
<path style="fill:#ef5252; stroke:none;" d="M257 93L257 94L272 94L257 93z"/>
<path style="fill:#d49494; stroke:none;" d="M210 94L210 96L212 96L212 94L210 94M213 94L213 95L241 95L233 94L213 94z"/>
<path style="fill:#f72929; stroke:none;" d="M242 94L242 95L257 95L242 94z"/>
<path style="fill:#ff0008; stroke:none;" d="M63 95L63 96L67 96L67 97L62 97L62 98L64 98L64 99L61 97L44 97L44 98L48 98L48 99L38 97L38 98L41 98L41 99L36 97L33 97L33 99L30 97L30 99L27 97L27 99L15 97L15 99L14 99L12 97L13 99L12 99L7 97L7 102L33 101L58 100L77 98L72 97L69 95L70 97L63 95z"/>
<path style="fill:#ef7373; stroke:none;" d="M179 95L179 96L195 97L195 95L179 95z"/>
<path style="fill:#cacfce; stroke:none;" d="M195 95L195 96L210 96L195 95z"/>
<path style="fill:#ef7373; stroke:none;" d="M214 95L214 96L225 96L214 95z"/>
<path style="fill:#d49494; stroke:none;" d="M162 96L162 98L179 98L179 96L162 96z"/>
<path style="fill:#cacfce; stroke:none;" d="M179 96L179 97L194 97L179 96z"/>
<path style="fill:#dd3738; stroke:none;" d="M195 96L195 97L210 97L195 96z"/>
<path style="fill:#de0000; stroke:none;" d="M210 96L179 97L162 98L131 99L94 101L101 135L176 134L196 134L203 134L205 124L209 111L209 106L210 96z"/>
<path style="fill:#ef5252; stroke:none;" d="M127 97L127 98L145 99L145 97L127 97z"/>
<path style="fill:#cacfce; stroke:none;" d="M145 97L145 98L162 98L145 97z"/>
<path style="fill:#dd3738; stroke:none;" d="M286 97L286 98L291 101L292 98L286 97z"/>
<path style="fill:#fff7f7; stroke:none;" d="M312 97L312 101L313 101L312 97z"/>
<path style="fill:#dd3738; stroke:none;" d="M313 97L313 101L314 101L313 97z"/>
<path style="fill:#d49494; stroke:none;" d="M109 99L109 100L127 100L127 98L109 99z"/>
<path style="fill:#cacfce; stroke:none;" d="M127 98L127 99L144 99L127 98z"/>
<path style="fill:#dd3738; stroke:none;" d="M145 98L145 99L162 99L145 98z"/>
<path style="fill:#ffced6; stroke:none;" d="M286 98L285 104L287 101L290 102L286 98z"/>
<path style="fill:#f76160; stroke:none;" d="M290 98L293 104L292 100L293 100L294 104L295 104L296 99L290 98z"/>
<path style="fill:#cacfce; stroke:none;" d="M93 99L93 100L109 100L93 99z"/>
<path style="fill:#ef5252; stroke:none;" d="M298 99L299 105L302 104L301 100L302 100L303 104L304 104L304 100L308 100L298 99z"/>
<path style="fill:#ef7b7b; stroke:none;" d="M309 99L309 100L312 101L309 99z"/>
<path style="fill:#ef7373; stroke:none;" d="M57 100L57 101L75 102L75 100L57 100z"/>
<path style="fill:#cacfce; stroke:none;" d="M75 100L75 101L91 101L75 100z"/>
<path style="fill:#ef5252; stroke:none;" d="M94 100L94 101L110 101L94 100z"/>
<path style="fill:#fff7f7; stroke:none;" d="M292 100L292 103L293 103L292 100z"/>
<path style="fill:#ffe7ef; stroke:none;" d="M295 100L295 104L296 104L295 100z"/>
<path style="fill:#dd3738; stroke:none;" d="M296 100L298 104L296 100z"/>
<path style="fill:#ffdede; stroke:none;" d="M298 100L298 104L299 104L298 100z"/>
<path style="fill:#ffe7ef; stroke:none;" d="M301 100L301 103L302 103L301 100z"/>
<path style="fill:#ffdede; stroke:none;" d="M304 100L304 104L305 104L308 101L304 100z"/>
<path style="fill:#ffc6c6; stroke:none;" d="M309 100L308 104C311.592 104 313 104.914 313 101L311 103L309 100z"/>
<path style="fill:#d60000; stroke:none;" d="M310 100L310 103L311 103L310 100z"/>
<path style="fill:#983333; stroke:none;" d="M6 101L7 103L6 101z"/>
<path style="fill:#ff2121; stroke:none;" d="M22 101L22 102L40 102L22 101z"/>
<path style="fill:#d49494; stroke:none;" d="M40 101L40 102L74 102L65 101L40 101z"/>
<path style="fill:#ef0000; stroke:none;" d="M6 104L4 116L27 128L36 133C36 129.871 37 128.01 37 125C37 123.91 36.4572 120.905 37 120C38.3874 117.688 42.0442 115.608 44 113C45.4025 111.13 47.9815 106.211 50 105C51.6581 104.005 53.8508 105.713 55 106C60.9948 107.499 68.2602 105.565 74 107C78.9922 108.248 84.8159 105.957 89 109C93.6646 112.392 91.4804 116.441 93 121C93.6679 123.004 95.4811 124.924 96 127C97.0321 131.128 94.8135 136 100 136L96 118L93 111L91 101L85 101L69 102L39 104L29 104L6 104z"/>
<path style="fill:#ef5252; stroke:none;" d="M285 101L286 103L285 101z"/>
<path style="fill:#ff6b6b; stroke:none;" d="M287 101L287 104L288 104L287 101z"/>
<path style="fill:#f78383; stroke:none;" d="M297 101L298 103L297 101z"/>
<path style="fill:#dd3738; stroke:none;" d="M305 101L305 102L308 103L305 101z"/>
<path style="fill:#f76160; stroke:none;" d="M7 102L7 103L23 104L23 102L7 102z"/>
<path style="fill:#cacfce; stroke:none;" d="M23 102L23 103L39 103L23 102z"/>
<path style="fill:#ef7373; stroke:none;" d="M39 102L39 103L57 103L39 102z"/>
<path style="fill:#cacfce; stroke:none;" d="M6 103L6 104L10 104L6 103M11 103L11 104L18 104L11 103M19 103L19 104L22 104L19 103z"/>
<path style="fill:#f72929; stroke:none;" d="M23 103L23 104L40 104L23 103z"/>
<path style="fill:#500000; stroke:none;" d="M5 105L5 109L6 109L5 105M49 105L49 106L55 106L49 105z"/>
<path style="fill:#b50002; stroke:none;" d="M65 106L65 107L74 107L65 106z"/>
<path style="fill:#212118; stroke:none;" d="M36 136L48 136L66 137L75 137L96 137L91 118L88 110L84 110L71 109L56 108L51 107L42 118L39 122L39 130L38 130L39 132L36 136z"/>
<path style="fill:#500000; stroke:none;" d="M74 107L74 108L84 108L74 107z"/>
<path style="fill:#770000; stroke:none;" d="M324 107L324 112L325 112L324 107z"/>
<path style="fill:#ff7300; stroke:none;" d="M16 118L33 118L34 111L18 112L16 118z"/>
<path style="fill:#500000; stroke:none;" d="M258 112L258 113L264 113L258 112M242 114L242 115L247 115L242 114z"/>
<path style="fill:#212118; stroke:none;" d="M232 143C234.797 145.797 247.986 144 253 144C260.881 144 271.463 143.884 279 142C281.46 141.385 286.398 143.403 288 141C288.958 139.562 287.205 137.921 287 137C286.312 133.902 285.727 130.907 285 128C281.44 113.761 262.478 113.131 251 116C247.381 116.905 241.95 114.706 239 117C237.242 118.367 238.687 118.455 238 120C235.324 126.02 233.377 132.131 235 137L234 137C233.637 140.264 234.767 141.34 232 143z"/>
<path style="fill:#ff7300; stroke:none;" d="M295 118L296 126L309 125L315 125L315 121L316 121L315 119L316 116L295 118z"/>
<path style="fill:#980000; stroke:none;" d="M37 119L37 123L38 123L37 119z"/>
<path style="fill:#500000; stroke:none;" d="M322 124L322 130L323 130L322 124M287 127L287 131L288 131L287 127M232 131L232 139L233 139L232 131z"/>
<path style="fill:#980000; stroke:none;" d="M106 134L106 135L125 135L106 134M126 134L126 135L149 135L142 134L126 134z"/>
<path style="fill:#983333; stroke:none;" d="M149 134L149 135L154 135L149 134z"/>
<path style="fill:#252925; stroke:none;" d="M100 136L100 137L119 137L100 136z"/>
<path style="fill:#500000; stroke:none;" d="M119 137L119 138L135 138L119 137M289 137L289 141L290 141L289 137z"/>
<path style="fill:#980000; stroke:none;" d="M151 138L151 139L164 139L151 138z"/>
<path style="fill:#500000; stroke:none;" d="M165 139L165 140L180 140L165 139z"/>
<path style="fill:#770000; stroke:none;" d="M210 141L210 142L226 142L210 141z"/>
</svg>
