<?xml version="1.0" standalone="yes"?>
<svg xmlns="http://www.w3.org/2000/svg" width="328" height="166">
<path style="fill:#9aa7a6; stroke:none;" d="M30 2L33 9L33 14L36 23L36 28L40 44L43 59L45 59L40 39L38 25L34 4L30 2z"/>
<path style="fill:#080000; stroke:none;" d="M211 38L212 38L212 34C218.664 34 217.509 38.0723 221 42C224.834 46.3135 228.206 52.9413 232 58C235.54 62.7204 239.454 66.9073 242 72L235 64L219 41L218 41L223 50L229 61L231 62L232 66L237 74L242 73C241.37 76.7823 239.555 76 236 76L236 77L242 77C242 83.7239 248.19 80.8578 249 76L243 79L243 63L242 63L242 67L241 67L231 52L217 31C211.916 31.8473 211 32.8734 211 38z"/>
<path style="fill:#9aa7a6; stroke:none;" d="M212 34L212 38L213 38L212 34z"/>
<path style="fill:#983333; stroke:none;" d="M213 36L217 37C219.594 34.4061 213.789 32.0544 213 36z"/>
<path style="fill:#252925; stroke:none;" d="M214 35L217 41L218 41L214 35z"/>
<path style="fill:#f76160; stroke:none;" d="M216 35L217 37L216 35z"/>
<path style="fill:#cacfce; stroke:none;" d="M213 37L210 54L207 73L237 73L230 62L215 37L213 37z"/>
<path style="fill:#f75256; stroke:none;" d="M217 37L227 53L228 53L222 43L217 37z"/>
<path style="fill:#252925; stroke:none;" d="M210 38L210 47L211 47L212 38L210 38z"/>
<path style="fill:#47fcf9; stroke:none;" d="M213 39L209 61L208 71L227 72L234 72L227 61L213 39z"/>
<path style="fill:#983333; stroke:none;" d="M222 42L223 44L222 42z"/>
<path style="fill:#000000; stroke:none;" d="M209 43L208 55L209 55L209 43z"/>
<path style="fill:#6f1313; stroke:none;" d="M225 50L226 52L225 50z"/>
<path style="fill:#9aa7a6; stroke:none;" d="M209 51L209 55L210 55L209 51z"/>
<path style="fill:#ff2121; stroke:none;" d="M228 52L230 58L241 71L232 57L228 52z"/>
<path style="fill:#000800; stroke:none;" d="M207 55L205 72L206 72L207 55z"/>
<path style="fill:#553d3b; stroke:none;" d="M208 55L208 59L209 59L208 55z"/>
<path style="fill:#000800; stroke:none;" d="M41 142C39.8848 138.654 41.1761 137.295 42 134C42.6219 131.512 41.8092 128.183 43 126C43.9422 124.273 45.7253 124.133 47 123C49.6769 120.62 51.9473 117.526 55 116C61.2391 112.88 69.8524 114.463 76 116C78.8235 116.706 82.1765 115.294 85 116C92.1448 117.786 92.0561 127.168 94 133L93 133L94 135C94 137.211 92.6168 142.77 96 144C98.5588 144.93 103.248 144 106 144C115.238 144 125.433 144.142 134 142C140.708 140.323 150.052 142 157 142C164.107 142 173.253 141.687 180 140C184.837 138.791 191.399 139.767 196 139C205.49 137.418 215.997 140.251 225 138C226.647 137.588 230.688 138.984 232 138C234.413 136.19 233.303 130.788 234 128C234.562 125.752 236.588 123.267 237 121L236 119C236.605 117.789 237.733 113.742 239 112C241.01 109.237 242.3 110.675 245 110C251.527 108.368 261.231 108 268 108C270.154 108 274.558 106.399 276 107C280.248 108.77 283.859 115.789 286 119C286.965 120.447 288.471 121.413 289 123C290.087 126.262 289.604 129.019 290 131L289 132C289.604 133.811 291.912 135.184 293 136C298.479 131.434 305.124 129.428 311 126C313.6 124.483 315.4 122.517 318 121C319.793 119.954 323.564 119.436 325 118C326.8 116.2 325.429 114.716 325 113C324.451 110.804 325.549 108.196 325 106C324.194 102.775 322.797 99.1896 322 96C320.386 89.5455 315.166 79.5832 308 76C305.422 74.7112 300.831 76.7078 298 76C290.22 74.055 280.485 75 272 75C264.706 75 257.844 74 251 74L251 66L250 66L249 76L276 77L297 78L306 78L316 88L323 106L324 116L307 125L292 133L290 122L290 119L284 112L279 106L272 106L253 108L238 109L235 120L231 136L208 138L179 138L147 140L133 140L118 141L96 142L93 121L90 115L85 115L76 114L60 113L54 113L48 119L46 119L41 125L41 130L39 141L19 137L15 135L7 134L5 119L3 111L3 101L1 89L5 81L7 73L12 59L44 61C41.8698 57.4497 38.8557 59.9639 35 59C30.8224 57.9556 25.4309 59.1077 21 58C16.9881 56.997 12.3015 55.3969 10 60C8.81988 62.3602 9.02046 65.5509 8 68C5.46092 74.0938 1.59646 80.6141 0 87C-0.823139 90.2926 0.31952 94.2781 1 97C1.70588 99.8235 0.294119 103.176 1 106C1.51399 108.056 2.486 110.944 3 113C4.52926 119.117 3.0914 125.274 5 131C5.33985 132.02 4.41546 134.123 5 135C6.58154 137.372 10.5403 136.385 13 137C16.1567 137.789 19.5691 138.142 23 139C28.3331 140.333 35.3251 144.837 41 142M45 58L45 61L49 61L55 63L85 70L111 72L120 72L150 72L172 73L214 74L214 73L195 72L176 71L157 70L120 70L93 68L80 68L66 63L45 58z"/>
<path style="fill:#983333; stroke:none;" d="M12 61L18 60C16.3925 58.3925 12.594 58.0299 12 61z"/>
<path style="fill:#553d3b; stroke:none;" d="M43 59L45 60L43 59z"/>
<path style="fill:#ff7373; stroke:none;" d="M17 68L20 65C18.064 69.84 24.5289 66.6474 27 65C27.8358 70.0148 29.9362 67 33 67L33 68C34.4232 68.2372 36.3589 66.9288 37 67C40.1059 67.3451 43.414 69.2292 45 65C45.2568 64.3152 44.1721 62.0328 44 61L21 60L13 60L11 67L17 68z"/>
<path style="fill:#553d3b; stroke:none;" d="M31 60L31 61L42 61L31 60z"/>
<path style="fill:#d49494; stroke:none;" d="M44 60L46 64L44 60z"/>
<path style="fill:#000800; stroke:none;" d="M243 62L243 63L248 60L243 62z"/>
<path style="fill:#983333; stroke:none;" d="M45 61L45 62L50 62L45 61z"/>
<path style="fill:#553d3b; stroke:none;" d="M230 61L231 63L230 61z"/>
<path style="fill:#f75256; stroke:none;" d="M45 62L47 67C44.6269 67 42.8629 67.6895 41 68C38.4387 68.4269 35.0644 67 33 67C29.5371 67 29.1091 69.2182 27 65L19 66L20 65L17 68L13 68L10 67L9 71L8 77L12 76L12 77L16 76L35 77L44 75L45 75L48 77L51 76L52 78L69 76L70 77L70 75L82 77L106 77L115 77L117 72L90 71L81 71L45 62z"/>
<path style="fill:#cacfce; stroke:none;" d="M244 79C251.774 77.7043 248.899 67.3955 248 62C241.678 63.0537 244 73.5564 244 79z"/>
<path style="fill:#252925; stroke:none;" d="M248 62L249 66L250 66L248 62z"/>
<path style="fill:#983333; stroke:none;" d="M54 63L56 64L54 63z"/>
<path style="fill:#553d3b; stroke:none;" d="M243 63L243 79L244 79L245 63L243 63z"/>
<path style="fill:#983333; stroke:none;" d="M10 64L10 67L11 67L10 64z"/>
<path style="fill:#9aa7a6; stroke:none;" d="M45 64C43.6037 66.7926 43.7052 67 47 67L45 64M207 64L207 68L208 68L207 64z"/>
<path style="fill:#6f1313; stroke:none;" d="M61 65L61 66L64 66L61 65z"/>
<path style="fill:#9aa7a6; stroke:none;" d="M249 66L249 74L250 74L249 66z"/>
<path style="fill:#553d3b; stroke:none;" d="M68 67L68 68L71 68L68 67M206 68L206 72L207 72L206 68z"/>
<path style="fill:#980000; stroke:none;" d="M237 68L238 70L237 68z"/>
<path style="fill:#983333; stroke:none;" d="M8 70L9 72L8 70M80 70L80 71L90 71L80 70z"/>
<path style="fill:#c60000; stroke:none;" d="M241 70L239 71L239 72C241.827 72 242.738 71.7379 241 70z"/>
<path style="fill:#dd3738; stroke:none;" d="M90 71L90 72L111 72L90 71z"/>
<path style="fill:#6f1313; stroke:none;" d="M7 72L8 74L7 72z"/>
<path style="fill:#553d3b; stroke:none;" d="M117 72L114 92L115 95L114 99L119 116L119 121L122 131L123 136L134 136L166 136L212 136L229 135L230 127L235 112L237 101L248 92L249 85L251 76L246 90L237 98L235 98L233 108L227 135L150 134L131 134L124 132L124 127L122 119L116 95L118 84L119 72L117 72z"/>
<path style="fill:#ff3d42; stroke:none;" d="M119 72L118 84L123 83L125 79L130 79L145 79L145 83L171 83L171 84L180 85L181 85L194 83L213 83L215 84L232 83L233 85L234 85L235 83L247 84L248 79C245.058 80.4711 244.781 81.7809 242 79L242 78C241.047 77.3649 238.171 78.1673 237 78L235 76C233.573 75.4053 230.569 76 229 76C224.133 76 219.291 76.0727 215 75C208.725 73.4314 201.275 76.5686 195 75C184.014 72.2535 169.806 74 158 74C145.157 74 132.144 72 119 72z"/>
<path style="fill:#6f1313; stroke:none;" d="M132 72L132 73L152 73L132 72z"/>
<path style="fill:#dd3738; stroke:none;" d="M152 73L152 74L173 74L152 73z"/>
<path style="fill:#553d3b; stroke:none;" d="M235 73L234 74L235 77L238 74L235 73z"/>
<path style="fill:#cacfce; stroke:none;" d="M236 75L236 76C239.765 76 242 77.1883 242 73L236 75z"/>
<path style="fill:#6f1313; stroke:none;" d="M194 74L194 75L214 75L194 74z"/>
<path style="fill:#000000; stroke:none;" d="M214 74L214 75L229 75L214 74z"/>
<path style="fill:#9aa7a6; stroke:none;" d="M229 74L229 75L234 75L229 74z"/>
<path style="fill:#983333; stroke:none;" d="M6 75L7 77L6 75z"/>
<path style="fill:#fb3d3d; stroke:none;" d="M7 75L4 83L10 84L11 83L19 85L20 83L22 84L33 83L47 84L55 85L56 85C58.9126 80.1456 68.4841 84.3763 73 84C78.633 83.5306 81.4922 83.6378 85 83C87.4396 82.5564 89.1428 83.6905 91 84C92.877 84.3128 94.3123 83 96 83L96 84L98 83C101.247 83.4638 100.54 84.1533 104 83L104 84C108.919 84 112.369 83.0922 116 84L116 75L115 75L104 77L86 77L84 76L70 75L69 77L69 76L57 77L52 78L51 76L49 76L45 75L44 75L34 77L17 76L14 77L7 75z"/>
<path style="fill:#983333; stroke:none;" d="M116 75L116 79L117 79L116 75M118 75L118 79L119 79L118 75M215 75L215 76L234 76L215 75z"/>
<path style="fill:#fb3d3d; stroke:none;" d="M251 76L251 85L261 83L269 83L271 82L273 84L275 83L282 84L298 84L298 82L311 84C309.787 76.7237 302.917 78 297 78C281.363 78 266.104 76 251 76z"/>
<path style="fill:#430e0e; stroke:none;" d="M255 76L255 77L276 77L255 76z"/>
<path style="fill:#983333; stroke:none;" d="M236 77L236 78L242 78L236 77M276 77L276 78L297 78L276 77z"/>
<path style="fill:#553d3b; stroke:none;" d="M123 83L144 84L145 79L130 79L124 79L123 83z"/>
<path style="fill:#ff2121; stroke:none;" d="M251 85L250 83L248 91L239 100L254 100L254 99L251 98L259 95L258 97L259 97L265 95L265 96L261 96L261 97L266 97L266 98L264 98L264 99L268 97L284 97L284 98L280 98L280 99L290 97L290 98L287 98L287 99L292 97C292.607 100.034 292.729 98.8927 295 97L295 99L298 97L298 99L301 97L301 99C304.44 97.2802 310.592 94.9866 313 99L314 99L316 97L315 99L316 99L320 98C320 93.4755 316.667 85.1212 312 83C310.286 82.2208 309.616 84.202 308 84L308 83C304.91 83 304.786 84 302 84C302.449 84 298.629 82.2096 298 82C295.56 86.0668 283.302 84.0754 279 83C277.078 82.5194 276.437 83.5209 275 84L274 83L273 84L272 82C271.525 82 268.679 82.9466 269 83L269 82C264.92 82 263.852 82.0369 260 83C255.835 84.0413 253.653 81.6832 251 85z"/>
<path style="fill:#f72929; stroke:none;" d="M314 82L315 83L314 82z"/>
<path style="fill:#ff2121; stroke:none;" d="M3 83L2 89L14 90L40 91L56 92L85 92L114 94L115 83L91 84L91 83L83 84L82 83L72 84L72 83L56 83L56 85L55 85C54.2349 81.1743 53.5329 84 51 84L51 83C49.2392 82.4131 48.0857 84 47 84C47.4277 84 45.2158 82.8263 44 83L43 84L43 83C40.7541 82.6257 38.5392 84 37 84L37 83C36.5245 83 33.6793 83.9465 34 84L34 83C29.8907 82.3151 25.4795 83.6134 22 84C21.9011 84.011 19.8273 83 19 83L19 85L14 84L14 83L9 84L3 83M116 94C125.716 97.2386 137.861 92.4652 148 95C164.529 99.1322 184.347 93.8367 201 98C206.369 99.3422 212.886 97.7214 218 99C222.409 100.102 234.454 100.069 238 98C239.949 96.8634 241.189 94.358 243 93C244.521 91.8589 246.28 91.1608 247 89C249.609 81.1741 242.535 84 239 84L239 83C238.525 83 235.679 83.9465 236 84C234.704 83.7839 234.666 81.6716 234 85L233 85L233 83L230 84L230 83L221 83L214 84L214 83L211 84L211 83L195 83L181 83L181 85L177 84L173 83L171 84L171 83L163 84L163 83L161 84L161 83L156 84L156 83L137 84L122 83L117 84L116 94z"/>
<path style="fill:#983333; stroke:none;" d="M135 83L135 84L142 84L135 83z"/>
<path style="fill:#553d3b; stroke:none;" d="M126 86L126 88L130 88L130 86L126 86z"/>
<path style="fill:#980000; stroke:none;" d="M1 88L1 96L2 96L1 88z"/>
<path style="fill:#983333; stroke:none;" d="M114 88L114 92L115 92L114 88M116 88L116 92L117 92L116 88z"/>
<path style="fill:#d49494; stroke:none;" d="M2 89L2 91L9 91L9 89L2 89z"/>
<path style="fill:#cacfce; stroke:none;" d="M9 90L9 91L40 92L30 91L9 90z"/>
<path style="fill:#ef5252; stroke:none;" d="M25 90L25 91L40 91L25 90z"/>
<path style="fill:#ce0000; stroke:none;" d="M2 91L4 108L4 119L6 125L6 134L14 135L18 137L38 141L40 134L40 128L47 119L49 119L55 113L62 113L75 114L89 115L92 120L96 142L193 138L193 137L143 136L129 136L124 136L121 124L114 96L2 91z"/>
<path style="fill:#dd3738; stroke:none;" d="M9 91L9 92L24 92L9 91z"/>
<path style="fill:#d49494; stroke:none;" d="M40 91L40 93L56 93L56 91L40 91z"/>
<path style="fill:#cacfce; stroke:none;" d="M56 92L56 93L86 94L76 93L56 92z"/>
<path style="fill:#ff4e4a; stroke:none;" d="M71 92L71 93L86 93L71 92z"/>
<path style="fill:#ef5252; stroke:none;" d="M56 93L56 94L71 94L56 93z"/>
<path style="fill:#ef7373; stroke:none;" d="M86 95L103 94L86 93L86 95z"/>
<path style="fill:#f72929; stroke:none;" d="M71 94L71 95L86 95L71 94z"/>
<path style="fill:#d49494; stroke:none;" d="M87 94L87 95L115 95L107 94L87 94M116 94L116 96L118 96L118 94L116 94z"/>
<path style="fill:#ef7373; stroke:none;" d="M103 95L103 96L114 96L103 95z"/>
<path style="fill:#cacfce; stroke:none;" d="M118 95L118 96L133 96L118 95z"/>
<path style="fill:#ef7373; stroke:none;" d="M133 97L149 96L133 95L133 97z"/>
<path style="fill:#ff0008; stroke:none;" d="M257 95L251 98L270 100L295 101L321 102L321 97L315 99L316 97L314 99L313 99L313 97L301 99L301 97L298 99L298 97L295 99L295 97L292 97L287 99L287 98L290 98L290 97L280 99L280 98L284 98L284 97L267 97L264 99L264 98L266 98L266 97L261 97L261 96L265 96L265 95L258 97L259 95L257 95z"/>
<path style="fill:#de0000; stroke:none;" d="M117 96L123 124L125 134L132 134L152 134L227 135L234 101L197 99L166 98L149 97L117 96z"/>
<path style="fill:#dd3738; stroke:none;" d="M118 96L118 97L133 97L118 96z"/>
<path style="fill:#cacfce; stroke:none;" d="M134 96L134 97L149 97L134 96z"/>
<path style="fill:#d49494; stroke:none;" d="M149 96L149 98L166 98L166 96L149 96z"/>
<path style="fill:#cacfce; stroke:none;" d="M166 97L166 98L183 98L166 97z"/>
<path style="fill:#ef5252; stroke:none;" d="M183 99L201 98L183 97L183 99z"/>
<path style="fill:#dd3738; stroke:none;" d="M14 98L14 99L19 102L20 99L14 98z"/>
<path style="fill:#fff7f7; stroke:none;" d="M40 98L40 102L41 102L40 98z"/>
<path style="fill:#dd3738; stroke:none;" d="M41 98L41 102L42 102L41 98M166 98L166 99L183 99L166 98z"/>
<path style="fill:#cacfce; stroke:none;" d="M184 98L184 99L201 99L184 98z"/>
<path style="fill:#d49494; stroke:none;" d="M201 98L201 100L219 100C216.73 96.2163 205.848 98 201 98z"/>
<path style="fill:#ffced6; stroke:none;" d="M14 99L13 105L15 102L18 103L14 99z"/>
<path style="fill:#f76160; stroke:none;" d="M18 99L21 105L20 101L21 101L22 105L23 105L24 100L18 99z"/>
<path style="fill:#cacfce; stroke:none;" d="M219 99L219 100L235 100L219 99z"/>
<path style="fill:#ef5252; stroke:none;" d="M26 100L27 106L30 105L29 101L30 101L31 105L32 105L32 101L36 101L26 100z"/>
<path style="fill:#ef7b7b; stroke:none;" d="M37 100L37 101L40 102L37 100z"/>
<path style="fill:#ef5252; stroke:none;" d="M218 100L218 101L234 101L218 100z"/>
<path style="fill:#cacfce; stroke:none;" d="M237 100L237 101L253 101L237 100z"/>
<path style="fill:#ef7373; stroke:none;" d="M253 102L271 101L253 100L253 102z"/>
<path style="fill:#fff7f7; stroke:none;" d="M20 101L20 104L21 104L20 101z"/>
<path style="fill:#ffe7ef; stroke:none;" d="M23 101L23 105L24 105L23 101z"/>
<path style="fill:#dd3738; stroke:none;" d="M24 101L26 105L24 101z"/>
<path style="fill:#ffdede; stroke:none;" d="M26 101L26 105L27 105L26 101z"/>
<path style="fill:#ffe7ef; stroke:none;" d="M29 101L29 104L30 104L29 101z"/>
<path style="fill:#ffdede; stroke:none;" d="M32 101L32 105L33 105L36 102L32 101z"/>
<path style="fill:#ffc6c6; stroke:none;" d="M37 101L36 105C39.592 105 41 105.914 41 102L39 104L37 101z"/>
<path style="fill:#d60000; stroke:none;" d="M38 101L38 104L39 104L38 101z"/>
<path style="fill:#ef0000; stroke:none;" d="M228 136C233.187 136 230.968 131.128 232 127C232.519 124.924 234.332 123.004 235 121C236.52 116.441 234.335 112.392 239 109C243.184 105.957 249.008 108.248 254 107C259.74 105.565 267.005 107.499 273 106C274.149 105.713 276.342 104.005 278 105C280.018 106.211 282.598 111.13 284 113C285.956 115.608 289.613 117.688 291 120C291.543 120.905 291 123.91 291 125C291 128.01 292 129.871 292 133L324 116L322 104L299 104L289 104L259 102L243 101L237 101L235 111L232 118L228 136z"/>
<path style="fill:#d49494; stroke:none;" d="M254 101L254 102L288 102L279 101L254 101z"/>
<path style="fill:#ff2121; stroke:none;" d="M288 101L288 102L306 102L288 101z"/>
<path style="fill:#983333; stroke:none;" d="M321 101L322 103L321 101z"/>
<path style="fill:#ef5252; stroke:none;" d="M13 102L14 104L13 102z"/>
<path style="fill:#ff6b6b; stroke:none;" d="M15 102L15 105L16 105L15 102z"/>
<path style="fill:#f78383; stroke:none;" d="M25 102L26 104L25 102z"/>
<path style="fill:#dd3738; stroke:none;" d="M33 102L33 103L36 104L33 102z"/>
<path style="fill:#ef7373; stroke:none;" d="M271 102L271 103L289 103L271 102z"/>
<path style="fill:#cacfce; stroke:none;" d="M289 102L289 103L305 103L289 102z"/>
<path style="fill:#f76160; stroke:none;" d="M305 104L321 103L305 102L305 104z"/>
<path style="fill:#f72929; stroke:none;" d="M288 103L288 104L305 104L288 103z"/>
<path style="fill:#cacfce; stroke:none;" d="M306 103L306 104L309 104L306 103M310 103L310 104L317 104L310 103M318 103L318 104L322 104L318 103z"/>
<path style="fill:#500000; stroke:none;" d="M273 105L273 106L279 106L273 105M322 105L322 109L323 109L322 105z"/>
<path style="fill:#b50002; stroke:none;" d="M254 106L254 107L263 107L254 106z"/>
<path style="fill:#770000; stroke:none;" d="M3 107L3 112L4 112L3 107z"/>
<path style="fill:#500000; stroke:none;" d="M244 107L244 108L254 108L244 107z"/>
<path style="fill:#212118; stroke:none;" d="M232 137L253 137L262 137L280 136L292 136L289 131L290 131L289 129L289 122L286 118L277 107L272 108L257 109L244 110L240 110L236 119L237 121L234 127L232 137z"/>
<path style="fill:#ff7300; stroke:none;" d="M294 111L295 118L312 118L310 112L294 111z"/>
<path style="fill:#500000; stroke:none;" d="M64 112L64 113L70 113L64 112z"/>
<path style="fill:#212118; stroke:none;" d="M96 144C91.5739 138.099 94.4989 132.497 92 125C91.277 122.831 90.9117 118.487 89 117C86.0501 114.706 80.6189 116.905 77 116C65.5225 113.131 46.5598 113.761 43 128C42.2732 130.907 41.6884 133.902 41 137C40.7954 137.921 39.0416 139.562 40 141C41.0607 142.591 43.3144 142 45 142C48.6945 142 51.2089 143 55 143C68.7267 143 81.937 144 96 144z"/>
<path style="fill:#500000; stroke:none;" d="M81 114L81 115L86 115L81 114z"/>
<path style="fill:#ff7300; stroke:none;" d="M12 116L13 120L13 125L19 125L32 126L33 118L12 116z"/>
<path style="fill:#980000; stroke:none;" d="M290 119L290 123L291 123L290 119z"/>
<path style="fill:#500000; stroke:none;" d="M5 124L5 130L6 130L5 124M40 127L40 131L41 131L40 127M95 131L95 139L96 139L95 131z"/>
<path style="fill:#983333; stroke:none;" d="M174 134L174 135L179 135L174 134z"/>
<path style="fill:#980000; stroke:none;" d="M179 134L179 135L202 135L195 134L179 134M203 134L203 135L222 135L203 134z"/>
<path style="fill:#252925; stroke:none;" d="M209 136L209 137L227 137L209 136z"/>
<path style="fill:#500000; stroke:none;" d="M38 137L38 141L39 141L38 137M193 137L193 138L209 138L193 137z"/>
<path style="fill:#980000; stroke:none;" d="M164 138L164 139L177 139L164 138z"/>
<path style="fill:#500000; stroke:none;" d="M148 139L148 140L163 140L148 139z"/>
<path style="fill:#770000; stroke:none;" d="M102 141L102 142L118 142L102 141z"/>
</svg>
