<?xml version="1.0" standalone="yes"?>
<svg xmlns="http://www.w3.org/2000/svg" width="54" height="70">
<path style="fill:#000000; stroke:none;" d="M0 23L21 25C21.5462 21.7227 23.2565 16.9359 27 16C29.272 15.432 33.8424 18.4728 33 21C32.5848 22.2457 29.948 24.052 29 25C25.5985 28.4015 20.8399 30.7401 18 35C15.5532 38.6701 16 43.3042 16 48L30 48C30.9499 48 34.2805 48.5396 35 48C36.3807 46.9645 35.3273 44.3454 36 43C39.9306 35.1388 51.1345 32.5966 54 24C57.1768 14.4696 49.3448 5.67242 42 2C37.8953 -0.0523376 32.9766 0 28 0C13.106 0 0 6.62921 0 23M15 52L15 70L36 70L36 52L15 52z"/>
</svg>
