<?xml version="1.0" standalone="yes"?>
<svg xmlns="http://www.w3.org/2000/svg" width="48" height="64">
<path style="fill:#000200; stroke:none;" d="M11 0L11 1L20 1L11 0z"/>
<path style="fill:#0d0604; stroke:none;" d="M7 2L7 3L11 2L7 2z"/>
<path style="fill:#5e3701; stroke:none;" d="M11 1L11 2L20 2L11 1z"/>
<path style="fill:#100f05; stroke:none;" d="M20 1L20 2L30 4L20 1z"/>
<path style="fill:#9c6300; stroke:none;" d="M1 14C9.63373 14 18.3018 20.9055 21 29C21.9 31.7 20.1 35.3 21 38C21.8412 40.5237 24.5076 42.9542 24 46C23.5171 48.8974 18.5991 56.7989 21 60C22.6987 62.2649 29.0667 62 32 62C33.9367 62 38.3053 62.8474 40 62C47.2244 58.3878 47 49.8115 47 43C47 41.307 47.7408 37.4815 47 36C44.2931 30.5863 35.7393 27.5655 33 23C32.0972 21.4953 33.2957 17.7742 33 16C32.0831 10.4985 32.3755 6.13571 27 3C24.5201 1.55341 21.0713 2 18 2C9.09966 2 1 3.82232 1 14z"/>
<path style="fill:#000200; stroke:none;" d="M0 15L10 17L10 16L1 14L7 4C2.8859 -0.114105 0 11.0145 0 15z"/>
<path style="fill:#43340b; stroke:none;" d="M28 4L28 5L32 7L28 4z"/>
<path style="fill:#000200; stroke:none;" d="M32 6L34 16L34 24L47 37L47 51L48 51C48 47.1216 49.6968 38.3937 48 35C45.3472 29.6944 36.6573 26.972 35 22C33.3789 17.1367 38.2634 7.0439 32 6z"/>
<path style="fill:#592900; stroke:none;" d="M32 7L33 24L34 24L33 13L32 7z"/>
<path style="fill:#0a0301; stroke:none;" d="M10 17L10 18L17 25C20.0864 21.9136 14.0221 17 10 17z"/>
<path style="fill:#000200; stroke:none;" d="M18 25L22 43L20 53L21 53L23 40L21 37L18 25z"/>
<path style="fill:#432500; stroke:none;" d="M23 43L23 47L24 47L23 43z"/>
<path style="fill:#612f00; stroke:none;" d="M22 49L20 59L21 59L22 49z"/>
<path style="fill:#000100; stroke:none;" d="M46 51C46 55.4125 42.2922 60.8539 38 63C34.3855 64.8072 28.7011 62.1255 26 61C23.1576 59.8157 20.0608 59.7128 19 56C19.4364 57.5275 20 53.2408 20 53L19 53C18.2825 55.1526 16.9648 58.9648 19 61C19.893 61.893 21.8022 61.6007 23 62C26.5969 63.199 35.5146 66.2427 40 64C44.3997 61.8002 49.409 54.409 46 51z"/>
<path style="fill:#5d2c02; stroke:none;" d="M28 62L28 63L39 63L28 62z"/>
</svg>
