<?xml version="1.0" standalone="yes"?>
<svg xmlns="http://www.w3.org/2000/svg" width="48" height="64">
<path style="fill:#000200; stroke:none;" d="M28 0L28 1L37 1L28 0z"/>
<path style="fill:#100f05; stroke:none;" d="M18 3L18 4L28 2L18 3z"/>
<path style="fill:#5e3701; stroke:none;" d="M28 1L28 2L37 2L28 1z"/>
<path style="fill:#0d0604; stroke:none;" d="M37 1L45 6L37 1z"/>
<path style="fill:#9c6300; stroke:none;" d="M27 60C27 54.4271 24.8152 50.8914 24 46C23.5843 43.506 25.4156 39.3376 26 37C26.6931 34.2278 25.0993 30.7022 26 28C26.5823 26.2532 28.2072 25.9249 29 25C33.8504 19.3412 37.8838 13 46 13C46 10.9896 46.1094 7.42638 45 6C43.8541 4.52669 41.4519 4.84694 40 4L38 2C32.4046 1.20065 23.266 1.15598 19 4C15.2794 6.48042 15 14.0324 15 18C15 19.09 15.5428 22.0954 15 23C12.4804 27.1993 4.51356 29.9729 2 35C1.25924 36.4815 2 40.307 2 42C2 46.737 2.36674 50.5672 3 55L5 57C5.88309 58.7662 5.53213 60.7661 8 62C13.1849 64.5925 22.6155 60.7308 27 60z"/>
<path style="fill:#4a300b; stroke:none;" d="M16 7L19 4L16 7z"/>
<path style="fill:#000200; stroke:none;" d="M14 6C11.6209 10.7582 14.6856 16.9431 13 22C11.3426 26.9721 2.65283 29.6944 0 35C-0.415241 35.8305 0 38.052 0 39C0 42.6247 -0.874921 47.5003 0 51C1.14101 55.564 2.71954 61.3598 8 64C12.4854 66.2427 21.4031 63.199 25 62C26.1978 61.6007 28.107 61.893 29 61C32.7223 57.2777 27.1586 49.4757 26 46C25.014 43.0421 28.3016 37.7936 29 35C29.7687 31.9253 28.6124 28.7752 30 26C33.2306 19.5389 41.0525 15 48 15L46 6L45 6L47 14C38.042 14 29.8274 19.5177 27 28C26.1 30.7 27.9 34.3 27 37C25.893 40.321 23.5645 44.6935 25 49C25.7151 51.1453 29.2556 54.6999 29 57C28.8469 58.3776 25.4618 59.3909 24 60C22.2672 60.722 20.7711 62.4096 19 63C12.7245 65.0918 4.83058 60.6612 2 55C1.47017 53.9403 2.37769 52.1331 2 51C1.10554 48.3166 -0.546875 40.0938 1 37C3.6 31.8 11.4 29.2 14 24C14.9815 22.0369 13.6333 18.2 14 16C14.5028 12.9832 15.0258 8.92256 16 6L14 6z"/>
<path style="fill:#592900; stroke:none;" d="M15 7L14 24L15 24L15 7z"/>
<path style="fill:#743a04; stroke:none;" d="M46 11L36 16L36 17L43 14L47 14L46 11z"/>
<path style="fill:#783800; stroke:none;" d="M27 25L25 40L26 40L27 29L29 25L27 25z"/>
<path style="fill:#7e491f; stroke:none;" d="M1 36C1 42.5334 -0.939454 55.0303 5 58L2 49L1 36z"/>
<path style="fill:#432500; stroke:none;" d="M24 43L24 47L25 47L24 43z"/>
<path style="fill:#612f00; stroke:none;" d="M25 49L27 59L28 59C29.1562 55.5313 27.7099 51.0325 25 49z"/>
<path style="fill:#642d00; stroke:none;" d="M9 62L9 63L20 63L9 62z"/>
</svg>
