<?xml version="1.0" standalone="yes"?>
<svg xmlns="http://www.w3.org/2000/svg" width="26" height="175">
<path style="fill:#010101; stroke:none;" d="M13 0C4.03621 8.96379 5.84298 20.6281 3 32C2.21568 35.1373 3.78431 38.8627 3 42C1.56505 47.7398 3.49871 55.0052 2 61C1.71561 62.1376 0.253197 63.8606 0 65C-1.39777 71.29 0 79.5325 0 86L0 132L0 162C0 164.552 -1.18995 170.818 0 173C2.16752 176.974 13.9107 175 18 175C19.386 175 22.815 175.646 24 175C27.1707 173.271 26 168.07 26 165L26 134L26 87C26 78.5153 26.945 68.7799 25 61C24.198 57.7921 25 53.3225 25 50C25 43.6628 24.461 36.844 23 31C22.3725 28.4902 23.6275 25.5098 23 23C21.0521 15.2085 21.3073 4.15366 13 0z"/>
<path style="fill:#008000; stroke:none;" d="M13 2L7 16L7 22L4 43L4 60L2 65L2 78L2 107L2 173L24 173L24 89L23 61L22 42L22 32L18 11L13 2z"/>
<path style="fill:#000000; stroke:none;" d="M14 13L15 15L14 13M14 27L14 30L15 30L14 27M11 51L11 54L12 54L11 51M7 69L8 71L7 69M15 81L15 84L16 84L15 81M5 82L6 84L5 82M11 137L12 139L11 137M8 163L8 165L10 165L8 163z"/>
</svg>
