<?xml version="1.0" standalone="yes"?>
<svg width="34" height="34">
<path style="fill:#040204; stroke:none;" d="M1 12C12.2223 12 26.9246 12.7737 31 25C31.6195 26.8584 31 30.0237 31 32L33 32C33 22.9192 35.8466 9.88494 28 4C24.3591 1.26936 14.4718 -1.25223 10 2C7.77109 3.62103 8.73081 5.4615 7 7C4.01593 9.65251 1 6.29228 1 12z"/>
<path style="fill:#007c00; stroke:none;" d="M3 9L3 11L16 11L23 15L29 18L31 22C32.3767 20.6233 32 17.7822 32 15C32 7.19995 21.4498 -1.07266 13 2C8.48589 3.64149 9.35779 9 3 9z"/>
</svg>
