<?xml version="1.0" standalone="yes"?>
<svg xmlns="http://www.w3.org/2000/svg" width="34" height="34">
<path style="fill:#040204; stroke:none;" d="M1 32L3 32C3 30.0237 2.38052 26.8584 3 25C7.07543 12.7737 21.7777 12 33 12C33 6.29228 29.9841 9.65251 27 7C25.2692 5.4615 26.2289 3.62103 24 2C19.5282 -1.25223 9.64086 1.26936 6 4C-1.84658 9.88494 1 22.9192 1 32z"/>
<path style="fill:#007c00; stroke:none;" d="M2 22L3 22C3.64178 21.0373 4.37073 18.6293 5 18C11.8445 11.1555 21.1922 11 31 11L31 9C30.2558 9 27.5644 9.42331 27 9C24.5607 7.17056 24.01 3.50501 21 2C15.6803 -0.659866 5.57842 4.9482 3 9C1.07411 12.0264 2 18.1855 2 22z"/>
</svg>
