<?xml version="1.0" standalone="yes"?>
<svg width="17" height="16">
<path style="fill:#000000; stroke:none;" d="M4 1L4 2C5.87131 1.68812 7.97554 0.325182 10 1C10.8179 1.27264 12.3213 2.39668 13 3C21.5449 10.5955 7.22924 20.4585 2 10C1.36627 8.73254 2 5.44818 2 4C-3.81161 9.81161 6.74221 20.2784 14 15C18.2331 11.9214 18.2331 4.07865 14 1C11.5022 -0.816551 6.55974 -0.279867 4 1z"/>
<path style="fill:#9b9b9b; stroke:none;" d="M6 1L6 2L11 2L6 1z"/>
<path style="fill:#3c3c3c; stroke:none;" d="M2 5L5 2L2 5z"/>
<path style="fill:#ffffff; stroke:none;" d="M3 7L6 5L11 9L6 13C10.5693 17.5693 18.4947 10.4069 15 4C12.2725 -1.00035 3 1.68251 3 7z"/>
<path style="fill:#dfdfdf; stroke:none;" d="M2 5C2 9.91327 2.22326 14.9256 8 13L8 12L2 5z"/>
<path style="fill:#909090; stroke:none;" d="M5 5L6 6L5 5z"/>
<path style="fill:#000000; stroke:none;" d="M6 5C0.965863 6.67805 3.93203 14.2189 8 12C11.6249 10.0228 9.68608 3.77131 6 5z"/>
<path style="fill:#c8c8c8; stroke:none;" d="M7 5L9 6L7 5z"/>
<path style="fill:#959595; stroke:none;" d="M15 5L15 11L16 11L15 5z"/>
<path style="fill:#6c6c6c; stroke:none;" d="M4 6L5 7L4 6z"/>
<path style="fill:#888888; stroke:none;" d="M7 7L8 8L7 7z"/>
<path style="fill:#979797; stroke:none;" d="M10 8L11 9L10 8z"/>
<path style="fill:#7b7b7b; stroke:none;" d="M9 10L10 11L9 10z"/>
<path style="fill:#858585; stroke:none;" d="M8 11L9 12L8 11z"/>
<path style="fill:#9b9b9b; stroke:none;" d="M6 14L6 15L11 15L6 14z"/>
</svg>
