<?xml version="1.0" standalone="yes"?>
<svg width="17" height="16">
<path style="fill:#000000; stroke:none;" d="M5 0C-5.53366 3.51122 1.76617 21.1169 12 16C21.0786 11.4607 15.026 -3.34199 5 0z"/>
<path style="fill:#9b9b9b; stroke:none;" d="M6 1L6 2L11 2L6 1z"/>
<path style="fill:#ffffff; stroke:none;" d="M12 14L12 12L6 8L10 5L14 7C14 2.58826 8.35818 -0.377188 4 2C0.868511 3.70809 0.868509 12.2919 4 14C5.58493 14.8645 10.1458 14 12 14z"/>
<path style="fill:#959595; stroke:none;" d="M1 5L1 11L2 11L1 5z"/>
<path style="fill:#363636; stroke:none;" d="M9 5L11 6L9 5z"/>
<path style="fill:#909090; stroke:none;" d="M11 5L12 6L11 5z"/>
<path style="fill:#dfdfdf; stroke:none;" d="M14 5L13 8L14 9L12 13C15.2038 11.3981 16.247 7.24698 14 5z"/>
<path style="fill:#000000; stroke:none;" d="M8 6C4.77031 8.15312 8.75198 13.9488 12 12C16.3806 9.37164 11.6593 3.56047 8 6z"/>
<path style="fill:#6c6c6c; stroke:none;" d="M12 6L13 7L12 6z"/>
<path style="fill:#888888; stroke:none;" d="M9 7L10 8L9 7z"/>
<path style="fill:#979797; stroke:none;" d="M6 8L7 9L6 8z"/>
<path style="fill:#7b7b7b; stroke:none;" d="M7 10L8 11L7 10z"/>
<path style="fill:#858585; stroke:none;" d="M8 11L9 12L8 11z"/>
<path style="fill:#9b9b9b; stroke:none;" d="M6 14L6 15L11 15L6 14z"/>
</svg>
