<?xml version="1.0" standalone="yes"?>
<svg width="51" height="51">
<path style="fill:#000000; stroke:none;" d="M0 21L0 31C2.83678 32.7021 3.20612 37.9248 5 41C7.37855 45.0775 11.8982 48.2909 16 50C19.2185 51.3411 23.2338 51 27 51C31.3544 51 35.5233 51.0281 39 49C51.9889 41.4231 55.0123 22.0185 47 10C42.3331 2.99965 33.8388 0 26 0C24.4315 0 21.4272 -0.594662 20 0L18 2C12.8199 3.48003 7.95767 5.92971 5 11C3.20612 14.0752 2.83678 19.2979 0 21z"/>
<path style="fill:#3c3c3c; stroke:none;" d="M19 10L19 11L22 11L19 10z"/>
<path style="fill:#989898; stroke:none;" d="M18 11L18 12L29 11L18 11z"/>
<path style="fill:#404040; stroke:none;" d="M29 10L29 11L32 11L29 10z"/>
<path style="fill:#c6c6c6; stroke:none;" d="M23 11C22.3035 11.1741 17.6077 11.5949 17 12C16.208 12.528 14.6359 16.1521 14 17C12.3736 19.1685 10.6223 20.5109 10 23C9.29194 25.8322 10.4333 28.733 11 31C11.7462 33.9847 11.888 36.6533 14 39C17.9277 43.3641 27.5945 44.2523 33 42C39.3564 39.3515 41 32.4552 41 26C41 24.5518 41.6337 21.2675 41 20C40.1978 18.3956 37.8727 17.5709 37 16C36.7541 15.5574 36.3109 13.2221 36 13C33.1843 10.9888 26.9281 10.018 23 11z"/>
<path style="fill:#a0a0a0; stroke:none;" d="M12 19L13 19L17 13L12 19z"/>
<path style="fill:#7f7f7f; stroke:none;" d="M37 15L39 18L37 15z"/>
<path style="fill:#848484; stroke:none;" d="M10 19L10 23L11 23L12 19L10 19z"/>
<path style="fill:#414141; stroke:none;" d="M41 20L41 23L42 23L41 20z"/>
<path style="fill:#868686; stroke:none;" d="M9 23L9 30L10 30L9 23z"/>
<path style="fill:#888888; stroke:none;" d="M24 23L26 24L24 23z"/>
<path style="fill:#838383; stroke:none;" d="M41 23L41 30L42 30L41 23z"/>
<path style="fill:#404040; stroke:none;" d="M23 24L23 25L27 25L23 24z"/>
<path style="fill:#000000; stroke:none;" d="M22 25C22 29.4948 22.5052 30 27 30L27 25L22 25z"/>
<path style="fill:#2e2e2e; stroke:none;" d="M27 25L27 29L28 29L27 25z"/>
<path style="fill:#7c7c7c; stroke:none;" d="M21 26L21 29L22 29L21 26z"/>
<path style="fill:#696969; stroke:none;" d="M28 26L28 29L29 29L28 26z"/>
<path style="fill:#7d7d7d; stroke:none;" d="M10 30L10 33L11 33L10 30z"/>
<path style="fill:#575757; stroke:none;" d="M23 30L23 31L27 31L23 30z"/>
<path style="fill:#444444; stroke:none;" d="M41 30L41 33L42 33L41 30z"/>
<path style="fill:#3d3d3d; stroke:none;" d="M38 36L37 39L38 36z"/>
<path style="fill:#616161; stroke:none;" d="M19 42L19 43L22 43L19 42z"/>
<path style="fill:#666666; stroke:none;" d="M29 42L29 43L32 43L29 42z"/>
</svg>
