<?xml version="1.0" standalone="yes"?>
<svg xmlns="http://www.w3.org/2000/svg" width="294" height="41">
<path style="fill:#000100; stroke:none;" d="M89 0C73.9717 3.75708 56.1307 1.21733 41 5C34.8393 6.54017 27.005 2.99833 21 5C19.2446 5.58512 17.6717 7.16414 16 8C10.2068 10.8966 2.47136 13.5859 0 21C-0.788759 23.3663 0.727563 24.4095 2 26C4.50133 29.1267 11.3345 28 16 28C23.2605 28 28.5106 31.3777 35 33C43.4706 35.1176 53.5294 30.8824 62 33C70.6906 35.1727 81.7627 35 91 35C94.9268 35 100.209 34.0521 104 35C113.881 37.4703 126.135 35.7839 135 38C139.386 39.0966 144.095 35.7737 149 37C153.49 38.1224 159.257 36.8142 164 38C178.228 41.5571 194.161 41 210 41L249 41C254.632 41 262.099 42.042 267 40C270.176 38.6768 272.014 35.9904 275 34C279.358 31.0944 284.432 29.0451 289 26C289.884 25.4105 293.48 23.7807 294 23C294.485 22.2719 294.485 14.728 294 14C292.222 11.3333 286.905 10.7263 284 10C278.027 8.5068 271.002 7.50049 265 6C260.987 4.99687 256.982 5.99554 253 5C251.246 4.56143 248.754 3.43858 247 3C243.863 2.21569 240.137 3.78431 237 3C233.89 2.22246 230.214 0.803505 227 0C224.084 -0.729038 220.02 0 217 0L194 0L139 0L105 0C100.167 0 93.6665 -1.16663 89 0z"/>
<path style="fill:#3589d0; stroke:none;" d="M89 2C85.7561 2.81097 81.4951 2.12624 78 3C74.1983 3.95041 71.565 5 67 5C61.5626 5 54.2499 3.68752 49 5C43.5101 6.37246 38.2004 7 32 7C28.891 7 23.9235 6.02552 21 7C19.2446 7.58512 17.6717 9.16415 16 10C10.8422 12.5789 4.21386 14.3584 2 21C-0.407753 28.2233 14.1032 26 18 26C24.0774 26 29.3989 29.5997 35 31C43.4706 33.1176 53.5294 28.8824 62 31C70.6906 33.1727 81.7627 33 91 33C94.9268 33 100.209 32.0521 104 33C113.881 35.4703 126.135 33.7839 135 36C139.386 37.0966 144.095 33.7737 149 35C153.49 36.1224 159.257 34.8142 164 36C178.228 39.5571 194.161 39 210 39L249 39C254.632 39 262.099 40.042 267 38C270.176 36.6768 272.014 33.9904 275 32C279.496 29.0027 285.749 27.4784 290 24C291.741 22.5756 293.408 17.3466 292 15C289.98 11.6327 283.359 11.8396 280 11C269.602 8.4005 258.478 8.6195 248 6C244.756 5.18903 240.495 5.87377 237 5C233.89 4.22246 230.214 2.8035 227 2C224.084 1.27096 220.02 2 217 2L194 2L138 2L104 2C99.4689 2 93.3748 0.906292 89 2z"/>
</svg>
