<?xml version="1.0" standalone="yes"?>
<svg xmlns="http://www.w3.org/2000/svg" width="19" height="27">
<path style="fill:#000000; stroke:none;" d="M3 1L1 11L1 20L0 25L4 26L16 27L18 7L18 0L13 1L3 1z"/>
<path style="fill:#3b3b3b; stroke:none;" d="M7 2L7 3L14 3L7 2z"/>
<path style="fill:#ffffff; stroke:none;" d="M2 23L13 25L17 2L5 4L4 11L2 23z"/>
<path style="fill:#404040; stroke:none;" d="M4 3L4 6L5 6L4 3z"/>
<path style="fill:#a3a3a3; stroke:none;" d="M5 3L7 4L5 3z"/>
<path style="fill:#494949; stroke:none;" d="M16 3L16 8L17 8L16 3z"/>
<path style="fill:#9b9b9b; stroke:none;" d="M15 8L15 13L16 13L15 8M3 11L3 17L4 17L3 11z"/>
<path style="fill:#494949; stroke:none;" d="M2 17L2 22L3 22L2 17z"/>
<path style="fill:#404040; stroke:none;" d="M14 19L14 24L15 24L14 19z"/>
<path style="fill:#898989; stroke:none;" d="M2 23L2 24L5 24L2 23z"/>
<path style="fill:#3b3b3b; stroke:none;" d="M5 24L5 25L12 25L5 24z"/>
<path style="fill:#878787; stroke:none;" d="M13 24L14 25L13 24z"/>
</svg>
