<?xml version="1.0" standalone="yes"?>
<svg xmlns="http://www.w3.org/2000/svg" width="48" height="93">
<path style="fill:#040204; stroke:none;" d="M2 6L3 6L9 2L12 6L15 8L17 14L26 30L36 46L33 54L27 68C28.2157 66.7843 28.7181 63.9229 30 62C32.1916 58.7125 35.5305 56.5269 37 53C39.9221 45.9869 34.2295 38.8442 31 34C27.1148 28.1722 24.8176 20.7264 21 15C19.236 12.354 17.3479 10.6957 16 8L17 7C16.1699 5.3398 13.9643 4.84377 13 4C12.3675 3.44655 11.2038 1.1456 11 1C6.57147 -2.16324 2.66565 2.00608 2 6z"/>
<path style="fill:#848244; stroke:none;" d="M46 88L46 84L35 84C31.1448 84 24.8967 83.7934 23 80C21.8994 77.7989 25.501 72.996 26 71C26.4456 69.2176 25.2985 66.6837 26 65C28.0992 59.9619 32.9863 57.8329 35 53C35.6872 51.3508 35.5693 44.7079 35 43C33.2395 37.7186 28.8544 33.8932 26 29C22.9065 23.6968 20.5382 18.3074 17 13C15.9707 11.456 15.9801 8.40008 15 7C13.453 4.79006 8.97054 0.9198 6 2C1.78749 3.53182 3 9.84068 3 14C3 23.4948 8.88188 33.9114 17 40C19.6724 42.0043 23.4164 43.1993 25 47C25.9778 49.3467 21.9952 55.0096 21 57C17.3624 64.2752 11.6873 72.8109 13 82L15 84C16.8608 87.7216 16.4632 88.8658 21 90C24.4997 90.8749 29.3753 90 33 90C37.9893 90 41.4975 88.7504 46 88z"/>
<path style="fill:#201e12; stroke:none;" d="M1 6C1 10.5555 -0.41807 19.1164 4 20L3 6L1 6z"/>
<path style="fill:#040204; stroke:none;" d="M3 20C3 27.0684 10.0902 39.6817 18 41L8 30L3 20z"/>
<path style="fill:#100e0a; stroke:none;" d="M18 41L18 42C24.5849 46.3899 22.0866 51.8268 19 58C14.9286 66.1428 7.51323 77.5941 13 87C17.1404 94.0979 33.2936 93.2355 40 91C41.6077 90.4641 45.9769 90.3642 47 89C47.6521 88.1306 47 84.1483 47 83L30 82L25 79L26 77L27 68L26 68C25.4786 71.1282 22.0368 77.4007 24 81C26.9345 86.3799 40.5347 84 46 84L46 88C43.0871 88 42.3669 89.211 40 90C36.2788 91.2404 29.9575 90 26 90C24.307 90 20.4815 90.7408 19 90C15.8726 88.4363 16.0694 85.4062 15 83C14.4622 81.79 12.5932 81.1865 12 80C10.728 77.456 14.3145 74.0566 15 72C17.5324 64.4027 22.0465 57.814 24 50C25.1626 45.3497 22.4331 41 18 41z"/>
<path style="fill:#413f23; stroke:none;" d="M35 45L35 52L36 52L35 45z"/>
<path style="fill:#57552e; stroke:none;" d="M24 46L24 50L25 50L24 46z"/>
<path style="fill:#464425; stroke:none;" d="M23 50L24 52L23 50z"/>
<path style="fill:#3c3a20; stroke:none;" d="M26 64L26 68L27 68L26 64z"/>
<path style="fill:#413f23; stroke:none;" d="M12 76L12 81L13 81L12 76z"/>
<path style="fill:#57552e; stroke:none;" d="M23 77L23 81L24 81L23 77z"/>
<path style="fill:#444224; stroke:none;" d="M18 89L18 90L21 90L18 89M39 89L41 90L39 89z"/>
</svg>
