<?xml version="1.0" standalone="yes"?>
<svg xmlns="http://www.w3.org/2000/svg" width="97" height="82">
<path style="fill:#1d1b11; stroke:none;" d="M60 1L60 3L81 4L80 1L60 1z"/>
<path style="fill:#040204; stroke:none;" d="M2 81L3 81C3 74.6563 4.53124 66.1249 3 60C2.20472 56.8189 1.0614 51.7544 2 48C2.80351 44.786 4.22245 41.1102 5 38C6.05307 33.7877 7.59401 29.0654 11 26C12.2367 24.887 15.3329 22.9262 17 22C17.7639 21.5756 19.1884 22.3382 20 22C26.5496 19.271 29.0161 14.2859 36 20C37.8615 21.523 37.059 22.5886 38 24C39.0062 25.5093 41.1214 26.4184 42 28C45.612 34.5016 46.8967 42.4132 45 50C44.1373 53.451 45.8627 57.549 45 61C44.1821 64.2714 42.6276 71.226 44 75C44.7474 77.0552 49.5451 78.2275 52 77C54.7208 75.6396 54.9905 73.0191 56 71C56.7204 69.5592 58.6525 68.564 59 67C59.5989 64.3049 59 60.7711 59 58C59 52.8375 57.1221 49.4884 56 45C55.538 43.1521 56.6004 40.8013 56 39C55.0909 36.2727 52.9091 33.7272 52 31C51.6 29.8 52.4 28.2 52 27C50.6297 22.8892 50 19.9104 50 15C50 10.9723 51.1237 7.26115 55 5C57.6932 3.42899 59.3238 5.38085 60 2C48.9735 2 46.6261 15.5044 49 25C50.1809 29.7235 52.847 34.3878 54 39C55.0886 43.3544 54.8865 47.5462 56 52C57.0486 56.1945 58.0617 58.753 57 63C55.9066 67.3734 54.9658 73.5171 50 76C44.4697 78.7652 44.2226 67.1098 45 64C45.8887 60.4454 45.0483 55.8067 46 52C48.7465 41.014 46.4231 26.5808 38 19C31.3456 13.0111 25.4606 17.3081 19 20C15.6605 21.3914 11.7418 22.2582 9 25C7.42231 26.5777 3.93617 31.7532 3 34C2.41573 35.4023 3.37108 37.5157 3 39C2.63595 40.4562 1.36405 42.5438 1 44C0.270969 46.9161 1 50.9798 1 54C1 63.4503 2 71.7714 2 81z"/>
<path style="fill:#848244; stroke:none;" d="M4 81L19 80L43 79L55 78L76 78L89 76C89 74.1009 88.327 73.4715 88 72C87.1783 68.3025 89 65.4247 89 62C89 60.1672 88.3052 56.6675 89 55L91 53C92.5308 42.2841 95.403 30.8134 93 20C92.8023 19.1106 91.2924 17.8772 91 17C90.1343 14.4029 90.6848 11.1662 89 9C88.5616 8.43638 85.6238 7.48515 85 7C83.2528 5.6411 81.9964 3.66546 80 3C78.4088 2.46958 75.6921 3 74 3C68.2568 3 62.1448 2.53006 57 4L55 6C52.7807 7.10964 50.9765 7.07065 50 10C48.1053 15.6841 50.8337 23.3347 52 28C52.8146 31.2582 52.7488 33.9972 54 37C54.722 38.7328 56.4096 40.2289 57 42C58.147 45.441 56.8822 49.6467 58 53C58.3888 54.1663 59.7378 55.8201 60 57C61.2438 62.5972 58.1111 65.7777 56 70C54.8648 72.2703 53.9722 75.5139 51 77C43.5758 80.7121 44 70.1777 44 66C44 61.4689 42.9063 55.3748 44 51C45.0008 46.9967 46.5038 38.5113 45 34C43.5175 29.5526 40.7162 27.0742 38 23C37.1455 21.7183 38.4691 21.4691 37 20C34.9094 17.9094 28.2705 16.9099 25 18C22.7456 18.7515 21.187 21.0888 19 22C16.0633 23.2236 12.407 23.593 10 26C7.28511 28.7149 4.91479 34.3409 4 38C3.53803 39.8479 4.60042 42.1987 4 44C3.7076 44.8772 2.19766 46.1105 2 47C1.04009 51.3196 2.06706 57.2682 3 61C3.70588 63.8235 2.29412 67.1765 3 70C3.85614 73.4246 4 77.0331 4 81z"/>
<path style="fill:#040204; stroke:none;" d="M81 3C82.8547 6.70945 86.8966 6.99508 89 10C90.6119 12.3028 90.1112 15.3336 91 18C91.6679 20.0038 93.4811 21.9245 94 24C95.8344 31.3377 92.5643 39.7427 91 46C89.7732 50.907 91.239 56.0439 90 61C88.7865 65.854 86.0991 72.0991 90 76C91.0172 72.9485 89 72.4075 89 69C89 66.5159 90.4708 65.1168 91 63C91.6274 60.4902 90.3726 57.5098 91 55C91.7292 52.0832 93.29 48.8399 94 46C94.6274 43.4902 93.3726 40.5098 94 38C94.8341 34.6637 97.0224 31.0896 96 27C95.5614 25.2457 94.4386 22.7543 94 21C92.0609 13.2435 90.5413 4.59022 81 3z"/>
<path style="fill:#444224; stroke:none;" d="M54 5L56 6L54 5z"/>
<path style="fill:#413f23; stroke:none;" d="M27 17L27 18L33 18L27 17z"/>
<path style="fill:#454325; stroke:none;" d="M93 23L93 27L94 27L93 23M93 33L93 36L94 36L93 33z"/>
<path style="fill:#32301b; stroke:none;" d="M45 37L45 50L46 50L45 37z"/>
<path style="fill:#454325; stroke:none;" d="M3 41L3 45L4 45L3 41z"/>
<path style="fill:#413f22; stroke:none;" d="M56 41L56 46L57 46L56 41z"/>
<path style="fill:#59572e; stroke:none;" d="M44 50L44 62L45 62L44 50z"/>
<path style="fill:#2d2b19; stroke:none;" d="M89 54L89 62L90 62L89 54z"/>
<path style="fill:#5b5930; stroke:none;" d="M59 56L59 64L60 64L59 56z"/>
<path style="fill:#454325; stroke:none;" d="M3 70L3 81L4 81L3 70z"/>
</svg>
