<?xml version="1.0" standalone="yes"?>
<svg width="97" height="82">
<path style="fill:#1d1b11; stroke:none;" d="M16 2L16 3L37 3L37 1L16 2z"/>
<path style="fill:#040204; stroke:none;" d="M37 2L37 3C39.6395 4.31976 44.1841 6.2762 46 9C48.3024 12.4536 47.196 20.4119 46 24C45.2566 26.2301 45.759 28.7229 45 31C44.0909 33.7273 41.9091 36.2727 41 39C40.3996 40.8013 41.462 43.1521 41 45C40.2657 47.9371 38.5025 50.9848 38 54C37.4257 57.4456 37.2436 63.5964 38 67C38.3475 68.564 40.2796 69.5592 41 71C42.0095 73.019 42.2792 75.6396 45 77C47.4549 78.2275 52.2526 77.0552 53 75C54.3724 71.226 52.8179 64.2714 52 61C51.1373 57.549 52.8627 53.451 52 50C50.0913 42.3652 51.3644 34.5441 55 28C55.8786 26.4184 57.9938 25.5093 59 24C59.941 22.5886 59.1385 21.523 61 20C67.9067 14.3491 70.4849 19.2854 77 22C77.8116 22.3382 79.2362 21.5756 80 22C81.6671 22.9262 84.7633 24.887 86 26C89.406 29.0654 90.9469 33.7877 92 38C92.7775 41.1102 94.1965 44.786 95 48C95.9386 51.7544 94.7953 56.8189 94 60C92.4688 66.1249 94 74.6563 94 81L95 81C95 71.7714 96 63.4503 96 54C96 50.9798 96.729 46.9161 96 44C95.636 42.5438 94.364 40.4562 94 39C93.6289 37.5157 94.5843 35.4022 94 34C93.0638 31.7532 89.5777 26.5777 88 25C85.2582 22.2582 81.3395 21.3914 78 20C71.5394 17.3081 65.6544 13.0111 59 19C50.5769 26.5808 48.2535 41.014 51 52C51.9517 55.8067 51.1113 60.4454 52 64C52.7774 67.1098 52.5303 78.7652 47 76C42.0342 73.5171 41.0934 67.3734 40 63C38.9383 58.753 39.9514 56.1945 41 52C42.1135 47.5462 41.9114 43.3544 43 39C44.153 34.3878 46.8191 29.7235 48 25C50.3739 15.5044 48.0265 2 37 2M7 76C10.9009 72.0991 8.21349 65.854 7 61C5.76098 56.0439 7.22675 50.907 6 46C4.43568 39.7427 1.16557 31.3377 3 24C3.51888 21.9245 5.33205 20.0038 6 18C6.8888 15.3336 6.38806 12.3028 8 10C10.1034 6.99507 14.1453 6.70945 16 3C6.45869 4.59022 4.93911 13.2435 3 21C2.56142 22.7543 1.43858 25.2457 1 27C-0.0224084 31.0896 2.16592 34.6637 3 38C3.62745 40.5098 2.37255 43.4902 3 46C3.70998 48.8399 5.2708 52.0832 6 55C6.62745 57.5098 5.37255 60.4902 6 63C6.52919 65.1168 8 66.5159 8 69C8 72.4075 5.98283 72.9485 7 76z"/>
<path style="fill:#848244; stroke:none;" d="M8 76L21 78L42 78L54 79L78 80L93 81C93 77.0331 93.1439 73.4246 94 70C94.7059 67.1765 93.2941 63.8235 94 61C94.9329 57.2682 95.9599 51.3196 95 47C94.8023 46.1105 93.2924 44.8772 93 44C92.3996 42.1987 93.462 39.8479 93 38C92.0852 34.3409 89.7149 28.7149 87 26C84.593 23.593 80.9367 23.2236 78 22C75.8194 21.0914 74.1806 18.9086 72 18C68.9301 16.7209 61.9339 18.0661 60 20C58.5309 21.4691 59.8545 21.7183 59 23C56.3011 27.0483 53.1456 29.4175 52 34C50.7721 38.9116 51.9161 46.6644 53 51C54.0937 55.3748 53 61.4689 53 66C53 70.1777 53.4242 80.7121 46 77C43.0278 75.5139 42.1352 72.2703 41 70C38.8888 65.7777 35.7562 62.5972 37 57C37.2622 55.8201 38.6112 54.1663 39 53C40.1178 49.6467 38.853 45.441 40 42C40.5904 40.2289 42.278 38.7328 43 37C44.2512 33.9972 44.1854 31.2582 45 28C46.1663 23.3347 48.8947 15.6841 47 10C46.0235 7.07064 44.2193 7.10964 42 6C40.178 5.08899 38.9576 3.48939 37 3C33.2086 2.05215 27.9268 3 24 3C22.0633 3 17.6947 2.15263 16 3C14.4168 3.79158 13.4794 6.01373 12 7C11.3167 7.45553 8.44425 8.42882 8 9C6.31521 11.1662 6.86569 14.4029 6 17C5.7076 17.8772 4.19766 19.1105 4 20C1.59702 30.8134 4.46916 42.2841 6 53L8 55C8.69481 56.6675 8 60.1672 8 62C8 65.4247 9.82165 68.3026 9 72C8.673 73.4715 8 74.1009 8 76z"/>
<path style="fill:#434124; stroke:none;" d="M37 3L39 4L37 3z"/>
<path style="fill:#413f23; stroke:none;" d="M64 17L64 18L70 18L64 17z"/>
<path style="fill:#454325; stroke:none;" d="M3 23L3 27L4 27L3 23M3 33L3 36L4 36L3 33z"/>
<path style="fill:#32301b; stroke:none;" d="M51 37L51 50L52 50L51 37z"/>
<path style="fill:#413f22; stroke:none;" d="M40 41L40 46L41 46L40 41z"/>
<path style="fill:#454325; stroke:none;" d="M93 41L93 45L94 45L93 41z"/>
<path style="fill:#59572e; stroke:none;" d="M52 50L52 62L53 62L52 50z"/>
<path style="fill:#2d2b19; stroke:none;" d="M7 54L7 62L8 62L7 54z"/>
<path style="fill:#5b5930; stroke:none;" d="M37 56L37 64L38 64L37 56z"/>
<path style="fill:#454325; stroke:none;" d="M93 70L93 81L94 81L93 70z"/>
</svg>
