<?xml version="1.0" standalone="yes"?>
<svg width="53" height="95">
<path style="fill:#040204; stroke:none;" d="M13 46L14 54L20 63L21 83L12 83C9.13547 83 5.19968 82.4002 3 84C0.140405 86.0797 0.179195 92.1195 3 94C4.48649 94.991 10.1361 94 12 94L35 94C36.6556 94 41.6796 94.8803 43 94C45.7547 92.1636 43.5323 85.1292 43 83C41.8192 78.2766 42.9569 72.4029 41 68C40.2826 66.3857 37.7917 65.5834 37 64C35.6855 61.3709 37.1545 56.7708 36 54C34.4829 50.3591 36.7099 46 32 46C34.6462 43.3538 37.517 42.0315 40 40C46.0791 35.0262 49.7476 26.7571 52 20C53.1035 16.6894 52.8193 5.50152 51 3C49.815 1.37069 46.2193 -1.10967 44 0C41.3579 1.32105 37.9399 5.73682 36 8L37 10L35 11C34.1517 12.9795 33.1407 14.0446 32 16C28.2938 22.3535 25.1969 28.7046 21 35C18.6196 38.5705 17.3466 45.2756 13 46z"/>
<path style="fill:#848244; stroke:none;" d="M18 46C20.9083 46 27.4552 47.2724 30 46C31.5832 45.2084 32.5206 42.9863 34 42C41.7709 36.8194 46.7403 30.0387 49 21C50.1266 16.4936 53.7386 7.21204 49 3C45.4099 -0.191208 40.6076 4.58858 39 7L39 9C36.0617 12.428 34.4124 15.3813 32 19C31.3132 20.0303 31.59 22.0167 31 23L29 24C26.3594 31.9218 19.4115 37.5312 18 46z"/>
<path style="fill:#808004; stroke:none;" d="M14 50L15 50C17.2702 46.2163 28.1521 48 33 48L33 53L34 53L34 47L20 47L14 47L14 50z"/>
<path style="fill:#fcfe04; stroke:none;" d="M15 48L15 53L20 59L20 62L23 66L23 85L3 86L4 92L14 92L42 92L40 77L40 71L35 64L35 55L33 48L15 48z"/>
<path style="fill:#5f5f04; stroke:none;" d="M16 53L17 55L16 53z"/>
<path style="fill:#626104; stroke:none;" d="M34 53L35 55L34 53z"/>
<path style="fill:#7d7d04; stroke:none;" d="M19 58L20 60L19 58z"/>
<path style="fill:#cdce04; stroke:none;" d="M35 60L35 65L36 65L35 60z"/>
<path style="fill:#838304; stroke:none;" d="M21 63L22 65L21 63z"/>
<path style="fill:#cacb04; stroke:none;" d="M22 65L22 85L23 85L22 65z"/>
<path style="fill:#656504; stroke:none;" d="M39 69L40 71L39 69z"/>
<path style="fill:#8a8a04; stroke:none;" d="M41 81L41 84L42 84L41 81z"/>
<path style="fill:#444304; stroke:none;" d="M42 84L42 92L43 92L42 84z"/>
<path style="fill:#878804; stroke:none;" d="M4 85L6 86L4 85z"/>
<path style="fill:#d5d604; stroke:none;" d="M4 92L4 93L20 93L4 92z"/>
<path style="fill:#222104; stroke:none;" d="M20 92L20 93L42 93L20 92z"/>
</svg>
