<?xml version="1.0" standalone="yes"?>
<svg xmlns="http://www.w3.org/2000/svg" width="92" height="45">
<path style="fill:#110f0b; stroke:none;" d="M58 18L59 18C59 11.8692 66.0014 3.49964 72 2C74.612 1.34701 77.1563 3 80 3C74.795 -3.94007 62.3368 4.27982 59 10C57.7973 12.0618 58 15.403 58 18z"/>
<path style="fill:#848244; stroke:none;" d="M4 44L29 43L41 43L57 41L80 40L89 39C87.9557 32.7342 88 25.839 88 19C88 13.7021 86.9109 8.47633 83 5C82.0184 4.12746 80.1554 4.51351 79 4C71.957 0.869793 65.9129 2.6306 61 10C57.7192 14.9212 60.4191 20.3236 59 26C58.4766 28.0936 56.8788 30.0227 56 32C55.6339 32.8238 56.4022 34.1956 56 35C54.7111 37.5779 49.2401 42.7673 46 41C41.9694 38.8015 43.2063 33.1748 44 30C45.1972 25.2112 44.9926 13.3251 42 10C40.9568 8.84084 37.8062 7.09689 36 8C33.7706 9.1147 32.2967 13.6484 29 12C27.0585 11.0292 26.1336 8.00761 25 7C24.3916 6.45916 20.8681 5.21702 20 5C14.5648 3.64121 11.8088 7.14343 8 10C-2.04811 17.5361 4 32.4687 4 44z"/>
<path style="fill:#424023; stroke:none;" d="M78 3L80 4L78 3z"/>
<path style="fill:#040204; stroke:none;" d="M80 3L80 4L88 14L88 19L89 26L89 39L90 39C90 35.6196 88.09 32.64 89 29C91.1327 20.4693 90.4331 4.73885 80 3M2 44L3 44C3 37.9503 3.99253 30.9552 3 25C2.49647 21.9788 1.65095 19.2377 3 16C4.11954 13.3131 6.97344 11.5199 9 10C12.0921 7.68096 14.6043 3.90107 19 5C20.7115 5.42788 23.686 6.68597 25 8C25.8517 8.85165 26.3696 11.1848 28 12C32.4335 14.2168 33.9744 9.00855 37 8C38.3989 7.53368 41.1325 9.93972 42 11C46.2363 16.1777 43.4956 26.0524 43 32C42.7866 34.5611 42.8667 39.5778 45 41C45.9864 41.6576 49.7635 41 51 41L51 39L45 39L45 20C45 17.7401 45.7083 14.125 45 12C44.2385 9.71537 41.2846 6.76154 39 6C33.8136 4.27118 34.9807 10.3366 31 11C28.2175 11.4638 25.3221 4.96755 23 4C16.0544 1.10599 6.55155 6.67268 3 12C-2.66282 20.4942 2 33.9309 2 44M57 18L56 32L57 32L57 18z"/>
<path style="fill:#3e3c21; stroke:none;" d="M58 18L58 27L59 27L58 18z"/>
<path style="fill:#464425; stroke:none;" d="M88 19L88 27L89 27L88 19z"/>
<path style="fill:#252315; stroke:none;" d="M55 32L51 40C54.2957 38.3522 57.8088 34.8088 55 32z"/>
<path style="fill:#464425; stroke:none;" d="M3 37L3 44L4 44L3 37z"/>
</svg>
