<?xml version="1.0" standalone="yes"?>
<svg xmlns="http://www.w3.org/2000/svg" width="92" height="45">
<path style="fill:#040204; stroke:none;" d="M2 39L3 39C5.73188 30.8044 1.25875 22.2238 4 14C5.72699 8.81903 9.56271 5.84887 14 4C16.0423 3.14903 17.291 1.32274 20 2C24.8592 3.21481 31.4534 10.3603 33 15C34.5728 19.7183 32.8846 24.9808 34 30C34.1956 30.8802 35.6234 32.1527 36 33C36.3661 33.8238 35.5978 35.1956 36 36C37.4323 38.8647 43.5649 43.2901 47 41C49.1333 39.5778 49.2134 34.5611 49 32C48.5044 26.0524 45.7637 16.1777 50 11C55.6348 4.11305 56.7349 14.0884 63 12C66.6961 10.768 67.4012 6.49949 71 5C75.8803 2.96652 79.7378 7.55334 83 10C85.0266 11.5199 87.8805 13.3131 89 16C90.349 19.2377 89.5035 21.9788 89 25C88.0075 30.9552 89 37.9503 89 44L90 44C90 33.9309 94.6628 20.4942 89 12C85.4485 6.67269 75.9456 1.10599 69 4C66.6779 4.96754 63.7825 11.4638 61 11C57.0193 10.3366 58.1865 4.27118 53 6C50.7154 6.76154 47.7615 9.71537 47 12C46.2917 14.125 47 17.7401 47 20L47 39C41.3391 39 37.7543 36.263 36 31C32.9562 21.8685 36.4568 12.4568 29 5C21.4206 -2.57938 9.32815 1.00777 4 9C2.20922 11.6862 2 18.662 2 22C2 24.779 2.4275 26.71 3 29C3.90999 32.64 2 35.6196 2 39z"/>
<path style="fill:#848244; stroke:none;" d="M3 39L12 40L35 41L51 43L63 43L88 44C88 32.4687 94.0481 17.5361 84 10C80.1912 7.14343 77.4352 3.64121 72 5C71.1319 5.21702 67.6084 6.45917 67 7C65.4849 8.34679 64.5736 11.3566 62 12C57.2319 13.192 55.3881 4.01322 50 10C47.0074 13.3251 46.8028 25.2112 48 30C48.7937 33.1748 50.0306 38.8015 46 41C42.7599 42.7673 37.2889 37.5779 36 35C35.5978 34.1956 36.3661 32.8238 36 32C35.1212 30.0227 33.5234 28.0936 33 26C31.5809 20.3236 34.2808 14.9212 31 10C26.0871 2.6306 20.043 0.869797 13 4C11.8446 4.51351 9.98161 4.12746 9 5C5.08914 8.47632 4 13.7021 4 19C4 25.839 4.0443 32.7342 3 39z"/>
<path style="fill:#454324; stroke:none;" d="M70 5L72 6L70 5z"/>
<path style="fill:#3e3c21; stroke:none;" d="M33 18L33 27L34 27L33 18z"/>
<path style="fill:#464425; stroke:none;" d="M3 19L3 27L4 27L3 19M88 37L88 44L89 44L88 37z"/>
</svg>
