<?xml version="1.0" standalone="yes"?>
<svg xmlns="http://www.w3.org/2000/svg" width="45" height="95">
<path style="fill:#000000; stroke:none;" d="M3 84L3 85L18 84L19 52L21 42L27 42L43 42C43 53.202 44.6007 66.5972 42 77C40.7953 81.8188 42.9178 87.988 40 92C37.6847 95.1835 32.5951 94 29 94C21.44 94 3.48105 94.8863 2 86C-1.58951 89.5895 4.53799 92.846 8 94C10.7022 94.9007 14.2278 93.3069 17 94C21.8705 95.2176 27.531 95 33 95C35.3672 95 39.3731 95.8303 41 94C44.7811 89.7462 41.6748 83.3008 43 78C45.0906 69.6374 44 59.0884 44 50C44 46.5066 45.8802 43.5208 45 40C43.9545 35.8181 41.6465 31.9515 40 28C38.4888 24.3731 38.9726 19.3816 37 16C34.9877 12.5504 32.3871 8.63443 29 6C28.4802 5.59573 26.5113 5.40908 26 5C22.3055 2.04443 19.8421 -2.40791 14 1C12.3594 1.95702 11.8521 3.9044 11 5C9.43758 7.00882 6.94731 8.72647 6 11C5.10612 13.1453 5.25946 21.7784 6 24C6.80691 26.4207 9.4025 27.87 11 30C12.0575 31.4101 12.2537 33.5074 13 35C13.9608 36.9216 16.0392 38.0784 17 40C18.3791 42.7582 18 46.6724 18 50L18 71C18 73.8413 18.6257 78.9098 17 81C14.2366 84.553 6.73506 82.1325 3 84z"/>
<path style="fill:#848442; stroke:none;" d="M43 40C41.8874 36.6622 40.9922 33.4727 40 30L38 28C37.0054 25.613 37.82 22.46 37 20C36.1051 17.3153 33.5374 13.3062 32 11C30.0611 8.09166 27.2214 7.61555 25 6C22.4166 4.12118 19.656 -0.327988 15 2C13.3353 2.83237 12.7619 4.85721 12 6C10.8624 7.70641 8.77746 9.13409 8 11C7.20536 12.9071 8 16.9038 8 19C8 20.4482 7.36627 23.7326 8 25C9.30631 27.6126 12.4073 29.611 14 32C15.497 34.2455 17.0066 38.8925 19 40C20.3647 40.7581 24.3949 40 26 40L43 40z"/>
<path style="fill:#232312; stroke:none;" d="M7 12L7 24L8 24L7 12z"/>
<path style="fill:#444422; stroke:none;" d="M18 38L18 41L25 41L43 41L43 40C35.444 40 23.1077 41.8308 18 38z"/>
<path style="fill:#ffff00; stroke:none;" d="M2 89C10.1991 94.4661 20.607 93 31 93C34.0703 93 39.2706 94.1706 41 91C42.7346 87.8199 40.1074 81.5704 41 78C41.364 76.5438 42.636 74.4562 43 73C43.729 70.0839 43 66.0202 43 63L43 42L26 42C24.7635 42 20.9864 41.3424 20 42C17.9121 43.3919 19 49.6408 19 52L19 72C19 74.5431 19.7971 78.6087 19 81C16.3503 88.949 3.40395 80.5763 2 89z"/>
<path style="fill:#303000; stroke:none;" d="M42 73L42 77L43 77L42 73z"/>
<path style="fill:#7c7c00; stroke:none;" d="M41 77L41 86L42 86L41 77z"/>
<path style="fill:#b7b700; stroke:none;" d="M18 80L19 82L18 80z"/>
<path style="fill:#7a7a00; stroke:none;" d="M5 84L5 85L15 85L5 84z"/>
<path style="fill:#6b6b00; stroke:none;" d="M2 85L2 87L4 85L2 85z"/>
<path style="fill:#777700; stroke:none;" d="M39 92L40 93L39 92z"/>
<path style="fill:#9a9a00; stroke:none;" d="M19 93L19 94L39 94L19 93z"/>
</svg>
