<?xml version="1.0" standalone="yes"?>
<svg width="94" height="21">
<path style="fill:#040204; stroke:none;" d="M46 15L43 5L38 4L22 3L15 3L9 5L9 6C16.4299 6 24.0839 5 32 5C34.9506 5 38.6837 4.45581 41 6C45.569 9.04599 41.8633 11.795 44 15C44.8278 16.2418 50.5875 16.7847 52 16C55.1397 14.2557 55.5056 9.21722 58 7C63.539 2.07645 76.7799 1.5933 84 4C85.4306 4.47688 88.4158 6.8317 89 8C90.6261 11.2522 86.7093 14.1419 91 15C90.2393 12.7179 91.0801 8.16021 90 6C88.0226 2.04512 85.2099 3.80249 82 3C75.6944 1.4236 64.667 0.694248 59 4C53.7275 7.07564 54.0764 15 46 15z"/>
<path style="fill:#444224; stroke:none;" d="M66 3L66 4L81 4L66 3z"/>
<path style="fill:#848244; stroke:none;" d="M3 8L4 20L18 19L42 18L55 17L76 17L89 15C88.6438 12.863 88.5382 6.53821 87 5C85.3996 3.39958 81.3306 4 79 4C72.6959 4 65.0151 2.65659 60 6C59.5318 6.31211 57.323 6.63087 57 7L57 9C55.6416 11.3773 54.1623 12.5585 52 14L51 16C47.6976 17.6512 43.9043 14.7128 43 12C42.336 10.008 44.1236 7.4157 42 6C40.9557 5.30382 38.2493 6.31232 37 6C31.2752 4.56879 20.3019 3.42453 14 5C10.3869 5.90328 6.92614 8 3 8z"/>
<path style="fill:#37351e; stroke:none;" d="M36 5L36 6L40 6L36 5z"/>
<path style="fill:#1d1b10; stroke:none;" d="M2 20L4 20L3 8L9 7L1 8L2 14L2 20z"/>
<path style="fill:#36341d; stroke:none;" d="M88 7L88 13L89 13L88 7z"/>
<path style="fill:#434124; stroke:none;" d="M43 8L43 13L44 13L43 8z"/>
</svg>
