<?xml version="1.0" standalone="yes"?>
<svg xmlns="http://www.w3.org/2000/svg" width="98" height="59">
<path style="fill:#040204; stroke:none;" d="M2 53L3 53C5.41977 45.7407 1.08752 38.6499 3 31C3.48939 29.0424 5.08899 27.822 6 26C9.25835 19.4833 13.0358 12.4821 20 9C22.4472 7.77638 25.3865 8.87115 28 8C28.8772 7.70761 30.1106 6.19765 31 6C34.7164 5.17414 42.1959 7.39174 44 11C45.6087 14.2175 41.0465 19.4885 40 22C38.6699 25.1921 37.7366 29.0229 36 32C34.5018 34.5683 32.2496 37.623 33 41C33.2532 42.1394 34.7156 43.8625 35 45C35.8684 48.4735 37.0599 53.03 41 55C46.8742 57.9371 48.3802 51.719 49 48C49.2991 46.2054 48.3045 46.3702 48 45C47.5077 42.7847 48.5499 40.1996 48 38C47.6519 36.6075 46.1962 34.929 47 33C50.2119 25.2915 55.9654 18.276 63 13C67.9028 9.32291 71.4483 4.85056 77 3C80.2929 1.90237 83.6101 3.60588 86 5C93.173 9.18427 97.0859 13.6563 95 22C94.5544 23.7824 95.7015 26.3163 95 28C93.8051 30.8677 90.9847 33.0458 90 36C89.0192 38.9425 90.5129 42.9228 90 46C89.3717 49.7696 89 53.7017 89 58C90.8155 56.1845 89.2319 53.0725 90 50C90.7521 46.9917 91.013 42.9611 92 40C92.3919 38.8243 91.5251 37.1398 92 36C93.4914 32.4206 96.0388 29.8449 97 26C99.0048 17.981 96.8582 8.57213 90 4C89.2217 3.48116 86.9302 3.38757 86 3C83.9233 2.13472 81.6483 0.337917 79 1C66.1236 4.2191 54.1561 14.6254 49 27C47.2345 31.2372 43.8024 35.6106 45 41C45.2532 42.1394 46.7156 43.8625 47 45C47.735 47.9402 46.7332 55.3666 42 53C37.7307 50.8653 36.9263 46.7052 36 43C33.9609 34.8434 40.4625 27.6124 43 20C43.8304 17.5089 46.784 12.2706 45 9C43.404 6.07401 40.5951 6.64877 38 6C31.5585 4.38962 25.8654 5.55609 20 8C9.66646 12.3056 3.66939 22.3224 1 33C-0.144692 37.5788 2.08757 41.3503 3 45C3.74018 47.9607 2 50.1154 2 53z"/>
<path style="fill:#424023; stroke:none;" d="M76 3L76 4L80 4L76 3z"/>
<path style="fill:#848244; stroke:none;" d="M3 54L45 57L62 57L89 58C89 52.6288 87.3165 44.0505 89 39C90.054 35.8381 92.946 33.1619 94 30C94.7672 27.6986 94.4073 25.3707 95 23C95.5796 20.6817 96.9551 16.8654 96 14C95.0729 11.2186 93.1022 9.57669 91 8C89.2236 6.66768 88.0094 4.66981 86 4C76.0342 0.67807 69.6201 7.28493 62 13C59.2699 15.0476 55.153 17.7705 53 21C50.275 25.0874 47.8146 31.1124 47 36C46.7009 37.7946 47.6955 37.6298 48 39C48.6051 41.7231 48.1316 46.421 48 48C47.7804 50.6356 48.8619 53.439 46 55C43.7838 56.2088 41.3835 54.2682 40 53C36.7572 50.0274 35.9694 47.8776 35 44C34.6211 42.4844 32.8585 40.6977 33 39C33.2466 36.0404 35.8997 33.6408 37 31C37.5876 29.5897 37.2337 27.2772 38 26L40 25C40.7056 22.8832 41.155 21.0281 42 19C42.7374 17.2303 44.3049 11.1748 43 9C41.3995 6.33257 33.1769 5.29401 30 6C29.1105 6.19766 27.8772 7.7076 27 8C24.3866 8.87115 21.4472 7.77638 19 9C16.707 10.1465 13.9143 12.4048 12 14L12 16C9.59074 20.1302 5.7874 22.7103 4 27C3.29848 28.6836 4.4456 31.2176 4 33C2.82939 37.6824 4 41.698 4 47C4 49.7613 3 51.2387 3 54z"/>
<path style="fill:#424023; stroke:none;" d="M82 3L84 4L82 3z"/>
<path style="fill:#37351e; stroke:none;" d="M43 10L43 15L44 15L43 10z"/>
<path style="fill:#444224; stroke:none;" d="M38 25L39 27L38 25M94 26L94 29L95 29L94 26M3 30L3 34L4 34L3 30z"/>
<path style="fill:#37351e; stroke:none;" d="M47 32L47 36L48 36L47 32z"/>
<path style="fill:#514f2a; stroke:none;" d="M89 38L89 48L90 48L89 38z"/>
<path style="fill:#444224; stroke:none;" d="M3 39L3 43L4 43L3 39z"/>
</svg>
