<?xml version="1.0" standalone="yes"?>
<svg width="66" height="62">
<path style="fill:#040204; stroke:none;" d="M8 4L8 8L6 5L5 5L4 8L8 11L4 11L4 13L8 14L6 17L13 24L13 27L19 34L20 39L26 45L26 51L34 53L34 59L42 60L54 59L64 54L64 46C62.214 46 59.1285 45.7103 58 47C57.4671 47.609 57.6043 50.223 57 51C54.4424 54.2884 44.5323 58.2662 40 56C36.9619 54.4809 36.5572 51.0021 35 49C33.1202 46.5832 30.2037 43.3055 28 40C24.3639 34.5459 23.3542 27.3217 19 22C16.5109 18.9577 12.8655 17.731 11 14L12 13L9 11L12 12L9 8L8 4M4 9L5 10L4 9M1 11L2 12L1 11M7 11L6 12L7 11M3 14L4 15L3 14z"/>
<path style="fill:#848244; stroke:none;" d="M12 19L21 34L21 37L26 42L27 49L33 52C32.2428 47.4567 29.5642 44.8462 27 41C21.9629 33.4444 20.925 23.4625 12 19z"/>
<path style="fill:#474526; stroke:none;" d="M61 47L62 53L63 53L61 47z"/>
<path style="fill:#848244; stroke:none;" d="M59 48L57 54L62 53L62 48L59 48z"/>
<path style="fill:#464425; stroke:none;" d="M35 54L35 59L51 59L51 58L36 58L35 54z"/>
<path style="fill:#74723c; stroke:none;" d="M36 56L36 58L54 57L54 56L36 56z"/>
</svg>
