<?xml version="1.0" standalone="yes"?>
<svg width="55" height="48">
<path style="fill:#040204; stroke:none;" d="M10 4L3 2L3 19L2 35L17 39L23 46C22.1616 40.9694 18.7238 36.9683 14 35C10.2112 33.4213 5.48028 35.9606 3 31C1.6143 28.2286 3.41878 22.3249 4 20C5.23955 15.0418 4 8.13529 4 3L8 7L12 7L12 3L19 10L24 10L24 11L20 11L20 12L22 16L28 16L28 17L22 17L22 18L29 18L29 13C33.4304 13 36.2391 14.0598 40 15C42.4338 15.6085 44.988 14.3904 47 16C50.5537 18.8429 47.9105 27.0448 44 29C42.9485 29.5258 40.2011 29 39 29C36.2821 29 32.6243 29.6561 30 29C27.4574 28.3644 25.7532 26.4589 23 26L31 33L31 36L33 37L34 46L35 46C38.0798 39.8405 32.9448 35.669 32 30C35.3934 30 43.0307 31.4846 46 30C50.382 27.809 51.8193 17.0554 48 14C45.1489 11.7191 40.4735 13.8684 37 13C35.1908 12.5477 31.9575 12.6525 30 12C27.8063 11.2688 26.1937 8.73124 24 8C22.9805 7.66015 20.8768 8.58454 20 8C17.3096 6.20637 16.4633 3.77969 16 1C12.1954 1 11.1829 0.451263 10 4z"/>
<path style="fill:#848244; stroke:none;" d="M4 3L4 25L4 33L13 35L21 41L23 46L34 46C34 41.4337 35.3957 36 30 36L30 31L24 28L19 22C22.5247 23.7623 23.8529 26.4076 28 27L29 29C30.9533 30.0852 36.7023 29 39 29C40.386 29 43.815 29.6463 45 29C47.9302 27.4017 50.6666 18.6666 48 16C46.2656 14.2656 43.2655 15.5664 41 15C36.9283 13.9821 33.7941 13 29 13L29 19C25.4401 19 17 19.1373 17 14C17 13.4706 19.5882 11.4118 20 11L20 10L12 3L12 7L8 7C8 3.50613 7.49388 3 4 3z"/>
<path style="fill:#4f4d2a; stroke:none;" d="M20 10L20 11L24 11L20 10z"/>
<path style="fill:#312f1b; stroke:none;" d="M22 18L19 16L19 13L22 13C18.7422 8.6563 14.5414 14.6561 19 18C19.3902 18.2927 21.4878 18 22 18z"/>
<path style="fill:#fcfefc; stroke:none;" d="M19 13L19 16L21 16L21 13L19 13z"/>
<path style="fill:#949594; stroke:none;" d="M21 13L21 16L22 16L21 13z"/>
<path style="fill:#b3b4b3; stroke:none;" d="M22 16L22 17L28 17L22 16z"/>
<path style="fill:#57552d; stroke:none;" d="M22 18L22 19L29 19L22 18z"/>
<path style="fill:#464425; stroke:none;" d="M3 20L3 32L4 32L3 20z"/>
<path style="fill:#302e1a; stroke:none;" d="M19 22L23 27L24 26L19 22z"/>
<path style="fill:#484626; stroke:none;" d="M26 27L26 28L29 28L26 27z"/>
<path style="fill:#55532d; stroke:none;" d="M30 32L30 36L31 36L30 32z"/>
</svg>
