<?xml version="1.0" standalone="yes"?>
<svg xmlns="http://www.w3.org/2000/svg" width="66" height="62">
<path style="fill:#040204; stroke:none;" d="M57 4L54 12L57 11L54 13L55 15C53.3578 17.1897 49.1049 19.4273 47 22C42.6458 27.3217 41.6361 34.5459 38 40C35.7963 43.3055 32.8798 46.5832 31 49C29.4428 51.0021 29.0381 54.4809 26 56C21.4677 58.2662 11.5576 54.2884 9 51C8.39568 50.223 8.5329 47.609 8 47C6.87148 45.7103 3.78596 46 2 46L2 54L12 59L24 60L32 59L32 53L40 51L40 45L46 39L47 34L53 27L53 24L60 17L58 14L62 13L62 11L58 11L62 8L61 5L60 5L58 8L57 4M61 9L62 10L61 9M60 11L59 12L60 11M64 11L65 12L64 11M62 14L63 15L62 14z"/>
<path style="fill:#848244; stroke:none;" d="M53 19L41 36L40 40L33 52L39 49L40 42L45 37L45 34L52 26L52 23L53 19z"/>
<path style="fill:#474526; stroke:none;" d="M3 47L3 53L4 53L5 47L3 47z"/>
<path style="fill:#848244; stroke:none;" d="M4 48L4 53L9 54L7 48L4 48z"/>
<path style="fill:#464425; stroke:none;" d="M30 54L30 58L15 58L15 59L31 59L30 54z"/>
<path style="fill:#74723c; stroke:none;" d="M12 56L12 57L30 58L30 56L12 56z"/>
</svg>
