<?xml version="1.0" standalone="yes"?>
<svg xmlns="http://www.w3.org/2000/svg" width="164" height="93">
<path style="fill:#040204; stroke:none;" d="M3 29L4 29C4.50732 27.9854 4.97771 25.6389 6 25C8.72467 23.2971 13.0443 22.3526 15 19C17.5698 14.5946 16.9586 7 24 7C25.1916 -0.149818 33.6805 4.32988 39 3C49.1113 0.472176 62.1 2 73 2C76.3225 2 80.7921 2.80198 84 2C90.5573 0.360664 101.484 -0.17205 108 2C106.238 -0.936928 102.687 0 99 0C91.3957 0 84.1352 1 77 1C64.5901 1 49.569 -0.892242 38 2C34.3019 2.92453 27.2031 0.078125 24 2C22.4499 2.93007 22.9186 5.0407 21 6C19.9839 6.50806 17.797 6.08909 17 7L17 9C15.2539 11.4445 15.4859 13.7712 14 16C10.1923 21.7115 3 21.4274 3 29z"/>
<path style="fill:#999a04; stroke:none;" d="M84 1L84 2L107 2L100 1L84 1z"/>
<path style="fill:#363504; stroke:none;" d="M39 2L39 3L64 3L57 2L39 2z"/>
<path style="fill:#fcfe04; stroke:none;" d="M152 23L135 23L131 21L126 20L120 12L116 10L107 6L107 2C87.4002 2 68.1273 3 49 3C42.8853 3 37.8831 4 32 4C30.5533 4 26.1539 3.23074 25 4C24.3007 4.46617 23.418 7.29102 22 8C20.441 8.7795 19.1937 7.81151 18 10C16.9736 11.8817 17.1135 15.0912 16 17C14.3571 19.8165 10.4859 22.3428 8 24C7.53183 24.3121 5.323 24.6309 5 25C4.24517 25.8627 4.39798 28.8061 4 30C1.89883 36.3035 3 44.956 3 52L3 77C3 79.6483 2.11048 84.1105 4 86C6.94766 88.9477 10.2675 87.0669 14 88C15.4562 88.364 17.5438 89.636 19 90C24.5416 91.3854 32.2605 90 38 90L59 90C61.7179 90 65.3757 90.6561 68 90C71.731 89.0673 75.3864 86.9034 79 86C83.7059 84.8235 89.2941 87.1765 94 86C106.252 82.937 119.4 79.8333 131 75C133.803 73.8319 137.078 74.974 140 74C143.784 72.7385 148.12 70.97 152 70C154.578 69.3556 157.092 70.146 159 68C159.424 67.5232 159.626 65.5613 160 65C165.81 56.285 157.553 49.658 155 42C154.612 40.8368 155.495 39.1148 155 38C153.105 33.7354 152 27.9276 152 23z"/>
<path style="fill:#797904; stroke:none;" d="M107 2L109 6L107 2z"/>
<path style="fill:#818104; stroke:none;" d="M25 3L25 4L39 4L25 3z"/>
<path style="fill:#040204; stroke:none;" d="M108 3C108.791 7.74837 113.483 9 118 9L118 8L108 3z"/>
<path style="fill:#929304; stroke:none;" d="M24 4L25 6L24 4z"/>
<path style="fill:#505004; stroke:none;" d="M20 7L20 8L23 8L20 7z"/>
<path style="fill:#767604; stroke:none;" d="M19 8L20 9L19 8M113 8L114 9L113 8z"/>
<path style="fill:#383704; stroke:none;" d="M115 9L115 10L119 11L115 9z"/>
<path style="fill:#040204; stroke:none;" d="M119 10C121.245 23.4697 140.354 23 152 23L153 28L154 28L153 22L149 22L126 18L119 10z"/>
<path style="fill:#8d8d04; stroke:none;" d="M17 11L17 14L18 14L17 11z"/>
<path style="fill:#a4a504; stroke:none;" d="M15 16L16 18L15 16z"/>
<path style="fill:#6c6c04; stroke:none;" d="M125 19L127 20L125 19z"/>
<path style="fill:#b7b804; stroke:none;" d="M127 20L127 21L130 21L127 20z"/>
<path style="fill:#545304; stroke:none;" d="M131 21L131 22L134 22L131 21z"/>
<path style="fill:#9f9f04; stroke:none;" d="M134 22L134 23L141 23L134 22z"/>
<path style="fill:#888804; stroke:none;" d="M153 28L153 36L154 36L153 28z"/>
<path style="fill:#383704; stroke:none;" d="M2 29L2 34L3 34L2 29z"/>
<path style="fill:#838304; stroke:none;" d="M3 29L4 31L3 29z"/>
<path style="fill:#040204; stroke:none;" d="M154 29C154 35.7218 155.039 41.1171 157 47C157.68 49.0397 160.028 50.0561 161 52C162.452 54.9047 162.696 62.1726 161 65C159.292 67.8465 153.434 70.8553 150 72C148.2 72.6 145.8 71.4 144 72C141.707 72.7644 139.398 74.4005 137 75C134.014 75.7465 130.902 75.0328 128 76C126.244 76.5852 124.756 78.4148 123 79C118.692 80.436 114.508 79.8729 110 81C105.595 82.1013 101.262 84.5795 97 86C91.0865 87.9712 84.1765 85.4559 78 87C74.1834 87.9541 70.6283 89.7906 67 91C64.875 91.7083 61.2599 91 59 91L40 91C33.9584 91 25.8333 92.4583 20 91C18.5438 90.636 16.4562 89.364 15 89C11.8786 88.2196 7.57345 88.8014 5 87C0.92722 84.1491 2 76.6957 2 72L2 31L1 31L1 73C1 77.1764 -0.398135 85.357 3 88C5.90173 90.2569 9.46409 89.116 13 90C14.4562 90.364 16.5438 91.636 18 92C25.2916 93.8229 35.448 92 43 92C50.552 92 60.7084 93.8229 68 92C71.8966 91.0259 76.0527 88.9868 80 88C85.8272 86.5432 92.3474 88.4132 98 87C101.614 86.0965 105.482 84.1726 109 83C111.875 82.0417 115.125 82.9583 118 82C122.246 80.5848 126.649 78.0878 131 77C134.109 76.2227 137.892 77.036 141 76C143.004 75.3321 144.924 73.5189 147 73C151.054 71.9866 155.558 72.2945 159 70C163.897 66.7355 164.828 54.8483 162 50C160.091 46.7273 157.902 44.6084 157 41C156.213 37.8507 155.688 30.6883 154 29z"/>
<path style="fill:#e5e604; stroke:none;" d="M2 34L2 83L3 83L3 47L2 34z"/>
<path style="fill:#9fa004; stroke:none;" d="M155 39L155 43L156 43L155 39z"/>
<path style="fill:#7e7e04; stroke:none;" d="M156 43L157 45L156 43z"/>
<path style="fill:#838304; stroke:none;" d="M160 51L160 54L161 54L160 51z"/>
<path style="fill:#606004; stroke:none;" d="M160 64L161 66L160 64z"/>
<path style="fill:#858504; stroke:none;" d="M151 70L153 71L151 70z"/>
<path style="fill:#545304; stroke:none;" d="M148 71L148 72L151 72L148 71z"/>
<path style="fill:#b7b804; stroke:none;" d="M142 72L144 73L142 72z"/>
<path style="fill:#6c6c04; stroke:none;" d="M140 73L142 74L140 73z"/>
<path style="fill:#cfd104; stroke:none;" d="M133 74L133 75L138 75L133 74z"/>
<path style="fill:#858504; stroke:none;" d="M130 75L130 76L133 76L130 75z"/>
<path style="fill:#9d9d04; stroke:none;" d="M124 77L126 78L124 77z"/>
<path style="fill:#525204; stroke:none;" d="M121 78L121 79L124 79L121 78z"/>
<path style="fill:#b5b604; stroke:none;" d="M117 79L119 80L117 79z"/>
<path style="fill:#6b6a04; stroke:none;" d="M113 80L113 81L117 81L113 80z"/>
<path style="fill:#838304; stroke:none;" d="M105 82L107 83L105 82z"/>
<path style="fill:#7c7c04; stroke:none;" d="M98 84L100 85L98 84z"/>
<path style="fill:#505004; stroke:none;" d="M94 85L94 86L98 86L94 85z"/>
<path style="fill:#b3b404; stroke:none;" d="M4 86L6 87L4 86M78 86L78 87L92 87L78 86z"/>
<path style="fill:#696804; stroke:none;" d="M75 87L75 88L78 88L75 87z"/>
<path style="fill:#cccd04; stroke:none;" d="M10 88L10 89L15 89L10 88z"/>
<path style="fill:#818104; stroke:none;" d="M15 89L15 90L19 90L15 89M68 89L70 90L68 89z"/>
<path style="fill:#363504; stroke:none;" d="M19 90L19 91L68 91L55 90L19 90z"/>
</svg>
