<?xml version="1.0" standalone="yes"?>
<svg width="93" height="58">
<path style="fill:#110f0b; stroke:none;" d="M3 53L5 39L5 3L37 3L30 2L11 2L3 3L3 15L3 42L3 53z"/>
<path style="fill:#040204; stroke:none;" d="M48 2L48 41C48 46.4798 49.2525 53 42 53L42 54L48 54L49 41L49 3L91 3L91 48L92 48L92 2L48 2z"/>
<path style="fill:#848244; stroke:none;" d="M5 3L5 34L5 49L4 53L47 56L59 56L89 57L90 3L49 3L49 41C49 44.5029 50.2931 52.0241 47 54C44.0957 55.7426 37.1764 50.3527 36 48C34.6215 45.2429 36 38.1509 36 35L36 3L5 3z"/>
<path style="fill:#32301b; stroke:none;" d="M36 3L36 47L37 47L37 15L36 3z"/>
<path style="fill:#1e1c11; stroke:none;" d="M90 3L90 57L91 57L91 17L90 3z"/>
<path style="fill:#0b0907; stroke:none;" d="M36 47L42 53L36 47z"/>
<path style="fill:#444224; stroke:none;" d="M89 48L89 57L90 57L89 48z"/>
</svg>
