<?xml version="1.0" standalone="yes"?>
<svg width="190" height="113">
<path style="fill:#1f1d12; stroke:none;" d="M175 0C175 2.3333 175.036 6.10069 174 8C173.519 8.8812 171.125 9.78159 171 10L171 12C166.247 17.5454 161.322 24.7797 154 26L154 27C162.668 27 166.575 20.3295 172 14L172 12C172.954 10.6367 174.412 11.5683 175 10C176.056 7.18281 176.71 1.71047 175 0z"/>
<path style="fill:#848244; stroke:none;" d="M176 0C176 7.7849 173.197 10.4035 169 16C167.398 18.1363 164.279 23.6327 162 25C161.26 25.444 159.756 24.58 159 25C156.24 26.5332 156.191 26.5441 153 27L151 29C147.849 30.3128 143.313 29.1717 140 30C138.78 30.3051 134.154 30.3589 133 31L132 33C128.002 33.5712 124.718 33.436 123 30L101 32L86 32L74 33L72 35L37 35C37 42.1131 29.4971 50.7515 23 54C20.8876 55.0562 17.0678 52.8721 15 54C13.1233 55.0237 13.5361 57.0399 12 58C9.9597 59.2752 7.6774 59.4839 6 62C3.90618 65.1407 5.91086 69.3566 5 73C3.83863 77.6455 3 81.6234 3 87C7.50101 87 16.7314 87.0946 20 90C21.4792 91.3148 20.1294 91.9843 21 93C22.1969 94.3964 24.5967 95.0645 26 96C27.5203 97.0136 28.4246 99.081 30 100C35.0445 102.943 39.3864 104.129 45 106C46.5497 106.517 47.4971 108.374 49 109C50.6837 109.702 53.2176 108.554 55 109C62.7799 110.945 72.5153 110 81 110C88.8839 110 96.0055 109.749 103 108C106.137 107.216 109.863 108.784 113 108C119.362 106.409 126.428 104.939 133 104L135 102C137.387 101.005 140.54 101.82 143 101C146.169 99.9438 148.907 97.2889 152 96C161.094 92.2106 169.665 86.1455 175 77C179.148 69.8893 175.277 57.1043 170 53L168 53C164.913 50.3538 158.389 43.7862 161 39C161.66 37.7898 163.529 37.5491 164 37C164.583 36.3196 165.383 33.6175 166 33C167.809 31.1915 171.012 29.4909 173 28C175.453 26.1603 175.599 24.0009 177 22C178.253 20.21 180.6 19.3992 182 17C184.976 11.8978 187 6.46957 187 0L176 0z"/>
<path style="fill:#030103; stroke:none;" d="M187 0L184 15L185 15C186.772 11.4562 190.064 3.06422 187 0z"/>
<path style="fill:#2b2917; stroke:none;" d="M183 12L177 23C180.728 21.7573 186.165 15.1654 183 12z"/>
<path style="fill:#040204; stroke:none;" d="M178 22C172.896 26.0831 164.144 32.1344 163 39L164 39L175 28L178 22z"/>
<path style="fill:#000001; stroke:none;" d="M140 28L140 29L154 27L140 28z"/>
<path style="fill:#494726; stroke:none;" d="M148 28L148 29L152 29L148 28z"/>
<path style="fill:#36341d; stroke:none;" d="M136 30L136 31L145 30L136 30z"/>
<path style="fill:#050304; stroke:none;" d="M123 30C123.821 34.1033 132.573 31.5712 136 31L136 30L123 30z"/>
<path style="fill:#434124; stroke:none;" d="M124 32L124 33L133 33L124 32z"/>
<path style="fill:#010003; stroke:none;" d="M35 35L34 42L25 52C30.335 50.2217 40.1603 40.1603 35 35z"/>
<path style="fill:#484626; stroke:none;" d="M36 35L36 39L37 39L36 35z"/>
<path style="fill:#434123; stroke:none;" d="M162 37L161 46L162 46L162 37z"/>
<path style="fill:#090706; stroke:none;" d="M162 39C162 45.0471 162.285 53 170 53L170 52L163 45L162 39z"/>
<path style="fill:#0d0b09; stroke:none;" d="M18 52L18 53L25 53L18 52z"/>
<path style="fill:#070505; stroke:none;" d="M13 56L18 54C16.084 52.084 13.5693 52.5841 13 56z"/>
<path style="fill:#3c3a20; stroke:none;" d="M18 53L18 54L24 54L18 53z"/>
<path style="fill:#444224; stroke:none;" d="M170 53L172 56L170 53z"/>
<path style="fill:#1a180f; stroke:none;" d="M172 55L172 57L174 57L174 55L172 55z"/>
<path style="fill:#000000; stroke:none;" d="M2 88L11 89L11 88L3 87L4 74L4 66L13 56C-0.414165 58.2357 2 77.1971 2 88z"/>
<path style="fill:#12100b; stroke:none;" d="M174 57L176 62L176 74L165 89C169.598 89 169.122 86.9504 171 84C172.054 82.343 174.267 82.4666 175 81C177.781 75.4371 179.154 60.8658 174 57z"/>
<path style="fill:#504e2a; stroke:none;" d="M4 65L4 74L5 74L4 65z"/>
<path style="fill:#3b391f; stroke:none;" d="M3 74L3 79L4 79L3 74z"/>
<path style="fill:#34321c; stroke:none;" d="M11 88L11 89L17 89L11 88z"/>
<path style="fill:#030103; stroke:none;" d="M14 89C16.2446 93.4891 24.9632 99.1605 30 100L21 93L19 89L14 89z"/>
<path style="fill:#080606; stroke:none;" d="M136 103L136 104L156 96L157 97L165 89L155 95L151 96L136 103z"/>
<path style="fill:#403e22; stroke:none;" d="M19 90L20 93L21 93L21 90L19 90z"/>
<path style="fill:#15130c; stroke:none;" d="M30 100L30 101L37 104L30 100z"/>
<path style="fill:#3c3a20; stroke:none;" d="M133 103L133 104L138 103L133 103z"/>
<path style="fill:#000000; stroke:none;" d="M37 104L37 105L40 105L37 104z"/>
<path style="fill:#070506; stroke:none;" d="M126 105L126 106L136 105L126 105z"/>
<path style="fill:#0c0a08; stroke:none;" d="M40 105L40 106C43.4446 107.148 45.6988 109.624 49 111C51.2457 111.936 54.6224 110.406 57 111C65.085 113.021 77.915 113.021 86 111C91.6818 109.58 98.573 111.357 104 110C108.422 108.894 118.091 111.543 119 107L110 108L97 110L83 110L59 110L52 110L40 105z"/>
<path style="fill:#38361e; stroke:none;" d="M118 106L118 107L126 107L118 106z"/>
<path style="fill:#2d2b18; stroke:none;" d="M113 107L113 108L118 108L113 107z"/>
<path style="fill:#514f2b; stroke:none;" d="M102 108L102 109L110 109L102 108z"/>
<path style="fill:#3b3920; stroke:none;" d="M51 109L51 110L56 110L51 109M95 109L95 110L102 110L95 109z"/>
<path style="fill:#5c5a30; stroke:none;" d="M59 110L59 111L83 111L76 110L59 110z"/>
</svg>
