<?xml version="1.0" standalone="yes"?>
<svg xmlns="http://www.w3.org/2000/svg" width="53" height="95">
<path style="fill:#040204; stroke:none;" d="M21 46C16.6011 46 18 49.0919 18 53L19 53L19 47L39 47L37 54L34 56L34 59L31 65L31 85L39 85C41.0872 85 46.216 84.0269 48 85C50.9032 86.5836 50.5397 91.4762 48 93C46.5395 93.8763 41.7608 93 40 93L20 93C18.1458 93 13.5849 93.8645 12 93C8.96405 91.344 10 86.9212 10 84L9 84C9 86.3592 7.91211 92.6081 10 94C11.4865 94.991 17.1361 94 19 94L42 94C43.6556 94 48.6796 94.8803 50 94C52.8208 92.1195 52.8596 86.0797 50 84C46.3379 81.3367 36.7282 83 32 83L33 63L39 54L40 46C35.6534 45.2756 34.3804 38.5705 32 35C26.245 26.3676 21.7729 17.6593 16 9L17 9C16.1974 6.59206 11.5602 1.28009 9 0C6.78066 -1.10967 3.18495 1.3707 2 3C0.180712 5.50152 -0.103526 16.6894 1 20C3.25238 26.7571 6.92088 35.0262 13 40C15.483 42.0315 18.3538 43.3538 21 46z"/>
<path style="fill:#848244; stroke:none;" d="M35 46C33.5749 37.4492 26.6571 31.9712 24 24L22 23C21.41 22.0167 21.6868 20.0303 21 19C18.5876 15.3813 16.9383 12.428 14 9L14 7C12.3924 4.58857 7.59011 -0.191208 4 3C-0.738547 7.21204 2.8734 16.4936 4 21C6.25969 30.0388 11.2291 36.8194 19 42C20.4794 42.9863 21.4168 45.2084 23 46C25.5448 47.2724 32.0917 46 35 46z"/>
<path style="fill:#808004; stroke:none;" d="M19 47L19 53L20 53L20 48C24.8479 48 35.7298 46.2163 38 50L39 47L33 47L19 47z"/>
<path style="fill:#fcfe04; stroke:none;" d="M20 48L18 55L18 64L13 71L13 77L11 92L39 92L49 92L50 86L30 85L30 66L33 62L33 59L38 53L38 48L20 48z"/>
<path style="fill:#1f1d04; stroke:none;" d="M17 53L16 64L12 68L10 84L11 84L13 78L13 70L17 66L17 53z"/>
<path style="fill:#626104; stroke:none;" d="M18 53L19 55L18 53z"/>
<path style="fill:#5f5f04; stroke:none;" d="M36 53L37 55L36 53z"/>
<path style="fill:#7d7d04; stroke:none;" d="M33 58L34 60L33 58z"/>
<path style="fill:#cdce04; stroke:none;" d="M17 60L17 65L18 65L17 60z"/>
<path style="fill:#838304; stroke:none;" d="M31 63L32 65L31 63z"/>
<path style="fill:#cacb04; stroke:none;" d="M30 65L30 85L31 85L30 65z"/>
<path style="fill:#656504; stroke:none;" d="M13 69L14 71L13 69z"/>
<path style="fill:#8a8a04; stroke:none;" d="M11 81L11 84L12 84L11 81z"/>
<path style="fill:#444304; stroke:none;" d="M10 84L10 92L11 92L10 84z"/>
<path style="fill:#5c5c04; stroke:none;" d="M47 85L49 86L47 85z"/>
<path style="fill:#222104; stroke:none;" d="M11 92L11 93L33 93L11 92z"/>
<path style="fill:#d5d604; stroke:none;" d="M33 92L33 93L49 93L33 92z"/>
</svg>
