<?xml version="1.0" standalone="yes"?>
<svg width="55" height="48">
<path style="fill:#040204; stroke:none;" d="M39 1C38.5367 3.77969 37.6904 6.20637 35 8C34.1232 8.58454 32.0195 7.66015 31 8C28.8063 8.73125 27.1937 11.2688 25 12C23.0425 12.6525 19.8092 12.5477 18 13C14.5265 13.8684 9.85114 11.7191 7 14C3.18074 17.0554 4.61799 27.809 9 30C11.9693 31.4846 19.6066 30 23 30C22.0552 35.669 16.9202 39.8405 20 46L21 46L22 37L24 36L24 33L28 29L36 23C32.1677 23.6387 30.1084 26.3153 26 27L25 29C23.3053 29.8474 18.9367 29 17 29C15.5518 29 12.2675 29.6337 11 29C7.08951 27.0448 4.44634 18.8429 8 16C10.012 14.3904 12.5662 15.6085 15 15C18.7609 14.0598 21.5696 13 26 13L26 18L33 18L33 17L27 17L27 16L33 16L35 12L35 11L31 11L31 10L36 10L43 3L43 7L47 7L51 3C51 8.1353 49.7604 15.0418 51 20C51.5812 22.3249 53.3857 28.2286 52 31C49.601 35.798 44.8612 33.7129 41 35C36.2219 36.5927 32.8029 41.1824 32 46L38 39L53 35L52 19L52 2L45 4C43.8171 0.451271 42.8046 1 39 1z"/>
<path style="fill:#848244; stroke:none;" d="M40 3C39.1379 5.58618 35.1807 8.01257 35 10C34.8129 12.0577 38 12.4598 38 14C38 19.1373 29.5599 19 26 19L26 13C21.2059 13 18.0717 13.9821 14 15C11.7345 15.5664 8.73438 14.2656 7 16C4.33338 18.6666 7.06981 27.4017 10 29C11.3854 29.7557 15.3793 29 17 29C19.0672 29 24.2426 29.9763 26 29L27 27C31.0596 26.4201 32.5284 24.7358 36 23L31 28L25 31L25 36C19.6043 36 21 41.4337 21 46L32 46L34 41L40 36L51 33L51 25L51 3C47.5061 3 47 3.50612 47 7L43 7L43 3L40 3z"/>
<path style="fill:#4f4d2a; stroke:none;" d="M31 10L31 11L35 11L31 10z"/>
<path style="fill:#312f1b; stroke:none;" d="M33 12L33 13L36 13L36 16L33 18C39.7158 18 39.2713 9.90958 33 12z"/>
<path style="fill:#949594; stroke:none;" d="M33 13L33 16L34 16L33 13z"/>
<path style="fill:#fcfefc; stroke:none;" d="M34 13L34 16L36 16L36 13L34 13z"/>
<path style="fill:#b3b4b3; stroke:none;" d="M27 16L27 17L33 17L27 16z"/>
<path style="fill:#57552d; stroke:none;" d="M26 18L26 19L33 19L26 18z"/>
<path style="fill:#464425; stroke:none;" d="M51 20L51 32L52 32L51 20z"/>
<path style="fill:#55532d; stroke:none;" d="M24 32L24 36L25 36L24 32z"/>
</svg>
