<?xml version="1.0" standalone="yes"?>
<svg xmlns="http://www.w3.org/2000/svg" width="34" height="34">
<path style="fill:#040204; stroke:none;" d="M1 12C12.2223 12 26.9246 12.7737 31 25C31.6195 26.8584 31 30.0237 31 32L33 32C33 22.9192 35.8466 9.88494 28 4C24.3591 1.26936 14.4718 -1.25223 10 2C7.77109 3.62103 8.73081 5.4615 7 7C4.01593 9.65251 1 6.29228 1 12z"/>
<path style="fill:#fcfe04; stroke:none;" d="M7 10C10.3623 10 13.9886 10.9962 17 12C18.2 12.4 19.8 11.6 21 12C22.4931 12.4977 23.6723 15.1149 25 16C28.1958 18.1306 31 17.0969 31 22C35.4561 17.5439 29.8845 7.25636 25 4C22.9703 2.64689 15.9421 0.365482 13 2C11.9138 2.60347 9.89939 5.80081 9 7C7.39559 9.13921 7.53962 7.3019 7 10z"/>
<path style="fill:#babb04; stroke:none;" d="M11 3L13 4L11 3z"/>
<path style="fill:#767604; stroke:none;" d="M10 4L11 5L10 4z"/>
<path style="fill:#7f7f04; stroke:none;" d="M27 6L28 7L27 6z"/>
<path style="fill:#878704; stroke:none;" d="M28 7L29 8L28 7z"/>
<path style="fill:#7d7d04; stroke:none;" d="M29 8L30 9L29 8z"/>
<path style="fill:#9f9f04; stroke:none;" d="M3 9L3 11L11 11L3 9z"/>
<path style="fill:#b3b404; stroke:none;" d="M30 9L31 11L30 9z"/>
<path style="fill:#575604; stroke:none;" d="M11 11L11 12L17 12L11 11z"/>
<path style="fill:#bebf04; stroke:none;" d="M19 12L19 13L22 13L19 12z"/>
<path style="fill:#838304; stroke:none;" d="M22 13L23 14L22 13z"/>
<path style="fill:#757504; stroke:none;" d="M23 14L24 15L23 14z"/>
<path style="fill:#787804; stroke:none;" d="M29 18L30 21L31 21L31 18L29 18z"/>
<path style="fill:#777704; stroke:none;" d="M31 22L32 23L31 22z"/>
</svg>
