<?xml version="1.0" standalone="yes"?>
<svg width="164" height="93">
<path style="fill:#040204; stroke:none;" d="M56 1L56 2C62.5161 -0.17205 73.4427 0.360672 80 2C83.2079 2.80198 87.6775 2 91 2C101.9 2 114.889 0.472176 125 3C130.32 4.32988 138.808 -0.149834 140 7C147.041 7 146.43 14.5946 149 19C151.527 23.3319 157.149 24.7237 160 29C161.544 27.4559 161.474 25.0243 159 23C156.278 20.7732 152.251 19.3771 150 16C148.514 13.7712 148.746 11.4445 147 9L147 7C146.203 6.08909 144.016 6.50805 143 6C141.081 5.04069 141.55 2.93008 140 2C136.797 0.078125 129.698 2.92453 126 2C116.18 -0.454948 103.598 1 93 1C89.6775 1 85.2079 1.80199 82 1C75.8305 -0.542366 61.9432 -1.9716 56 1z"/>
<path style="fill:#999a04; stroke:none;" d="M57 1L57 2L80 2L73 1L57 1z"/>
<path style="fill:#aeaf04; stroke:none;" d="M56 2L55 6C57.8082 5.43836 57.5278 3.52777 56 2z"/>
<path style="fill:#fcfe04; stroke:none;" d="M57 2L57 6L48 10L44 12L38 20L33 21L29 23L12 23C12 27.9276 10.8954 33.7354 9 38C8.50454 39.1148 9.38773 40.8368 9 42C6.44734 49.658 -1.81001 56.285 4 65C4.37422 65.5613 4.57616 67.5232 5 68C6.90755 70.146 9.42243 69.3556 12 70C15.8966 70.9741 20.0527 73.0132 24 74C27.0747 74.7687 30.2248 73.6124 33 75C39.6109 78.3055 47.004 79.668 54 82C55.2 82.4 56.8 81.6 58 82C61.8526 83.2842 66.009 85.0022 70 86C74.7059 87.1765 80.2941 84.8235 85 86C88.6136 86.9034 92.269 89.0673 96 90C98.6243 90.6561 102.282 90 105 90L126 90C131.74 90 139.458 91.3854 145 90C146.456 89.636 148.544 88.364 150 88C153.575 87.1063 157.134 88.5478 160 86C161.936 84.279 161 79.522 161 77L161 51C161 43.8162 163.032 31.5436 159 26C156.228 22.1881 150.656 21.5528 148 17C146.887 15.0912 147.026 11.8817 146 10C144.806 7.81149 143.559 8.7795 142 8C140.582 7.291 139.699 4.46619 139 4C137.846 3.23073 133.447 4 132 4C126.117 4 121.115 3 115 3C95.8727 3 76.5998 2 57 2z"/>
<path style="fill:#363504; stroke:none;" d="M100 2L100 3L125 3L118 2L100 2z"/>
<path style="fill:#040204; stroke:none;" d="M55 3L46 8L46 9C49.3811 9 58.4828 6.48284 55 3z"/>
<path style="fill:#818104; stroke:none;" d="M125 3L125 4L139 4L125 3z"/>
<path style="fill:#929304; stroke:none;" d="M139 4L140 6L139 4z"/>
<path style="fill:#505004; stroke:none;" d="M141 7L141 8L144 8L141 7z"/>
<path style="fill:#767604; stroke:none;" d="M144 8L145 9L144 8z"/>
<path style="fill:#353404; stroke:none;" d="M45 11L49 10C47.4722 8.47224 45.5616 8.1918 45 11z"/>
<path style="fill:#0f0d04; stroke:none;" d="M44 10L41 16C43.7159 15.4568 45.9054 11.9054 44 10z"/>
<path style="fill:#8d8d04; stroke:none;" d="M146 11L146 14L147 14L146 11z"/>
<path style="fill:#464504; stroke:none;" d="M39 19L42 16L39 19z"/>
<path style="fill:#a4a504; stroke:none;" d="M148 16L149 18L148 16z"/>
<path style="fill:#040204; stroke:none;" d="M10 28L11 28L12 23L39 19L33 19L15 22L11 22L10 28z"/>
<path style="fill:#6c6c04; stroke:none;" d="M37 19L39 20L37 19z"/>
<path style="fill:#b7b804; stroke:none;" d="M34 20L34 21L37 21L34 20z"/>
<path style="fill:#545304; stroke:none;" d="M30 21L30 22L33 22L30 21z"/>
<path style="fill:#9f9f04; stroke:none;" d="M23 22L23 23L30 23L23 22z"/>
<path style="fill:#888804; stroke:none;" d="M10 28L10 36L11 36L10 28z"/>
<path style="fill:#040204; stroke:none;" d="M9 29L5 48L6 48L8 40L10 38L9 29z"/>
<path style="fill:#838304; stroke:none;" d="M160 29L161 31L160 29z"/>
<path style="fill:#383704; stroke:none;" d="M161 29L161 34L162 34L161 29z"/>
<path style="fill:#040204; stroke:none;" d="M162 31L162 72C162 76.9464 162.997 83.8021 159 87C156.487 89.0103 152.126 88.2186 149 89C147.544 89.3641 145.456 90.6359 144 91C136.708 92.8229 126.552 91 119 91C112.781 91 102.848 92.9493 97 91C93.3717 89.7906 89.8165 87.9541 86 87C79.8235 85.4559 72.9135 87.9712 67 86C62.7384 84.5795 58.4053 82.1013 54 81C49.4916 79.8729 45.3081 80.436 41 79C38.9962 78.3321 37.0755 76.5189 35 76C30.9696 74.9924 27.0591 74.902 23 74C22.1105 73.8023 20.8772 72.2924 20 72C18.2 71.4 15.8 72.6 14 72C10.3829 70.7943 4.86813 68.1136 3 65C0.140666 60.2344 3.21792 53.6925 4 49L3 49C1.82397 51.3521 1 53.1095 1 56C1 59.4027 0.210514 64.3158 2 67C5.47269 72.209 11.7989 71.6997 17 73C19.0755 73.5189 20.9962 75.3321 23 76C26.108 77.036 29.8909 76.2227 33 77C37.3513 78.0878 41.7544 80.5848 46 82C48.8748 82.9583 52.1252 82.0417 55 83C58.5177 84.1726 62.3862 86.0965 66 87C71.6526 88.4132 78.1728 86.5432 84 88C87.9473 88.9868 92.1034 91.0259 96 92C103.875 93.9687 114.844 92 123 92C129.948 92 139.292 93.6771 146 92C147.456 91.636 149.544 90.364 151 90C152.782 89.5544 155.316 90.7015 157 90C159.026 89.1558 162.133 87.0818 163 85C164.093 82.3758 163 76.8845 163 74L163 46C163 41.9423 164.188 33.1883 162 31z"/>
<path style="fill:#e5e604; stroke:none;" d="M161 34L161 83L162 83L162 47L161 34z"/>
<path style="fill:#9fa004; stroke:none;" d="M8 39L8 43L9 43L8 39z"/>
<path style="fill:#7e7e04; stroke:none;" d="M7 43L8 45L7 43z"/>
<path style="fill:#595904; stroke:none;" d="M4 48L4 50L6 48L4 48z"/>
<path style="fill:#838304; stroke:none;" d="M3 51L3 54L4 54L3 51z"/>
<path style="fill:#606004; stroke:none;" d="M3 64L4 66L3 64z"/>
<path style="fill:#898904; stroke:none;" d="M6 68L7 69L6 68z"/>
<path style="fill:#9f9f04; stroke:none;" d="M11 70L13 71L11 70z"/>
<path style="fill:#545304; stroke:none;" d="M13 71L13 72L16 72L13 71z"/>
<path style="fill:#949404; stroke:none;" d="M22 73L24 74L22 73z"/>
<path style="fill:#cfd104; stroke:none;" d="M26 74L26 75L31 75L26 74z"/>
<path style="fill:#858504; stroke:none;" d="M31 75L31 76L34 76L31 75z"/>
<path style="fill:#9d9d04; stroke:none;" d="M38 77L40 78L38 77z"/>
<path style="fill:#525204; stroke:none;" d="M40 78L40 79L43 79L40 78z"/>
<path style="fill:#6b6a04; stroke:none;" d="M47 80L47 81L51 81L47 80z"/>
<path style="fill:#b1b104; stroke:none;" d="M57 82L59 83L57 82z"/>
<path style="fill:#9b9b04; stroke:none;" d="M64 84L66 85L64 84z"/>
<path style="fill:#505004; stroke:none;" d="M66 85L66 86L70 86L66 85z"/>
<path style="fill:#b3b404; stroke:none;" d="M72 86L72 87L86 87L72 86z"/>
<path style="fill:#929304; stroke:none;" d="M158 86L160 87L158 86z"/>
<path style="fill:#696804; stroke:none;" d="M86 87L86 88L89 88L86 87z"/>
<path style="fill:#4c4c04; stroke:none;" d="M156 87L158 88L156 87z"/>
<path style="fill:#cccd04; stroke:none;" d="M149 88L149 89L154 89L149 88z"/>
<path style="fill:#818104; stroke:none;" d="M94 89L96 90L94 89M145 89L145 90L149 90L145 89z"/>
<path style="fill:#363504; stroke:none;" d="M96 90L96 91L145 91L132 90L96 90z"/>
</svg>
