<?xml version="1.0" standalone="yes"?>
<svg xmlns="http://www.w3.org/2000/svg" width="45" height="95">
<path style="fill:#000000; stroke:none;" d="M24 0C21.257 0.914322 20.9296 3.45633 19 5C16.6722 6.86225 12.9459 7.66411 11 11C7.82683 16.4397 7.37437 22.3015 5 28C3.35354 31.9515 1.04547 35.8181 0 40C-0.593979 42.3759 0.544147 44.1766 1 46C2.53124 52.1249 1 60.6563 1 67C1 72.3612 2 77.0216 2 82C2 86.0174 1.43179 91.1108 4 94C5.72102 95.9361 10.478 95 13 95C18.168 95 23.4196 95.1451 28 94C32.9098 92.7725 37.7427 94.7092 42 92C45.4102 89.8298 44.437 84.7185 41 83C37.6472 81.3236 32.1127 84.421 29 82C25.6954 79.4297 27 71.0984 27 67C27 59.3964 24.7515 46.4971 28 40C28.9608 38.0784 31.0392 36.9216 32 35C32.7463 33.5074 32.9425 31.4101 34 30C35.5975 27.87 38.1931 26.4207 39 24C39.7405 21.7784 39.8939 13.1453 39 11C38.045 8.70795 35.5365 7.04864 34 5C31.9121 2.21609 28.5078 -1.50259 24 0z"/>
<path style="fill:#848442; stroke:none;" d="M2 40L20 40C23.4124 40 26.1816 40.3379 28 38C29.8661 35.6007 31.2517 31.6225 33 29C33.9863 27.5206 36.2084 26.5832 37 25C37.6337 23.7325 37 20.4482 37 19C37 12.0979 34.8635 2.31058 27 1C23.2839 0.380646 22.3419 4.29679 20 6C17.7786 7.61555 14.9389 8.09164 13 11C11.5782 13.1327 8.83036 17.5089 8 20C7.18003 22.4599 7.99459 25.613 7 28L5 30C4.0078 33.4727 3.11259 36.6622 2 40z"/>
<path style="fill:#232312; stroke:none;" d="M37 12L37 24L38 24L37 12z"/>
<path style="fill:#444422; stroke:none;" d="M26 38L19 40L2 40L2 41L20 41L27 41L26 38z"/>
<path style="fill:#ffff00; stroke:none;" d="M2 42L2 63C2 66.0202 1.27097 70.0839 2 73C2.36405 74.4562 3.63595 76.5438 4 78C4.89259 81.5704 2.26541 87.8199 4 91C5.72944 94.1706 10.9297 93 14 93C24.3423 93 34.8517 94.4322 43 89C41.5961 80.5763 28.6497 88.949 26 81C25.2029 78.6087 26 74.5431 26 72L26 52C26 49.6408 27.0879 43.3919 25 42C24.0136 41.3424 20.2365 42 19 42L2 42z"/>
<path style="fill:#303000; stroke:none;" d="M2 73L2 77L3 77L2 73z"/>
<path style="fill:#7c7c00; stroke:none;" d="M3 77L3 86L4 86L3 77z"/>
<path style="fill:#b7b700; stroke:none;" d="M26 80L27 82L26 80z"/>
<path style="fill:#7a7a00; stroke:none;" d="M30 84L30 85L40 85L30 84z"/>
<path style="fill:#747400; stroke:none;" d="M42 86L43 87L42 86z"/>
<path style="fill:#7d7d00; stroke:none;" d="M37 91L38 92L37 91z"/>
<path style="fill:#777700; stroke:none;" d="M5 92L6 93L5 92z"/>
<path style="fill:#9a9a00; stroke:none;" d="M6 93L6 94L26 94L6 93z"/>
</svg>
