<?xml version="1.0" standalone="yes"?>
<svg xmlns="http://www.w3.org/2000/svg" width="102" height="76">
<path style="fill:#13110b; stroke:none;" d="M36 2L36 3L61 4L68 8C59.9959 8 51.8426 15.6295 50 23C49.198 26.2079 50 30.6775 50 34C50 36.8261 49.1142 41.3426 50 44C50.7364 46.2092 52.0686 48.8267 53 51L55 53C54.8046 55.3452 48.8551 57.7173 48 59C46.9551 60.5673 47.7937 70.0953 49 71C49.8694 71.6521 53.8517 71 55 71L55 70C46.3483 70 49.6561 57.1146 56 55C57.0409 54.653 58.7865 58.6157 59 59C59.77 60.386 60.4103 61.1534 60 63C59.7327 64.2028 58.4212 65.7364 58 67C60.1794 66.5641 63.3187 62.1649 62 59C59.9026 53.9663 55.2692 51.5384 53 47C51.4668 43.9336 52.8481 40.3924 52 37C51.2622 34.0488 50.1192 29.5233 51 26C52.6802 19.2792 58.1078 12.2974 65 10C67.9234 9.02552 72.891 10 76 10C80.6369 10 85.5762 10.1469 89 13C94.2454 17.3712 94.7465 22.1198 98 27L96 19L87 9L72 8L68 4L62 2L36 2z"/>
<path style="fill:#040204; stroke:none;" d="M6 74L7 74C7 67.9285 7.36286 61.4515 6 56C5.6151 54.4604 6.50028 52.5008 6 51C3.74409 44.2323 1.09603 39.6159 3 32C4.65545 25.3782 2.23237 16.8838 10 13C10.8044 12.5978 12.1762 13.3661 13 13C20.5556 9.64194 28.9912 8.67255 36 4L23 8L8 12L3 21L1 25L1 39L1 45L6 59L6 74z"/>
<path style="fill:#424023; stroke:none;" d="M36 3L36 4L41 4L36 3z"/>
<path style="fill:#848244; stroke:none;" d="M8 75L34 74L51 73L70 72L94 70C93.5426 67.2555 90.3104 63.3793 92 60C92.7554 58.4892 95.4702 57.5895 96 56C98.0583 49.8253 100.803 39.2129 99 32C97.2974 25.1898 95.8242 16.5494 89 12C85.6943 9.7962 80.2607 10 76 10C65.7133 10 56.238 10.8288 52 21C50.0208 25.7501 50.8117 33.2469 52 38C52.8481 41.3924 51.4668 44.9336 53 48C55.1388 52.2776 59.9507 55.0818 62 60C63.6107 63.8656 54.0588 73.4352 50 71C48.0973 69.8584 46.6626 62.229 48 60C49.8147 56.9755 55.7908 56.3723 54 51C53.0909 48.2728 50.9091 45.7272 50 43C49.3996 41.1987 50.462 38.8479 50 37C46.7485 23.9938 54.5389 10.2435 68 8C67.1544 2.92638 55.8784 3 51 3C45.7963 3 39.6985 2.43385 35 4C32.7456 4.75148 31.187 7.08877 29 8C27.8602 8.47491 26.1757 7.6081 25 8C22.7199 8.76005 20.3184 10.4204 18 11C14.0662 11.9834 8.6081 12.0878 6 16C2.98275 20.5259 4.31811 25.7276 3 31C0.976995 39.092 3.59692 44.7908 6 52C6.50028 53.5008 5.6151 55.4604 6 57C7.44996 62.7998 8 68.4465 8 75z"/>
<path style="fill:#424023; stroke:none;" d="M56 3L56 4L61 4L56 3z"/>
<path style="fill:#454324; stroke:none;" d="M3 23L4 25L3 23z"/>
<path style="fill:#514f2b; stroke:none;" d="M49 25L49 37L50 37L49 25z"/>
<path style="fill:#454324; stroke:none;" d="M98 27L98 32L99 32L98 27z"/>
<path style="fill:#040204; stroke:none;" d="M99 27C99 37.1736 98.9452 46.1643 96 55C95.4702 56.5895 92.7554 57.4892 92 59C90.2554 62.4891 92.3624 67.6812 95 69C94.6395 66.8372 92.766 62.468 94 60C94.7554 58.4892 97.4702 57.5895 98 56C98.8729 53.3814 98.3181 50.7274 99 48C100.388 42.4487 103.372 31.3722 99 27z"/>
<path style="fill:#454324; stroke:none;" d="M98 43L98 46L99 46L98 43M3 44L4 46L3 44z"/>
<path style="fill:#434124; stroke:none;" d="M54 52L55 54L54 52z"/>
<path style="fill:#474525; stroke:none;" d="M61 62L62 64L61 62z"/>
<path style="fill:#2c2a18; stroke:none;" d="M7 64L7 75L8 75L7 64z"/>
<path style="fill:#040204; stroke:none;" d="M55 70L58 67L55 70z"/>
</svg>
