<?xml version="1.0" standalone="yes"?>
<svg width="93" height="58">
<path style="fill:#040204; stroke:none;" d="M35 2L35 3C41.8875 3 51.8686 -0.377125 59 2C70.5997 5.86656 81.5297 12.0593 87 23C88.2606 25.5212 90.3182 27.2729 91 30C91.5974 32.3896 90.3254 34.0475 90 36C88.903 42.5821 90 50.3135 90 57C90.8922 56.1078 92.5468 49.1871 92 47C91.5967 45.3868 90.4621 44.1517 91 42C91.8952 38.4193 93.3665 31.0996 92 27C87.6421 13.9263 74.1987 5.06625 62 1C58.5447 -0.151779 52.6747 1 49 1C44.2114 1 39.1948 0.601719 35 2z"/>
<path style="fill:#848244; stroke:none;" d="M3 52L16 54L32 54L50 55L74 56L89 57C89 54.0333 90.4018 50.4106 90 48C89.7009 46.2057 88.4042 44.383 89 42C89.9194 38.3225 92.0681 33.2725 91 29C90.2985 26.1941 88.2885 22.577 87 20C84.7607 15.5213 79.9405 12.9554 76 10C66.6537 2.99026 51.3547 -1.11822 39 3C37.8243 3.3919 36.1398 2.52509 35 3C30.2199 4.9917 23.8812 9.50692 20 13C17.9827 14.8156 17.5081 18.1148 16 20C14.4752 21.906 12.2855 22.429 11 25C6.92336 33.1533 4.53391 42.7965 3 52z"/>
<path style="fill:#0b0908; stroke:none;" d="M31 4L31 5L35 4L31 4z"/>
<path style="fill:#040204; stroke:none;" d="M1 52L3 52L6 39L13 23L16 21L19 15L31 5C24.149 6.14184 19.7451 12.0065 16 17C14.6123 18.8502 12.2812 20.0782 11 22C9.168 24.748 9.23619 28.0331 8 31C7.09141 33.1806 4.90859 34.8194 4 37C3.52509 38.1398 4.3919 39.8243 4 41C2.83966 44.481 2.18307 48.4508 1 52z"/>
<path style="fill:#3e3c21; stroke:none;" d="M89 41L89 48L90 48L89 41M3 46L3 50L4 50L3 46M89 50L89 57L90 57L89 50z"/>
</svg>
