<?xml version="1.0" standalone="yes"?>
<svg xmlns="http://www.w3.org/2000/svg" width="190" height="113">
<path style="fill:#060405; stroke:none;" d="M2 0L4 11L4 14L7 16L11 23L20 31L14 24L13 21L8 16L7 12L3 6L2 0z"/>
<path style="fill:#848244; stroke:none;" d="M3 0C3 6.46954 5.02371 11.8978 8 17C9.39955 19.3992 11.747 20.21 13 22C15.0398 24.914 17.2994 28.8995 20 31C20.4545 31.3535 22.6167 31.6167 23 32C24.3162 33.3162 24.9094 35.7277 26 37C26.4706 37.549 28.3399 37.7898 29 39C33.2927 46.8699 19.9508 52.2062 17 56L17 58C10.1504 65.9911 14.7927 77.0569 20 84C22.166 86.8879 25.2773 89.0552 28 91L30 91C31.6571 92.0545 31.5334 94.2667 33 95C41.153 99.0765 50.3559 102.119 59 105C62.8253 106.275 67.0041 105.001 71 106C86.3884 109.847 102.996 110 120 110C125.168 110 130.42 110.145 135 109C136.484 108.629 138.598 109.584 140 109L142 107C145.359 106.04 148.842 105.404 152 104C153.197 103.468 153.864 101.662 155 101C159.34 98.4684 165.122 96.8776 169 93C169.764 92.2363 168.7 91.1554 170 90C172.654 87.641 178.641 87.8397 182 87C183.47 86.6326 186.048 87.2689 187 86C189.099 83.2012 185.598 75.3937 185 73C184.307 70.2278 185.901 66.7022 185 64C183.824 60.4734 180.605 59.6282 178 58C176.464 57.0399 176.877 55.0237 175 54C172.932 52.8721 169.112 55.0562 167 54C160.503 50.7515 153 42.1131 153 35L128 35C125.378 35 120.385 35.9939 118 35L116 33C108.316 31.9023 100.789 32 93 32C89.6775 32 85.2079 32.802 82 32C78.6433 31.1608 72.3775 30 69 30C66.8316 30 66.7858 32.4047 65 33C61.3105 34.2298 58.7298 32.1374 56 31C54.5978 30.4157 52.4843 31.3711 51 31C46.3926 29.8482 42.1395 29.7342 37 29L36 27C35.4555 26.5463 33.6704 27.2793 33 27C26.5355 24.3065 22.0317 18.0476 18 12C17.0137 10.5206 14.7916 9.58316 14 8C13.1526 6.30526 14 1.9367 14 0L3 0z"/>
<path style="fill:#0a0807; stroke:none;" d="M14 0L14 9L22 17L19 10L16 8L14 0z"/>
<path style="fill:#13110b; stroke:none;" d="M22 17L27 25L30 25L32 27L50 29L50 28L30 24L22 17z"/>
<path style="fill:#494726; stroke:none;" d="M36 28L36 29L42 29L36 28z"/>
<path style="fill:#35331c; stroke:none;" d="M45 29L45 30L54 31L45 29z"/>
<path style="fill:#050304; stroke:none;" d="M54 30L54 31L68 31L54 30z"/>
<path style="fill:#16140d; stroke:none;" d="M20 31L26 39L27 39C26.2593 34.5557 24.3369 31.7228 20 31z"/>
<path style="fill:#434124; stroke:none;" d="M57 32L57 33L66 33L57 32z"/>
<path style="fill:#484626; stroke:none;" d="M153 35L153 39L154 39L153 35z"/>
<path style="fill:#010003; stroke:none;" d="M154 35C154 42.7543 157.281 49.427 165 52L156 42L154 35z"/>
<path style="fill:#434123; stroke:none;" d="M27 37L28 46L29 46L27 37z"/>
<path style="fill:#000002; stroke:none;" d="M27 39L27 46L28 46L27 39z"/>
<path style="fill:#444224; stroke:none;" d="M16 59L17 59L23 53L28 46L21 52L16 55L16 59z"/>
<path style="fill:#0d0b09; stroke:none;" d="M165 52L165 53L172 53L165 52z"/>
<path style="fill:#3c3a20; stroke:none;" d="M166 53L166 54L172 54L166 53z"/>
<path style="fill:#070505; stroke:none;" d="M172 53L172 54L177 56C176.425 52.5516 175.35 53 172 53z"/>
<path style="fill:#0c0a08; stroke:none;" d="M177 56L184 63L187 80L187 85L171 89L169 93L154 101L151 104L141 107L138 110L131 110L106 110L71 107L76 109L101 111L133 111L141 111L146 107L166 98L177 89L182 89L188 88C188 77.1971 190.414 58.2357 177 56z"/>
<path style="fill:#12100b; stroke:none;" d="M15 57C11.8585 63.283 11.854 74.7081 15 81C15.7333 82.4666 17.9455 82.3429 19 84C20.8776 86.9505 20.4016 89 25 89L14 74L14 62L15 57z"/>
<path style="fill:#504e2a; stroke:none;" d="M185 65L185 74L186 74L185 65z"/>
<path style="fill:#3b391f; stroke:none;" d="M186 74L186 79L187 79L186 74z"/>
<path style="fill:#3e3c21; stroke:none;" d="M25 89L27 90L25 89z"/>
<path style="fill:#040204; stroke:none;" d="M26 90L33 97L35 96L36 98L41 99L41 98L34 95L26 90z"/>
<path style="fill:#413f22; stroke:none;" d="M169 90L169 93L170 93L171 90L169 90z"/>
<path style="fill:#59572e; stroke:none;" d="M29 91L32 93L29 91z"/>
<path style="fill:#000000; stroke:none;" d="M41 99L41 100L64 106L64 105L41 99z"/>
<path style="fill:#38361e; stroke:none;" d="M64 106L64 107L72 107L64 106z"/>
<path style="fill:#2d2b18; stroke:none;" d="M72 107L72 108L77 108L72 107z"/>
<path style="fill:#514f2b; stroke:none;" d="M80 108L80 109L88 109L80 108z"/>
<path style="fill:#3b3920; stroke:none;" d="M88 109L88 110L96 110L88 109M134 109L134 110L139 110L134 109z"/>
<path style="fill:#5c5a30; stroke:none;" d="M107 110L107 111L131 111L124 110L107 110z"/>
</svg>
