<?xml version="1.0" standalone="yes"?>
<svg width="128" height="44">
<path style="fill:#040204; stroke:none;" d="M8 28L9 28L8 37L10 37L10 25L7 29C0.713048 27.9522 1.69063 22.6547 7 20C8.05967 19.4702 9.86693 20.3777 11 20C19.0503 17.3166 28.9775 19.6742 37 17C39.0528 16.3157 40.0842 14.1175 42 13L44 13C47.8272 9.71958 52.4433 6.51889 57 5C61.7775 3.40749 68 7.71803 68 12C63.4641 12 61.7457 14.4393 58 16C54.5404 17.4415 50.5191 18.827 47 20C44.4547 20.8484 40.8024 21.0578 40 24C39.5276 25.7322 40.7162 25.7231 41 27C41.2578 28.1603 40.5218 29.924 41 31C42.4196 34.1941 47.7779 42.4814 53 39C56.5511 36.6326 54.5057 30.034 54 27C53.6066 24.6398 57.0197 18.1882 59 17C59.9842 16.4095 61.9421 17.4702 63 17C65.544 15.8693 67.4272 13.072 70 12C73.5216 10.5327 79.1977 12.6337 83 12C91.828 10.5287 102.348 10.8371 111 13C114.976 13.9941 121.469 14.0233 124 18C125.415 20.2235 124.415 23.3662 125 26C125.244 27.0974 126.658 27.4207 126 29C124.818 31.8369 119.43 35.1901 117 36C114.058 36.9806 112.177 34.9069 110 34C105.914 32.2975 98.9899 28.9798 97 25L96 25L95 43L96 43L97 29C105.221 31.7403 109.204 39.2652 119 36C119.843 35.7189 121.21 36.3949 122 36C129.426 32.2868 127.254 23.4104 125 18C124.228 16.1479 124.424 14.2122 122 13C119.367 11.6833 114.905 12.7264 112 12C102.716 9.679 92.3785 10 82 10C77.7687 10 72.5541 9.22295 69 11C69 10.3898 69.3896 7.38964 69 7C66.4133 4.41328 59.1387 2.62045 55 4C46.1116 6.9628 39.2118 14.6971 30 17C21.8898 19.0275 12.1478 14.8305 5 19C2.41292 20.5091 -0.589611 24.8208 1 28C2.98645 31.9729 7.30734 32.156 8 28z"/>
<path style="fill:#39371e; stroke:none;" d="M56 5L56 6L63 6L56 5z"/>
<path style="fill:#848244; stroke:none;" d="M7 29L11 24L9 38L43 41L60 41L95 43L96 25L97 25C97.6603 28.9616 101.087 28.8155 104 31C104.992 31.7438 105.875 33.5002 107 34C112.268 36.3415 122.937 36.1269 126 30C126.977 28.0453 125.259 25.5552 125 24C124.632 21.7896 125.225 18.7501 124 17C122.77 15.2433 120.744 15.5814 119 15C117.834 14.6112 116.18 13.2622 115 13C112.152 12.3671 108.828 13.707 106 13C97.7227 10.9307 89.6369 11.2803 81 12C77.6362 12.2803 72.0762 10.7182 69 12C66.4272 13.072 64.544 15.8693 62 17C60.9776 17.4544 58.9188 16.3875 58 17C51.3345 21.4436 59.0676 35.145 52 39C45.9569 42.2962 39.6838 28.7943 40 25C40.29 21.52 45.5315 20.8228 48 20C54.6714 17.7762 60.9823 13.1696 68 12C68 11.4607 68.3565 8.29711 68 8C65.5149 5.9291 57.6615 4.77949 54 6C50.0423 7.31924 46.3403 10.1369 43 13L41 13C39.0842 14.1175 38.0528 16.3157 36 17C27.9775 19.6742 18.0503 17.3166 10 20C8.86693 20.3777 7.05967 19.4702 6 20C0.661999 22.669 0.642848 29 7 29z"/>
<path style="fill:#3b391f; stroke:none;" d="M105 12L105 13L111 13L105 12z"/>
<path style="fill:#040204; stroke:none;" d="M55 19L53 25L54 29L53 38C46.0481 38 44.4976 34.9903 43 29C42.6954 27.7814 41.0525 25.7371 42 24C43.382 21.4663 44.872 22.532 47 22C49.8067 21.2983 51.961 19.5065 55 19z"/>
<path style="fill:#454325; stroke:none;" d="M8 26L10 25L10 36L11 36L11 24L8 26z"/>
<path style="fill:#3d3b20; stroke:none;" d="M54 24L54 28L55 28L54 24z"/>
<path style="fill:#53512c; stroke:none;" d="M112 35L112 36L118 36L112 35z"/>
</svg>
