<?xml version="1.0" standalone="yes"?>
<svg xmlns="http://www.w3.org/2000/svg" width="45" height="95">
<path style="fill:#040204; stroke:none;" d="M8 11L9 11C10.502 8.74707 13.2339 3.15253 16 2C19.585 0.506248 24.4633 8.0975 27 10C34.0619 15.2964 34.3202 24.9605 37 33C38.2011 36.6034 41.1172 40.5311 40 45C39.3451 47.6196 39.0556 51.4665 38 54C37.3674 55.5181 35.6727 56.4864 35 58C32.6142 63.3681 31 68.5922 31 75C33.0424 72.9576 33.349 66.3019 35 63C36.081 60.838 38.0765 59.2165 39 57C40.583 53.2007 39.9774 49.0905 41 45C41.4033 43.3867 42.5379 42.1517 42 40C41.2046 36.8184 39.9442 33.3048 39 30L37 28C36.5291 26.8699 37.4966 25.1173 37 24C35.064 19.644 33.7973 13.8463 31 10C27.934 5.78423 19.8894 -0.96312 14 1C12.34 1.55334 11.7038 4.06155 11 5C9.07017 7.57311 8 7.6468 8 11z"/>
<path style="fill:#3f3d22; stroke:none;" d="M15 2L17 3L15 2z"/>
<path style="fill:#848244; stroke:none;" d="M17 2C9.94862 3.17523 8 12.6127 8 19C8 20.4482 7.36627 23.7326 8 25C8.79172 26.5834 11.2826 27.3857 12 29C18.0735 42.6654 26.1825 55.27 22 72C21.3135 74.7461 23.3341 79.5541 22 82C20.0309 85.61 11.6019 84 8 84C6.31444 84 4.06069 83.409 3 85C1.16413 87.7538 6.30741 90.2948 8 91C10.1664 91.9027 13.661 90.6102 16 91C20.6702 91.7784 25.7706 92 31 92C32.09 92 35.0954 92.5428 36 92C37.5384 91.077 39.1396 85.8993 38 84C36.6958 81.8264 32.4097 80.8193 31 78C30.2761 76.5523 30.4788 69.5635 31 68C32.5159 63.4522 36.4907 59.5279 38 55C38.4 53.8 37.6 52.2 38 51C39.1484 47.5548 41.0667 43.2668 40 39C39.0213 35.0851 36.5389 31.6935 35 28C33.8989 25.3574 34.9041 21.7122 34 19C33.2346 16.7039 31.0941 15.1882 30 13L30 11C28.2925 9.57709 25.628 8.33201 24 7C21.5474 4.99329 20.9721 1.33798 17 2z"/>
<path style="fill:#292716; stroke:none;" d="M7 11L7 24L8 24L9 11L7 11z"/>
<path style="fill:#040204; stroke:none;" d="M6 12L6 24L10 29L17 44L21 52L21 82L9 82C7.79887 82 5.0515 81.4743 4 82C-0.170181 84.0851 0.260216 88.8185 4 91C8.06778 93.3729 12.9211 93 18 93L18 92C13.5085 92 9.57567 92.0858 6 90C2.63687 88.0382 2.2611 84.8694 6 83C9.39366 81.3032 18.1216 83 22 83L21 46L12 30L12 28L7 23L6 12z"/>
<path style="fill:#32301b; stroke:none;" d="M35 25L35 29L36 29L35 25z"/>
<path style="fill:#494726; stroke:none;" d="M38 50L39 52L38 50z"/>
<path style="fill:#444224; stroke:none;" d="M31 67L32 69L31 67M22 70L23 72L22 70M31 75L31 79L32 79L31 75z"/>
<path style="fill:#1b190f; stroke:none;" d="M32 75L32 80L38 85L35 92L30 92L18 92L18 94L31 94C32.2011 94 34.9485 94.5257 36 94C38.7044 92.6478 41.5264 87.0527 40 84C38.495 80.99 34.8294 80.4393 33 78C32.1007 76.8009 32.9598 75.9598 32 75z"/>
<path style="fill:#53512c; stroke:none;" d="M5 83L5 84L21 84L5 83z"/>
<path style="fill:#484626; stroke:none;" d="M5 89L7 90L5 89z"/>
<path style="fill:#4f4d29; stroke:none;" d="M9 91L9 92L18 92L9 91z"/>
</svg>
