<?xml version="1.0" standalone="yes"?>
<svg xmlns="http://www.w3.org/2000/svg" width="98" height="59">
<path style="fill:#040204; stroke:none;" d="M8 58L9 58C9 53.7017 8.62827 49.7696 8 46C7.48713 42.9228 8.98083 38.9425 8 36C7.01527 33.0458 4.19486 30.8677 3 28C2.29848 26.3163 3.4456 23.7824 3 22C0.914086 13.6563 4.82698 9.18426 12 5C14.3899 3.60588 17.7071 1.90237 21 3C26.5517 4.85056 30.0972 9.3229 35 13C42.0346 18.276 47.7881 25.2915 51 33C51.8038 34.929 50.3481 36.6075 50 38C49.4501 40.1996 50.4923 42.7847 50 45C49.6955 46.3702 48.7009 46.2054 49 48C49.6198 51.719 51.1258 57.9371 57 55C61.2693 52.8653 62.0737 48.7052 63 45C63.2844 43.8625 64.7468 42.1394 65 41C65.7504 37.623 63.4982 34.5683 62 32C60.2634 29.0229 59.33 25.1921 58 22C56.9535 19.4885 52.3913 14.2175 54 11C55.8041 7.39174 63.2836 5.17414 67 6C67.8894 6.19765 69.1228 7.70761 70 8C72.6135 8.87115 75.5527 7.77637 78 9C84.9353 12.4676 88.7829 19.5657 92 26C92.911 27.822 94.5106 29.0424 95 31C96.9125 38.6499 92.5802 45.7407 95 53C97.1641 50.8359 94.1191 48.5238 95 45C95.2844 43.8625 96.7468 42.1394 97 41C97.6938 37.8781 96.6374 34.5495 96 32C93.6842 22.7366 89.1921 12.5961 80 8C76.7663 6.38314 73.6013 6.90032 70 6C67.5064 5.37659 64.0621 4.23447 61 5C58.7513 5.56218 54.3322 6.55766 53 9C51.7605 11.2725 53.3651 17.0952 54 19C56.6954 27.0862 64.214 34.1438 62 43C61.0737 46.7052 60.2693 50.8653 56 53C51.2668 55.3666 50.265 47.9402 51 45C51.2844 43.8625 52.7468 42.1394 53 41C54.1976 35.6106 50.7655 31.2371 49 27C43.8439 14.6254 31.8764 4.2191 19 1C16.3517 0.337914 14.0767 2.13472 12 3C11.0698 3.38757 8.77826 3.48116 8 4C1.1418 8.57213 -1.00476 17.9809 1 26C1.96122 29.8449 4.50858 32.4206 6 36C6.47491 37.1398 5.6081 38.8243 6 40C7.80435 45.413 8 51.9157 8 58z"/>
<path style="fill:#424023; stroke:none;" d="M14 3L16 4L14 3z"/>
<path style="fill:#848244; stroke:none;" d="M9 58L36 57L53 57L95 54C95 51.2387 94 49.7613 94 47C94 41.698 95.1706 37.6824 94 33C93.5544 31.2176 94.7015 28.6836 94 27C92.2072 22.6973 88.5929 20.0746 86 16L86 14C83.9066 12.6044 81.3494 10.1747 79 9C76.5528 7.77639 73.6134 8.87115 71 8C70.1228 7.7076 68.8895 6.19766 68 6C64.8231 5.29402 56.6005 6.33257 55 9C53.6951 11.1749 55.2626 17.2303 56 19C56.845 21.0281 57.2944 22.8831 58 25L60 26C60.7663 27.2772 60.4124 29.5897 61 31C62.1003 33.6408 64.7534 36.0404 65 39C65.1415 40.6977 63.3789 42.4844 63 44C61.9616 48.1535 61.5406 49.7545 58 53C56.6165 54.2682 54.2162 56.2088 52 55C49.1382 53.439 50.2196 50.6356 50 48C49.8684 46.421 49.3949 41.7231 50 39C50.3045 37.6298 51.2991 37.7946 51 36C50.1854 31.1124 47.725 25.0874 45 21C42.847 17.7705 38.7301 15.0476 36 13C28.3799 7.28493 21.9658 0.678074 12 4C9.99058 4.66981 8.77643 6.66768 7 8C4.89773 9.5767 2.92715 11.2186 2 14C1.04486 16.8654 2.42043 20.6817 3 23C3.59267 25.3707 3.23285 27.6986 4 30C5.05396 33.1619 7.94603 35.8381 9 39C10.6835 44.0505 9 52.6288 9 58z"/>
<path style="fill:#424023; stroke:none;" d="M18 3L18 4L22 4L18 3z"/>
<path style="fill:#37351e; stroke:none;" d="M54 10L54 15L55 15L54 10z"/>
<path style="fill:#444224; stroke:none;" d="M59 25L60 27L59 25M3 26L3 29L4 29L3 26M94 30L94 34L95 34L94 30z"/>
<path style="fill:#37351e; stroke:none;" d="M50 32L50 36L51 36L50 32z"/>
<path style="fill:#514f2a; stroke:none;" d="M8 38L8 48L9 48L8 38z"/>
<path style="fill:#444224; stroke:none;" d="M94 39L94 43L95 43L94 39z"/>
</svg>
