<?xml version="1.0" standalone="yes"?>
<svg xmlns="http://www.w3.org/2000/svg" width="128" height="44">
<path style="fill:#040204; stroke:none;" d="M59 11C55.4459 9.22295 50.2313 10 46 10C35.6215 10 25.284 9.679 16 12C13.0945 12.7264 8.63344 11.6833 6 13C3.57556 14.2122 3.77169 16.1479 3 18C0.745678 23.4104 -1.42643 32.2868 6 36C6.7897 36.3949 8.15665 35.7189 9 36C18.7955 39.2652 22.7792 31.7403 31 29L32 43L33 43L32 25L31 25C28.7468 28.7554 22.2021 32.2491 18 34C15.8235 34.9069 13.9417 36.9806 11 36C8.57033 35.1901 3.18203 31.8369 2 29C1.34198 27.4207 2.75613 27.0974 3 26C3.58529 23.3662 2.58504 20.2235 4 18C7.9844 11.7388 16.8257 14.5436 23 13C29.7215 11.3196 36.9192 10.2298 44 12C47.7647 12.9412 52.2353 11.0588 56 12C58.7235 12.6809 60.5293 14.5588 63 16C65.0653 17.2047 68.2403 16.2403 70 18C75.2881 23.2881 73 30.5843 73 38L75 38L73 19L86 25L84 34L85 34C86.605 31.5925 89.4869 24.4869 87 22C84.8739 19.874 81.5463 21.061 79 20C77.4971 19.3738 76.5497 17.5166 75 17C73.3752 16.4584 71.5652 16.6522 70 16C66.2543 14.4393 64.5359 12 60 12C60 7.44378 66.1811 3.39368 71 5C73.2961 5.76537 74.8118 7.90588 77 9C79.7328 10.3664 83.3794 11.4713 86 13C87.9158 14.1175 88.9473 16.3158 91 17C99.0225 19.6742 108.95 17.3166 117 20C118.133 20.3777 119.94 19.4702 121 20C126.309 22.6547 127.287 27.9522 121 29L118 25L118 37L120 37L119 28C119.425 28.6378 120.24 30.715 121 31C125.426 32.6596 128.178 26.534 127 23C126.698 22.0926 123.844 19.4922 123 19C115.852 14.8305 106.11 19.0275 98 17C88.7882 14.6971 81.8884 6.9628 73 4C68.8614 2.62045 61.5867 4.41328 59 7C58.6104 7.38964 59 10.3898 59 11z"/>
<path style="fill:#39371e; stroke:none;" d="M65 5L65 6L72 6L65 5z"/>
<path style="fill:#848244; stroke:none;" d="M60 12C66.6615 13.1102 71.9294 17.4706 78 20C80.9595 21.2331 84.8037 19.8624 87 23C89.9333 27.1904 83.034 41.3447 76 39C68.6846 36.5615 76.5826 21.3884 70 17C69.0812 16.3875 67.0224 17.4544 66 17C62.851 15.6005 60.374 12.8435 57 12C53.2353 11.0588 48.7647 12.9412 45 12C37.4152 10.1038 29.1877 11.2031 22 13C19.1719 13.707 15.8483 12.3671 13 13C11.8201 13.2622 10.1663 14.6112 9 15C7.2558 15.5814 5.22973 15.2432 4 17C2.7749 18.7501 3.36841 21.7896 3 24C2.74079 25.5552 1.02265 28.0453 2 30C5.06347 36.1269 15.7316 36.3415 21 34C22.1246 33.5002 23.0083 31.7438 24 31C26.7745 28.9191 30.3141 28.4295 31 25L32 25L33 43L68 41L85 41L119 38L117 24L121 29C127.357 29 127.338 22.669 122 20C120.94 19.4702 119.133 20.3777 118 20C109.95 17.3166 100.022 19.6742 92 17C89.9473 16.3158 88.9158 14.1175 87 13C84.3747 11.4686 80.8099 10.2489 78 9C76.4866 8.32736 75.567 6.52232 74 6C70.5285 4.84283 62.2486 5.7514 60 8C59.6104 8.38964 60 11.3898 60 12z"/>
<path style="fill:#3d3b20; stroke:none;" d="M73 24L73 28L74 28L73 24z"/>
<path style="fill:#454325; stroke:none;" d="M117 24L117 36L118 36L119 25L120 26L117 24z"/>
<path style="fill:#2d2b18; stroke:none;" d="M75 38L75 39C80.0831 39 82.624 38.752 85 34L75 38z"/>
<path style="fill:#53512c; stroke:none;" d="M10 35L10 36L16 36L10 35z"/>
</svg>
