<?xml version="1.0" standalone="yes"?>
<svg width="48" height="93">
<path style="fill:#040204; stroke:none;" d="M20 68L21 68L15 54L12 46L22 30L28 17L30 16L32 11L38 4L41 1L45 6C47.9904 3.00963 40.7056 -2.29384 37 1C35.3696 2.44929 32.7643 4.94164 31 7L32 9C31.7465 10.1406 28.1996 13.2006 27 15C23.1824 20.7264 20.8852 28.1721 17 34C13.7705 38.8442 8.07786 45.9869 11 53C13.3264 58.5835 18.9632 61.7793 20 68z"/>
<path style="fill:#848244; stroke:none;" d="M2 84L2 88C6.50252 88.7504 10.0107 90 15 90C18.6247 90 23.5003 90.8749 27 90C31.3738 88.9066 31.296 87.4079 33 84L35 82C36.3127 72.8109 30.6376 64.2752 27 57C26.0048 55.0096 22.0222 49.3467 23 47C24.509 43.3784 28.2796 41.5869 31 40C39.3565 35.1254 45 22.6213 45 14C45 9.58401 46.1989 2.29972 41 1C39.5791 0.644768 33.9341 5.66563 33 7C32.0795 8.31505 31.7744 11.4513 31 13C30.3805 14.2391 28.3237 15.4335 28 16C25.7841 19.8779 24.2904 25.0736 22 29C19.1456 33.8932 14.7605 37.7186 13 43C12.4307 44.7078 12.3128 51.3508 13 53C15.0137 57.8329 19.9008 59.9619 22 65C22.7015 66.6837 21.5544 69.2176 22 71C22.499 72.996 26.1006 77.7989 25 80C23.1033 83.7934 16.8552 84 13 84L2 84z"/>
<path style="fill:#201e12; stroke:none;" d="M45 6L44 20C48.4181 19.1164 47 10.5555 47 6L45 6z"/>
<path style="fill:#040204; stroke:none;" d="M44 20L40 30L30 41C36.2675 39.9554 40.6267 31.7467 43 27C44.3568 24.2863 46.1177 22.1177 44 20z"/>
<path style="fill:#454325; stroke:none;" d="M28 40L30 41L28 40z"/>
<path style="fill:#100e0a; stroke:none;" d="M2 88L2 84C7.46533 84 21.0655 86.3799 24 81C25.9632 77.4007 22.5214 71.1282 22 68L21 68L22 77L23 79L18 82L1 83C1 84.1483 0.347945 88.1306 1 89C2.02311 90.3642 6.39233 90.4641 8 91C14.7064 93.2355 30.8596 94.0979 35 87C40.4868 77.5941 33.0714 66.1428 29 58C25.9134 51.8268 23.4151 46.3899 30 42C28.0053 40.0053 25.2887 41.9071 24 45C23.0932 47.1763 24.316 52.9479 25 55C26.2253 58.6759 29.2536 61.5072 31 65C32.5041 68.0082 33.064 71.724 34 75L36 77C37.2361 79.9667 34.1742 80.9871 33 83C31.6023 85.3961 31.7377 88.6312 29 90C27.5185 90.7408 23.693 90 22 90C18.0425 90 11.7212 91.2404 8 90C5.63311 89.211 4.91287 88 2 88z"/>
<path style="fill:#413f23; stroke:none;" d="M12 45L12 52L13 52L12 45z"/>
<path style="fill:#57552e; stroke:none;" d="M23 46L23 50L24 50L23 46z"/>
<path style="fill:#464425; stroke:none;" d="M24 50L25 52L24 50z"/>
<path style="fill:#3c3a20; stroke:none;" d="M21 64L21 68L22 68L21 64z"/>
<path style="fill:#413f23; stroke:none;" d="M35 76L35 81L36 81L35 76z"/>
<path style="fill:#57552e; stroke:none;" d="M24 77L24 81L25 81L24 77z"/>
<path style="fill:#444224; stroke:none;" d="M7 89L9 90L7 89M27 89L27 90L30 90L27 89z"/>
</svg>
