<?xml version="1.0" standalone="yes"?>
<svg width="94" height="21">
<path style="fill:#040204; stroke:none;" d="M3 15C7.29072 14.1419 3.37389 11.2522 5 8C6.32457 5.35086 11.033 3.74176 14 3C20.0723 1.48191 28.5066 3.00441 33 6C34.1626 6.77508 36.0349 6.62121 37 8C38.6969 10.4242 39.1735 14.4297 42 16C43.4125 16.7847 49.1722 16.2418 50 15C50.9307 13.6039 49.2417 10.5165 50 9C50.7692 7.46151 53.5906 5.4698 55 5C56.8584 4.38052 60.0237 5 62 5C67.7702 5 73.8391 4.70978 79 6C80.5396 6.3849 82.4992 5.49972 84 6C86.7161 6.90538 87.6618 8 91 8L91 20L92 20L92 14L93 8L82 5L79 3L56 4L51 5L48 15C39.9236 15 40.2725 7.07564 35 4C29.333 0.694246 18.3056 1.4236 12 3C8.79005 3.80249 5.97744 2.04512 4 6C2.91989 8.16021 3.76071 12.7179 3 15z"/>
<path style="fill:#444224; stroke:none;" d="M13 3L13 4L28 4L13 3z"/>
<path style="fill:#848244; stroke:none;" d="M5 15L18 17L39 17L52 18L76 19L90 20L91 8C86.9796 8 82.7958 5.94896 79 5C72.9299 3.48248 62.4932 4.62671 57 6C55.7507 6.31232 53.0443 5.30383 52 6C49.8764 7.4157 51.664 10.008 51 12C50.0957 14.7128 46.3024 17.6512 43 16L42 14C39.8377 12.5585 38.3584 11.3773 37 9L37 7C36.677 6.63087 34.4682 6.3121 34 6C28.9849 2.65659 21.3041 4 15 4C12.6694 4 8.60043 3.39957 7 5C5.46178 6.53822 5.35617 12.863 5 15z"/>
<path style="fill:#37351e; stroke:none;" d="M54 5L54 6L58 6L54 5z"/>
<path style="fill:#36341d; stroke:none;" d="M5 7L5 13L6 13L5 7z"/>
<path style="fill:#434124; stroke:none;" d="M50 8L50 13L51 13L50 8M90 13L90 20L91 20L90 13z"/>
</svg>
