<?xml version="1.0" standalone="yes"?>
<svg xmlns="http://www.w3.org/2000/svg" width="93" height="58">
<path style="fill:#040204; stroke:none;" d="M2 57L3 57C3 50.3135 4.09701 42.5821 3 36C2.45152 32.7091 1.57604 30.4175 3 27C9.59883 11.1628 26.153 2 43 2C46.6584 2 49.8751 1.95835 53 3C54.1331 3.37769 55.9403 2.47017 57 3C58.1865 3.59325 58.79 5.46222 60 6C64.1857 7.86032 68.2821 9.95809 72 13C74.0574 14.6833 74.6134 17.1511 76 19C77.9055 21.5407 80.6309 23.2618 82 26C84.4118 30.8236 86.2936 36.8808 88 42C89.1651 45.4952 89.3574 48.1445 90 52L92 52C90.8169 48.4508 90.1603 44.481 89 41C88.6081 39.8243 89.4749 38.1398 89 37C88.0914 34.8194 85.9086 33.1806 85 31C83.7638 28.0331 83.832 24.748 82 22C80.7188 20.0782 78.3876 18.8502 77 17C75.6134 15.1511 75.0574 12.6833 73 11C68.4614 7.28662 61.4879 2.82929 56 1C52.8106 -0.0631371 47.3919 1 44 1C40.3253 1 34.4553 -0.151779 31 1C18.8013 5.06625 5.3579 13.9263 1 27C-0.366519 31.0996 1.10482 38.4193 2 42C2.53793 44.1517 1.40331 45.3868 1 47C0.304044 49.7838 2 53.7356 2 57z"/>
<path style="fill:#848244; stroke:none;" d="M4 57L19 56L43 55L61 54L77 54L90 52C88.4661 42.7965 86.0766 33.1533 82 25C80.6309 22.2618 77.9055 20.5407 76 18C74.9802 16.6403 74.388 14.2492 73 13C69.4883 9.83943 65.091 7.81821 61 6C59.79 5.46222 59.1865 3.59324 58 3C56.9403 2.47017 55.1331 3.37769 54 3C50.8751 1.95835 47.6584 2 44 2C29.4536 2 13.7557 6.70449 6 20C1.61909 27.5101 1.93855 33.7542 4 42C4.59576 44.383 3.29906 46.2057 3 48C2.59824 50.4106 4 54.0333 4 57z"/>
<path style="fill:#3e3c21; stroke:none;" d="M3 41L3 48L4 48L3 41M89 46L89 50L90 50L89 46M3 50L3 57L4 57L3 50z"/>
</svg>
