<?xml version="1.0" standalone="yes"?>
<svg xmlns="http://www.w3.org/2000/svg" width="97" height="100">
<path style="fill:#040204; stroke:none;" d="M44 94L44 95C45.0236 95 48.183 95.5446 49 95C50.591 93.9393 50 91.6856 50 90L50 75C50 69.742 49.1871 64.7486 48 60C46.2745 53.098 49.7255 44.902 48 38C46.5714 32.2855 46.102 23.6941 48 18C48.4 16.8 47.6 15.2 48 14C49.6144 9.15686 53.7947 6.7522 58 5C69.5061 0.205795 83.0413 4.56192 90 15C90.7616 16.1424 90.4585 17.7815 91 19C91.603 20.3568 93.5408 21.6223 94 23C94.8006 25.4019 93.384 28.5359 94 31C96.1411 39.5644 94.0904 51.6382 92 60C90.9442 64.2232 93 68.1436 93 72C93 80.332 92 89.1411 92 98C93.7824 96.2176 93 90.4199 93 87C93 79.0824 95.1789 71.2523 94 63L93 62C93 60.9352 94.726 58.096 95 57C95.5638 54.745 95.4974 52.0103 96 50C96.8749 46.5003 96 41.6247 96 38C96 24.5293 93.5973 8.66556 80 3C78.3164 2.29848 75.7824 3.4456 74 3C71.4307 2.35769 69.0733 2 66 2C61.0812 2 55.8174 2.45506 52 5C45.5748 9.28349 46 17.8839 46 25L46 48C46 51.0202 45.271 55.0839 46 58C47.1672 62.6687 48 66.5244 48 72C48 77.8955 52.9679 94 44 94z"/>
<path style="fill:#444224; stroke:none;" d="M60 3L60 4L72 4L60 3z"/>
<path style="fill:#040204; stroke:none;" d="M2 71L3 71L5 52L5 42L7 25L11 18L12 13L23 5L33 6C27.8693 -0.840874 13.1504 6.69911 10 13C6.45653 20.0869 5.93654 28.2538 4 36C2.90196 40.3922 5.09804 45.6078 4 50C3.27341 52.9063 1.72659 56.0937 1 59C-0.0557916 63.2232 2 67.1436 2 71z"/>
<path style="fill:#848244; stroke:none;" d="M5 94L38 97L65 98L91 99C91 91.2837 91.811 84.134 93 77C93.941 71.3543 90.68 66.2801 92 61C95.5144 46.9425 96.5137 29.2329 91 16C86.4018 4.96439 75.9987 4 65 4C58.7118 4 51.6312 4.68509 49 11C48.6444 11.8534 49.2933 13.1202 49 14C46.5687 21.2938 46.044 31.1762 48 39C49.4118 44.6471 46.5882 51.3529 48 57C49.1371 61.5482 50 68.2552 50 73C50 78.2922 54.3955 91.8022 48 95C44.4846 96.7577 42.6745 93.6745 41 92C37.8771 88.8771 33.0585 79.8245 35 74C35.2924 73.1228 36.8023 71.8894 37 71C37.5491 68.529 36.2028 65.3915 37 63C38.2842 59.1474 40.0022 54.991 41 51C41.7059 48.1765 40.2941 44.8235 41 42C42.406 36.3758 44.4837 28.6764 43 22C42.7468 20.8606 41.2844 19.1375 41 18C40.2835 15.1339 40.8259 13.4346 39 11C33.1655 3.22063 17.3814 3.92798 12 12C10.9655 13.5518 11.6841 15.3581 11 17C9.95093 19.5178 7.67219 21.3112 7 24C6.13725 27.451 7.86275 31.549 7 35C5.35898 41.5641 4.58894 48.9327 4 56C3.49102 62.1077 3.53046 66.1218 5 72C5.62745 74.5098 4.37255 77.4902 5 80C5.73829 82.9532 8.25908 86.2228 7 90C6.41627 91.7512 5.343 91.942 5 94z"/>
<path style="fill:#38361e; stroke:none;" d="M22 5L22 6L30 6L22 5z"/>
<path style="fill:#252315; stroke:none;" d="M33 6L33 7L38 10C37.4424 6.6544 36.44 6 33 6z"/>
<path style="fill:#040204; stroke:none;" d="M38 8C38 12.2962 40.8146 13.4437 42 17C42.5003 18.5009 41.6151 20.4604 42 22C42.364 23.4562 43.636 25.5438 44 27C44.9977 30.9908 42.789 33.8439 42 37C41.451 39.1961 42.549 41.8039 42 44C40.486 50.0559 38.9369 56.1893 37 62C36.2028 64.3915 37.5491 67.529 37 70C36.8023 70.8895 35.2924 72.1228 35 73C33.2703 78.189 36.398 90.233 41 91C39.6119 88.2239 37.7516 85.0064 37 82C35.0485 74.194 39.3102 64.7593 41 58C42.4192 52.323 42.6409 46.4363 44 41C44.4706 39.1176 43.5294 36.8824 44 35C46.0511 26.7956 44.5384 12.9038 38 8z"/>
<path style="fill:#444224; stroke:none;" d="M48 13L49 15L48 13z"/>
<path style="fill:#403e22; stroke:none;" d="M41 16L41 19L42 19L41 16z"/>
<path style="fill:#424023; stroke:none;" d="M93 22L93 27L94 27L93 22z"/>
<path style="fill:#4e4c29; stroke:none;" d="M43 26L43 34L44 34L43 26z"/>
<path style="fill:#5a582f; stroke:none;" d="M6 31L6 36L7 36L6 31z"/>
<path style="fill:#403e22; stroke:none;" d="M41 41L41 45L42 45L41 41z"/>
<path style="fill:#424023; stroke:none;" d="M93 50L93 56L94 56L93 50M3 56L3 59L4 59L3 56z"/>
<path style="fill:#444224; stroke:none;" d="M48 57L48 61L49 61L48 57z"/>
<path style="fill:#424023; stroke:none;" d="M3 66L5 72L3 66z"/>
<path style="fill:#040204; stroke:none;" d="M4 72L5 85L4 94L5 94L5 79L4 72z"/>
<path style="fill:#36341d; stroke:none;" d="M50 79L50 93L51 93L50 79z"/>
<path style="fill:#5a582f; stroke:none;" d="M6 83L6 91L7 91L6 83z"/>
<path style="fill:#34321c; stroke:none;" d="M91 88L91 99L92 99L91 88z"/>
<path style="fill:#2b2917; stroke:none;" d="M39 91L39 92L44 95C43.4424 91.6544 42.44 91 39 91z"/>
</svg>
