<?xml version="1.0" standalone="yes"?>
<svg width="34" height="34">
<path style="fill:#040204; stroke:none;" d="M1 32L3 32C3 30.0237 2.38052 26.8584 3 25C7.07543 12.7737 21.7777 12 33 12C33 6.29228 29.9841 9.65251 27 7C25.2692 5.4615 26.2289 3.62103 24 2C19.5282 -1.25223 9.64086 1.26936 6 4C-1.84658 9.88494 1 22.9192 1 32z"/>
<path style="fill:#fcfe04; stroke:none;" d="M2 22L3 22C3 17.0969 5.80417 18.1306 9 16C10.3277 15.1149 11.5069 12.4977 13 12C14.2 11.6 15.8 12.4 17 12C20.0114 10.9962 23.6377 10 27 10C25.8155 7.63095 23.8716 3.43579 21 2C14.2955 -1.35224 4.29368 6.49516 2 12C1.0061 14.3854 2 19.3781 2 22z"/>
<path style="fill:#767604; stroke:none;" d="M10 3L11 4L10 3M23 4L24 5L23 4z"/>
<path style="fill:#7f7f04; stroke:none;" d="M6 6L7 7L6 6z"/>
<path style="fill:#878704; stroke:none;" d="M5 7L6 8L5 7z"/>
<path style="fill:#7d7d04; stroke:none;" d="M4 8L5 9L4 8z"/>
<path style="fill:#808004; stroke:none;" d="M26 8L27 9L26 8z"/>
<path style="fill:#b3b404; stroke:none;" d="M3 9L4 11L3 9z"/>
<path style="fill:#9f9f04; stroke:none;" d="M23 10L23 11L31 11L31 9L23 10z"/>
<path style="fill:#575604; stroke:none;" d="M17 11L17 12L23 12L17 11z"/>
<path style="fill:#bebf04; stroke:none;" d="M12 12L12 13L15 13L12 12z"/>
<path style="fill:#757504; stroke:none;" d="M10 14L11 15L10 14z"/>
<path style="fill:#787804; stroke:none;" d="M3 18L3 21L4 21L5 18L3 18z"/>
<path style="fill:#777704; stroke:none;" d="M2 22L3 23L2 22z"/>
</svg>
