<?xml version="1.0" standalone="yes"?>
<svg width="97" height="100">
<path style="fill:#040204; stroke:none;" d="M4 98L5 98C5 89.1411 4 80.332 4 72C4 68.1436 6.05579 64.2232 5 60C1.58607 46.3443 0.630427 29.887 6 17C12.3104 1.85516 39.1193 -3.22398 48 12C49.1628 13.9934 48.438 15.7519 49 18C50.5009 24.0035 50.5009 31.9965 49 38C46.6024 47.5906 50.3538 58.585 48 68C46.5645 73.7422 47 80.6271 47 87C47 88.4466 46.2307 92.8461 47 94C48.435 96.1524 53.398 95.068 55 94C59.1329 91.2447 60.8204 85.7183 62 81C63.0838 76.6649 61.1227 73.368 60 70C59.2 67.6 60.8 64.4 60 62C58.0631 56.1893 56.514 50.0559 55 44C54.4501 41.8004 55.4923 39.2153 55 37C54.7468 35.8606 53.2844 34.1375 53 33C51.116 25.464 57 18.0643 57 11C53.1123 13.9158 54.2267 19.0932 53 24C51.0626 31.7498 53.1619 39.6477 55 47C55.3922 48.5686 54.6078 50.4314 55 52C55.8035 55.214 57.2225 58.8898 58 62C58.8438 65.3752 58.183 68.732 59 72C60.6797 78.719 60.2358 90.5684 52 94C50.6344 94.569 48.4397 93.319 48 92C47.1763 89.5288 47.365 82.5399 48 80C49.2786 74.8857 47.6578 68.3689 49 63C51.8125 51.7499 51 38.4756 51 26C51 19.4894 51.3834 13.075 48 8C45.4446 4.16693 41.7993 3.94982 38 3C26.1787 0.0446854 12.922 2.34042 7 13C6.34602 14.1772 4.60133 14.7973 4 16C3.59782 16.8044 4.36612 18.1762 4 19C0.902403 25.9696 1 32.6389 1 41C1 43.7179 0.343936 47.3757 1 50C1.50257 52.0103 1.43624 54.745 2 57C2.274 58.096 4 60.9352 4 62L3 63C2.23182 68.3773 2.81332 75.2533 4 80C5.31248 85.2499 4 92.5626 4 98z"/>
<path style="fill:#444224; stroke:none;" d="M25 3L25 4L37 4L25 3z"/>
<path style="fill:#848244; stroke:none;" d="M6 99L32 98L59 97L92 94C91.657 91.942 90.5837 91.7512 90 90C88.7409 86.2228 91.2617 82.9532 92 80C92.6274 77.4902 91.3726 74.5098 92 72C93.4695 66.1218 93.509 62.1077 93 56C92.4111 48.9327 91.641 41.5641 90 35C89.1373 31.549 90.8627 27.451 90 24C89.3278 21.3112 87.0491 19.5178 86 17C85.3159 15.3581 86.0346 13.5518 85 12C80.6358 5.45374 68.2245 3.55391 62 8L60 8C56.2631 10.9065 56.3573 16.928 55 21C52.7082 27.8753 54.3976 35.5902 56 42C56.7059 44.8235 55.2941 48.1765 56 51C56.9978 54.991 58.7158 59.1474 60 63C60.7972 65.3915 59.4509 68.529 60 71C60.1977 71.8895 61.7076 73.1228 62 74C63.8384 79.5152 59.329 89.2763 56 92C54.1224 93.5362 51.978 96.489 49 95C42.6045 91.8022 47 78.2922 47 73C47 68.2551 47.8629 61.5482 49 57C50.4118 51.3529 47.5882 44.6471 49 39C50.956 31.1762 50.4313 21.2938 48 14C47.7067 13.1201 48.3556 11.8535 48 11C45.3688 4.68508 38.2881 4 32 4C20.91 4 10.6509 4.83773 6 16C0.486279 29.2329 1.48563 46.9425 5 61C6.32002 66.2801 3.05904 71.3543 4 77C5.189 84.134 6 91.2837 6 99z"/>
<path style="fill:#040204; stroke:none;" d="M64 5L64 6C67.0213 6 70.8262 3.67758 74 5C87.7336 10.7223 88.8546 24.4183 92 37C93.1765 41.7059 90.8235 47.2941 92 52C92.9911 55.9644 96.3943 65.2114 94 70L92 71C91.5747 73.5518 92.6259 76.4963 92 79C90.8346 83.6614 90.4399 89.3197 92 94C93.8297 92.1703 92.4517 90.7099 92 88C91.67 86.0199 92.6716 85.4778 93 84C93.7248 80.7383 91.7256 76.0585 93 73C93.8755 70.8987 95.4402 69.2392 96 67C97.5111 60.9554 94.2615 55.0462 93 50C91.902 45.6078 94.098 40.3922 93 36C92.486 33.944 91.514 31.056 91 29C90.461 26.844 91.7005 24.1016 91 22C87.0743 10.2229 77.8169 0.394348 64 5z"/>
<path style="fill:#38361e; stroke:none;" d="M67 5L67 6L75 6L67 5z"/>
<path style="fill:#252315; stroke:none;" d="M60 7L60 8L64 7L60 7z"/>
<path style="fill:#2a2817; stroke:none;" d="M58 8L57 13L58 13L60 8L58 8z"/>
<path style="fill:#444224; stroke:none;" d="M48 13L49 15L48 13z"/>
<path style="fill:#403e22; stroke:none;" d="M55 16L55 19L56 19L55 16z"/>
<path style="fill:#424023; stroke:none;" d="M3 22L3 27L4 27L3 22z"/>
<path style="fill:#4e4c29; stroke:none;" d="M53 26L53 34L54 34L53 26z"/>
<path style="fill:#5a582f; stroke:none;" d="M90 31L90 36L91 36L90 31z"/>
<path style="fill:#34321c; stroke:none;" d="M91 36L91 41L92 41L91 36z"/>
<path style="fill:#403e22; stroke:none;" d="M55 41L55 45L56 45L55 41z"/>
<path style="fill:#424023; stroke:none;" d="M3 50L3 56L4 56L3 50M93 56L93 59L94 59L93 56z"/>
<path style="fill:#444224; stroke:none;" d="M48 57L48 61L49 61L48 57z"/>
<path style="fill:#424023; stroke:none;" d="M93 66L93 71L94 71L93 66z"/>
<path style="fill:#36341d; stroke:none;" d="M46 79L46 93L47 93L46 79z"/>
<path style="fill:#5a582f; stroke:none;" d="M90 83L90 91L91 91L90 83z"/>
<path style="fill:#34321c; stroke:none;" d="M5 88L5 99L6 99L5 88z"/>
</svg>
