<?xml version="1.0" standalone="yes"?>
<svg xmlns="http://www.w3.org/2000/svg" width="99" height="55">
<path style="fill:#040204; stroke:none;" d="M9 49C13.2654 46.8673 12.6937 40.0648 11 36C9.80627 33.135 7.19428 30.8663 6 28C5.64694 27.1527 6.3724 25.8379 6 25C3.28469 18.8906 -0.480431 5.16014 9 2C13.5059 0.498028 18.5767 4.28835 22 6L24 6C25.687 7.26526 25.5982 8.7985 27 10C28.1189 10.9591 29.717 9.98379 31 12C33.4255 15.8115 34.27 20.8481 36 25C37.1186 27.6846 39.0847 30.2542 40 33C42.0617 39.1851 42.2035 48.5286 49 51C57.3539 54.0378 56.4238 43.0855 56 38C55.8113 35.7361 54.6228 35.8685 54 34C53.6 32.8 54.4 31.2 54 30C51.7137 23.1411 46.686 12.9842 54 7C61.0974 1.19304 68.2703 5.63516 75 9C86.1249 14.5625 94.1076 25.4304 97 37C97.6508 39.6033 96.5107 41.9571 96 44C95.271 46.9161 96 50.9798 96 54L98 54C98 47.6563 99.5312 39.1249 98 33C95.4471 22.7886 85.5931 11.3295 76 6C75.258 5.58779 73.8132 6.27105 73 6C66.4834 3.8278 55.1156 -0.769588 50 8C45.1086 16.3852 52.1615 28.646 54 36C54.9479 39.7914 54 45.0732 54 49C47.9124 49 44.7388 45.2164 43 40C42.6 38.8 43.4 37.2 43 36C41.4916 31.4748 38.8314 27.3953 37 23C35.2445 18.7869 34.4736 13.8872 32 10C30.6467 7.87343 29.5002 8.90014 28 8C26.4211 7.05267 27.4316 6.14529 26 5C24.9979 4.19829 23.0455 4.58083 22 4C18.3762 1.98679 9.26224 -1.78866 5 2C0.115669 6.34163 0.5035 15.014 2 21C2.87306 24.4922 4.19878 28.9122 6 32C7.24893 34.141 9.23366 35.701 10 38C11.1334 41.4002 9.49504 46.0297 9 49z"/>
<path style="fill:#848244; stroke:none;" d="M10 49L19 50L42 51L58 53L70 53L96 54C96 51.2821 95.3439 47.6243 96 45C96.6234 42.5064 97.7655 39.0621 97 36C94.1878 24.751 86.7901 14.3951 76 9C69.3396 5.6698 58.4618 -0.0772934 52 8C47.0173 14.2284 51.9492 24.8477 54 31C54.4 32.2 53.6 33.8 54 35C54.4217 36.265 55.6462 36.5848 56 38C56.9272 41.7089 56.7442 49.1279 53 51C48.1337 53.4332 43.0267 44.0801 42 41C41.0135 38.0406 40.9973 34.9919 40 32C38.5202 27.5606 35.8051 23.3321 34 19C33.052 16.7248 32.4766 12.8985 31 11C29.6169 9.22168 29.2584 10.9438 28 10C26.5478 8.91086 26.3558 6.67792 25 6C22.7877 4.89385 20.3885 4.79615 18 4C14.8925 2.96416 9.44277 -0.0602379 6 3C2.05089 6.51032 2.87943 12.5177 4 17C5.0522 21.2088 4.37994 25.1119 6 29C8.12168 34.092 14.2486 39.2542 12 46C11.7453 46.7642 10.367 48.266 10 49z"/>
<path style="fill:#464425; stroke:none;" d="M3 16L3 20L4 20L3 16z"/>
</svg>
