<?xml version="1.0" standalone="yes"?>
<svg width="102" height="76">
<path style="fill:#0d0b09; stroke:none;" d="M3 27L4 27C7.34163 21.9876 7.95831 16.0278 14 12C15.5877 10.9415 17.1477 11.4631 19 11C30.5279 8.11801 45.0614 10.1474 50 22C51.8241 26.3777 51.0853 32.6588 50 37C49.1519 40.3924 50.5332 43.9336 49 47C46.7308 51.5384 42.0974 53.9663 40 59C39.2845 60.7173 40.5938 61.7814 41 63C42.2775 66.8325 44.1785 70.4643 49 71C49.6486 71.0721 52.509 71.3683 53 71C54.2063 70.0953 55.0449 60.5673 54 59C52.6915 57.0372 47.0391 55.8435 48 52C48.6739 49.3043 51.116 46.6521 52 44C52.8858 41.3426 52 36.8261 52 34C52 30.6775 52.802 26.2079 52 23C50.1574 15.6295 42.0041 8 34 8L41 4L66 3C62.4243 -0.575691 50.3065 0.67337 45 2C41.1291 2.96773 37.5452 2.42437 34 4C32.3858 4.71745 31.5834 7.20828 30 8C27.1646 9.41772 22.1143 7.22143 19 8C10.9434 10.0142 3 18.0424 3 27z"/>
<path style="fill:#424023; stroke:none;" d="M41 3L41 4L46 4L41 3z"/>
<path style="fill:#848244; stroke:none;" d="M34 8C47.4611 10.2435 55.2515 23.9938 52 37C51.538 38.8479 52.6004 41.1987 52 43C51.0909 45.7273 48.9091 48.2728 48 51C46.2092 56.3723 52.1853 56.9755 54 60C55.3374 62.229 53.9027 69.8584 52 71C47.8732 73.4761 38.3215 64.0285 40 60C42.0493 55.0818 46.8612 52.2776 49 48C50.5332 44.9336 49.1519 41.3924 50 38C51.1883 33.2469 51.9792 25.7501 50 21C45.8566 11.0558 36.0797 10 26 10C21.7393 10 16.3057 9.7962 13 12C6.17583 16.5494 4.70255 25.1898 3 32C1.19677 39.2129 3.94176 49.8253 6 56C6.52983 57.5895 9.24462 58.4892 10 60C11.6897 63.3793 8.45741 67.2555 8 70L32 72L51 73L68 74L94 75C94 68.4465 94.55 62.7998 96 57C96.3849 55.4604 95.4997 53.5008 96 52C98.4031 44.7908 101.023 39.092 99 31C97.6819 25.7275 99.0173 20.5259 96 16C93.3919 12.0878 87.9338 11.9834 84 11C82.8624 10.7156 81.1394 9.2532 80 9C77.5822 8.46271 75.1443 9.07214 73 8C70.8118 6.90588 69.2961 4.76537 67 4C62.3015 2.43385 56.2037 3 51 3C46.1216 3 34.8456 2.92638 34 8z"/>
<path style="fill:#424023; stroke:none;" d="M61 3L61 4L66 4L61 3z"/>
<path style="fill:#040204; stroke:none;" d="M66 3L66 4C73.0088 8.67255 81.4444 9.64194 89 13C89.8238 13.3661 91.1956 12.5978 92 13C99.7676 16.8838 97.3446 25.3782 99 32C100.904 39.6159 98.2559 44.2323 96 51C95.4997 52.5008 96.3849 54.4604 96 56C94.6371 61.4515 95 67.9285 95 74L96 74L96 59L101 45L101 39L101 25L99 21L94 12L79 8L66 3z"/>
<path style="fill:#403e22; stroke:none;" d="M75 8L77 9L75 8z"/>
<path style="fill:#454324; stroke:none;" d="M98 23L99 25L98 23z"/>
<path style="fill:#514f2b; stroke:none;" d="M52 25L52 37L53 37L52 25z"/>
<path style="fill:#040204; stroke:none;" d="M2 27L1 43L4 53L4 56L8 60L7 69C9.63759 67.6812 11.7446 62.4891 10 59C9.24462 57.4892 6.52983 56.5895 6 55C4.93842 51.8152 3.77254 48.0902 3 45C1.74088 39.9635 5.15252 30.1525 2 27z"/>
<path style="fill:#454324; stroke:none;" d="M3 27L3 32L4 32L3 27M3 43L3 46L4 46L3 43M98 44L99 46L98 44z"/>
<path style="fill:#0d0b09; stroke:none;" d="M46 55C50.8919 55 55.2115 67.1924 51 70C48.6223 71.5852 47.0588 68.9529 46 68C44.92 67.028 43.7807 67.2491 43 66C41.3158 63.3052 41.3056 55 46 55z"/>
<path style="fill:#474525; stroke:none;" d="M40 62L41 64L40 62z"/>
<path style="fill:#2c2a18; stroke:none;" d="M94 64L94 75L95 75L94 64z"/>
</svg>
