<?xml version="1.0" standalone="yes"?>
<svg width="45" height="95">
<path style="fill:#040204; stroke:none;" d="M13 75L14 75C14 68.5922 12.3858 63.3681 10 58C9.3273 56.4864 7.63256 55.5181 7 54C5.92837 51.4281 6.69598 48.7839 6 46C5.54415 44.1766 4.40602 42.3759 5 40C5.8329 36.6684 8.1671 33.3316 9 30C10.5713 23.7149 11.1526 19.3864 15 14L15 12C16.4945 9.65154 20.1676 8.64919 22 7C23.5464 5.60821 24.4117 2.21569 27 2C31.689 1.60925 34.4502 8.90038 36 12L38 13C38.6053 14.2106 38.6053 21.7894 38 23C36.9981 25.0038 34.1318 26.0597 33 28L33 30C29.6343 34.712 25.7964 40.6109 24 46C20.1387 57.5839 23 70.5395 23 83L39 83L42 87L38 89L35 92L27 92L9 93L9 94C15.3729 94 22.2578 94.4355 28 93C30.675 92.3313 34.4735 94.0527 37 93C40.8294 91.4044 48.3437 85.6718 41 82C39.9485 81.4743 37.2011 82 36 82L24 82C24 69.9007 20.7227 56.5547 26 46C28.5937 40.8127 31.0795 35.574 35 31L35 29C35.6868 27.8227 37.3385 27.1907 38 26C39.309 23.6439 40.2247 14.9393 39 12L37 10C36.2482 7.36856 33.9032 2.45162 31 1C25.1566 -1.92171 20.7139 5.1114 17 8C16.1508 8.66047 14.915 8.74191 14 10C11.2027 13.8463 9.93602 19.644 8 24C7.50343 25.1173 8.47089 26.8699 8 28L6 30C5.05577 33.3048 3.79541 36.8184 3 40C2.46207 42.1517 3.59669 43.3868 4 45C5.02262 49.0905 4.41695 53.2007 6 57C8.60687 63.2565 13 67.5488 13 75z"/>
<path style="fill:#848244; stroke:none;" d="M26 2C23.3528 2.66179 23.0486 5.32385 21 7C16.6989 10.5191 12.9034 13.2897 11 19C10.0959 21.7122 11.1011 25.3574 10 28C7.76566 33.3624 3.28178 39.1271 5 46C5.66667 48.6667 6.07446 52.2234 7 55C8.5093 59.5279 12.4841 63.4522 14 68C14.5212 69.5635 14.7239 76.5523 14 78C11.8145 82.371 4.8188 82.4564 7 89C8.96258 94.8877 24.3197 91.7801 29 91C31.339 90.6102 34.8336 91.9027 37 91C39.0089 90.1629 45.0038 86.6692 41 84C37.2647 81.5098 28.9718 86.1664 25 84C20.9686 81.801 23.9 75.6001 23 72C18.8426 55.3704 26.9534 42.6049 33 29C33.7174 27.3857 36.2083 26.5834 37 25C37.6337 23.7325 37 20.4482 37 19C37 12.3154 35.7883 9.26182 32 5C30.808 3.65901 28.7563 1.31094 26 2z"/>
<path style="fill:#292716; stroke:none;" d="M37 12L37 24L38 24L37 12z"/>
<path style="fill:#32301b; stroke:none;" d="M9 25L9 29L10 29L9 25z"/>
<path style="fill:#494726; stroke:none;" d="M6 50L7 52L6 50z"/>
<path style="fill:#444224; stroke:none;" d="M13 67L14 69L13 67M22 70L23 72L22 70z"/>
<path style="fill:#262415; stroke:none;" d="M12 75L5 84L8 93L13 93L27 93L27 92L15 92C13.851 92 10.9826 92.5359 10 92C8.32922 91.0887 5.90849 87.0011 7 85C8.80384 81.693 16.3772 79.3772 12 75z"/>
<path style="fill:#444224; stroke:none;" d="M13 75L13 79L14 79L13 75z"/>
<path style="fill:#53512c; stroke:none;" d="M24 83L24 84L40 84L24 83z"/>
<path style="fill:#4f4d29; stroke:none;" d="M27 91L27 92L36 92L27 91z"/>
</svg>
