<?xml version="1.0" standalone="yes"?>
<svg xmlns="http://www.w3.org/2000/svg" width="99" height="55">
<path style="fill:#040204; stroke:none;" d="M45 49C45 45.0732 44.0521 39.7914 45 36C45.7736 32.9055 48.002 29.9939 49 27C49.6004 25.1987 48.538 22.8479 49 21C51.2755 11.8978 49.0573 3 38 3C35.5115 3 34.0172 3.49571 32 4C28.4361 4.89099 25.2213 5.38937 22 7L22 8C27.9739 8 32.8654 2.46635 39 4C52.7972 7.4493 48.1219 20.6344 45 30C44.6 31.2 45.4 32.8 45 34C44.3772 35.8685 43.1887 35.7361 43 38C42.7219 41.3367 41.7018 49.201 45 51C50.6495 54.0815 55.8154 45.5537 57 42C59.9731 33.0806 61.6993 23.951 67 16C67.6656 15.0016 67.4107 12.926 68 12C69.283 9.98379 70.8811 10.9591 72 10C74.3937 7.94827 75.0281 6.48596 78 5C81.4095 3.29527 88.1359 -0.0912514 92 3C98.8777 8.50217 95.7881 18.7269 93 25C92.6276 25.8379 93.3531 27.1527 93 28C91.8057 30.8663 89.1937 33.135 88 36C86.3063 40.0648 85.7346 46.8673 90 49C89.505 46.0297 87.8666 41.4002 89 38C89.7663 35.701 91.7511 34.141 93 32C94.8012 28.9122 96.1269 24.4922 97 21C98.4965 15.014 98.8843 6.34163 94 2C89.7378 -1.78866 80.6238 1.98679 77 4C75.9545 4.58081 74.0021 4.1983 73 5C71.5684 6.14531 72.5789 7.05264 71 8C69.4998 8.90014 68.3533 7.87342 67 10C64.5264 13.8872 63.7555 18.7869 62 23C60.1686 27.3953 57.5084 31.4748 56 36C55.6 37.2 56.4 38.8 56 40C54.2612 45.2164 51.0876 49 45 49z"/>
<path style="fill:#848244; stroke:none;" d="M3 54L29 53L41 53L57 51L80 50L89 49C88.633 48.266 87.2547 46.7642 87 46C84.7514 39.2542 90.8783 34.0921 93 29C94.6201 25.1119 93.9478 21.2088 95 17C96.1206 12.5177 96.9491 6.51032 93 3C89.5572 -0.0602379 84.1075 2.96415 81 4C78.5144 4.82852 76.2403 4.59978 74 6C72.5673 6.89541 72.5806 8.81452 71 10C69.7416 10.9438 69.3831 9.22166 68 11C67.4464 11.7118 67.5779 14.1332 67 15C61.6993 22.951 59.9731 32.0806 57 41C55.9733 44.0801 50.8663 53.4332 46 51C42.2558 49.1279 42.0728 41.7089 43 38C43.3538 36.5847 44.5783 36.265 45 35C45.4 33.8 44.6 32.2 45 31C47.0508 24.8477 51.9827 14.2284 47 8C41.506 1.13252 33.1874 4.93752 27 7C25.5249 7.49171 23.2981 7.24279 22 8C11.9021 13.8904 4.54673 25.8131 2 36C1.23447 39.0621 2.37659 42.5064 3 45C3.65606 47.6243 3 51.2821 3 54z"/>
<path style="fill:#413f22; stroke:none;" d="M80 3L82 4L80 3z"/>
<path style="fill:#0f0d0a; stroke:none;" d="M1 54L3 54C3 42.9003 0.879354 33.181 7 24C10.8768 18.1848 19.1917 13.6166 22 8L10 18L3 27L1 54z"/>
<path style="fill:#464425; stroke:none;" d="M95 16L95 20L96 20L95 16z"/>
</svg>
