<?xml version="1.0" standalone="yes"?>
<svg width="48" height="46">
<path style="fill:#040204; stroke:none;" d="M31 1L31 4C25.3959 4 15.8016 0.582664 10 3C0.388803 7.00467 1 16.3477 1 26C1 28.5431 0.202898 32.6087 1 35C3.12215 41.3665 8.98139 40.4721 12 45L13 45L13 41C2.7138 41 2 31.5454 2 23C2 21.0237 1.38052 17.8584 2 16C5.09035 6.72894 13.2132 1.60293 24 4C24.8894 4.19765 26.1228 5.70761 27 6C30.6877 7.22922 32 5.1843 32 2L36 2L36 6L43 3C43 5.88454 41.9066 11.3758 43 14L45 16C45.7063 20.9443 47.0637 28.6233 44 33C42.9621 34.4827 41.1676 34.2486 40 36C39.2381 37.1428 38.6647 39.1676 37 40C31.3354 42.8323 25.4428 36.3435 24 45L25 45L27 42L39 41L42 37L47 31L47 16L44 11L44 1L37 4C36.3696 0.217674 34.5553 1 31 1z"/>
<path style="fill:#848244; stroke:none;" d="M32 2L31 7C25.9449 5.31497 12.2588 2.31886 7 6C5.09344 7.33459 4.78282 10.1212 4 12C1.22279 18.6653 -0.237066 33.1083 5 39C6.89263 41.1292 10.1108 41 13 41L13 45L24 45L26 41L38 40L40 37L44 34L45 15L43 13L43 3C39.5061 3 39 3.50613 39 7L35 7L35 2L32 2z"/>
<path style="fill:#484626; stroke:none;" d="M35 2L35 7L39 7L39 6L36 6L35 2z"/>
<path style="fill:#5c5a30; stroke:none;" d="M11 4L11 5L25 5L11 4z"/>
<path style="fill:#484626; stroke:none;" d="M29 6L31 7L29 6z"/>
<path style="fill:#444224; stroke:none;" d="M25 11L25 12L28 12L25 11z"/>
<path style="fill:#090706; stroke:none;" d="M22 19L23 19C23 14.8324 24.5739 13.429 28 14L26 18C29.5467 19.1822 30.8061 18.5817 32 15C30.8758 14.4379 29.1926 12.3975 28 12C22.2784 10.0928 22 14.6881 22 19z"/>
<path style="fill:#6c6c6c; stroke:none;" d="M25 13L27 14L25 13z"/>
<path style="fill:#d6d7d6; stroke:none;" d="M24 14L24 15L28 15L24 14z"/>
<path style="fill:#232223; stroke:none;" d="M30 14L30 15L32 16L23 19L23 20L35 22C35 16.74 36.0177 14 30 14z"/>
<path style="fill:#afafaf; stroke:none;" d="M23 15L23 19L27 19L27 18L23 15z"/>
<path style="fill:#fcfefc; stroke:none;" d="M24 15L24 18L26 18L26 15L24 15M32 16L30 19L30 20C33.5509 20 33.9266 17.9266 32 16z"/>
<path style="fill:#201e12; stroke:none;" d="M12 20C12 23.1509 10.6215 30.2429 12 33C14.5212 38.0423 28.0811 39.5135 29 34C23.2846 34 16.7957 38.5914 13 31C11.2952 27.5905 14.418 22.418 12 20z"/>
<path style="fill:#4f4d2a; stroke:none;" d="M13 20L13 32L14 32L13 20z"/>
<path style="fill:#54522c; stroke:none;" d="M18 37L18 38L23 38L18 37z"/>
</svg>
