<?xml version="1.0" standalone="yes"?>
<svg width="48" height="46">
<path style="fill:#040204; stroke:none;" d="M4 1C4 3.82611 4.88581 8.34258 4 11C3.41481 12.7556 1.58519 14.2444 1 16C-0.703642 21.1109 0.387642 34.0775 5 35L2 20L5 14L5 3L13 6L13 2C16.9294 2.6549 14.4179 4.27861 17 6C19.3323 7.55488 22.3637 4.54542 24 4C29.4052 2.19828 38.7018 4.3353 42 8C49.204 16.0044 49.0488 41 35 41L35 45L36 45C39.0186 40.4721 44.8778 41.3665 47 35C47.7971 32.6087 47 28.5431 47 26C47 16.3477 47.6112 7.00467 38 3C32.1984 0.582664 22.6041 4 17 4L17 1C13.4447 1 11.6304 0.217674 11 4L4 1z"/>
<path style="fill:#848244; stroke:none;" d="M13 2L13 7L9 7C9 3.50612 8.49388 3 5 3L5 13L3 15L4 34L8 37L10 40L22 41L24 45L35 45L35 41C37.8892 41 41.1074 41.1292 43 39C48.2371 33.1083 46.7772 18.6653 44 12C43.3941 10.5457 43.2235 8.0876 42 7C36.6827 2.27353 22.6856 5.1048 17 7L13 2z"/>
<path style="fill:#484626; stroke:none;" d="M15 2L16 4L15 2z"/>
<path style="fill:#5c5a30; stroke:none;" d="M23 4L23 5L37 5L23 4z"/>
<path style="fill:#484626; stroke:none;" d="M9 6L9 7L13 7L9 6M17 6L19 7L17 6z"/>
<path style="fill:#444224; stroke:none;" d="M20 11L20 12L23 12L20 11z"/>
<path style="fill:#040204; stroke:none;" d="M16 15C17.1939 18.5817 18.4533 19.1822 22 18L20 14C23.4261 13.429 25 14.8324 25 19L25 12L16 15z"/>
<path style="fill:#969696; stroke:none;" d="M21 13L23 14L21 13z"/>
<path style="fill:#1f1e1f; stroke:none;" d="M13 22L25 20L25 19L21 18L19 19L16 15L18 15C13.4289 10.4289 13 18.1945 13 22z"/>
<path style="fill:#fcfefc; stroke:none;" d="M20 14L24 18C24 14.5061 23.4939 14 20 14z"/>
<path style="fill:#9f9f9f; stroke:none;" d="M23 14L24 15L23 14z"/>
<path style="fill:#afafaf; stroke:none;" d="M24 15L21 18L21 19L25 19L24 15z"/>
<path style="fill:#fcfefc; stroke:none;" d="M15 16C15 19.3674 14.4526 20 18 20L18 19L15 16z"/>
<path style="fill:#4f4d2a; stroke:none;" d="M34 20L34 32L35 32L34 20z"/>
<path style="fill:#201e12; stroke:none;" d="M35 20C35 26.2946 36.2192 33.5936 29 36C26.3769 36.8744 22.0149 34 19 34C19.1913 35.1478 18.4085 36.4032 20 37C21.7624 37.6609 30.3413 37.8294 32 37C36.752 34.624 37.8297 22.8297 35 20z"/>
<path style="fill:#242214; stroke:none;" d="M5 35C7.52358 42.5707 13.8874 41 21 41L21 40L11 40L5 35z"/>
<path style="fill:#54522c; stroke:none;" d="M25 37L25 38L30 38L25 37z"/>
<path style="fill:#040204; stroke:none;" d="M11 41L11 42C16.1132 42 20.2313 40.847 23 45C27.9053 40.0947 14.3688 41 11 41z"/>
</svg>
