<?xml version="1.0" standalone="yes"?>
<svg xmlns="http://www.w3.org/2000/svg" width="110" height="77">
<path style="fill:#323431; stroke:none;" d="M58 6L58 7L75 9L58 6z"/>
<path style="fill:#171816; stroke:none;" d="M55 7L55 8L58 8L55 7z"/>
<path style="fill:#86782a; stroke:none;" d="M58 7L58 8L66 8L58 7z"/>
<path style="fill:#2d2f2c; stroke:none;" d="M19 11L19 12L36 9C32.8377 5.83774 22.5013 8.66578 19 11z"/>
<path style="fill:#6a6b46; stroke:none;" d="M36 8L36 9L45 9L36 8z"/>
<path style="fill:#1b1c1a; stroke:none;" d="M45 8L45 9C48.1344 9.5224 52.2431 11.7843 53 8L45 8z"/>
<path style="fill:#4c4827; stroke:none;" d="M53 8L52 11L56 12L53 8z"/>
<path style="fill:#f8d60e; stroke:none;" d="M54 10L78 12L72 10L69 8L61 8L54 10z"/>
<path style="fill:#b6b343; stroke:none;" d="M27 9L27 10L32 10L27 9z"/>
<path style="fill:#f8fa29; stroke:none;" d="M87 60L82 48C84.7132 48 87.8776 48.4149 90 47C95.9345 43.0437 97.0011 33.0033 95 27C94.7189 26.1566 95.3949 24.7897 95 24C93.6946 21.3892 90.8307 21.2204 89 20C85.8994 17.9329 83.7009 13.6205 81 12C79.0883 10.853 75.1481 12.716 73 12C71.0614 11.3538 69.0417 9.34029 67 9C65.092 8.682 64.6356 10.1817 63 10C60.4509 9.71677 58.0261 9 55 9L55 10L66 17C63.7915 17 59.5528 16.2077 58 15C55.9392 13.3971 57.6487 12.2039 55 11C52.164 9.71091 49.0993 10.7748 46 10C41.1465 8.78663 35.8535 8.78663 31 10C28.5359 10.616 25.4019 9.19936 23 10C11.2755 13.9082 10.2992 24.7951 12 35C12.9666 40.7996 11.6303 48.2412 17 52C18.8638 53.3047 21.7864 53.2621 24 54C27.1937 55.0646 29.8876 57.7031 33 59C35.2306 59.9294 38.5977 59.6568 41 60L43 62C46.4887 63.4536 51.3055 62.0764 55 63C57.9478 63.737 63.5179 65.1607 67 64C69.509 63.1637 73.0161 60.3614 74 58C74.5667 56.64 74.6399 53.3933 77 53C78.3976 52.7671 79.5528 55.425 80 56C82.0441 58.6282 84.0526 59.5088 87 60z"/>
<path style="fill:#b6b343; stroke:none;" d="M45 9L45 10L48 10L45 9z"/>
<path style="fill:#9b8924; stroke:none;" d="M71 9L71 10L75 10L71 9z"/>
<path style="fill:#555028; stroke:none;" d="M75 9L75 10L85 14L75 9z"/>
<path style="fill:#1e1f1d; stroke:none;" d="M56 11L56 12L60 13L60 12L56 11z"/>
<path style="fill:#554f22; stroke:none;" d="M15 16L19 12L15 16z"/>
<path style="fill:#4d4837; stroke:none;" d="M59 13L65 16C64.3725 12.8624 61.8271 12.0576 59 13z"/>
<path style="fill:#ebcb0d; stroke:none;" d="M57 13L66 17L66 16L57 13z"/>
<path style="fill:#f1d11a; stroke:none;" d="M82 13L91 21L82 13z"/>
<path style="fill:#988f3f; stroke:none;" d="M65 14L66 16L65 14z"/>
<path style="fill:#40423f; stroke:none;" d="M85 14L91 19L85 14z"/>
<path style="fill:#121411; stroke:none;" d="M14 16L15 17L14 16z"/>
<path style="fill:#1d1c16; stroke:none;" d="M12 17L12 19L14 17L12 17z"/>
<path style="fill:#454744; stroke:none;" d="M11 19L10 25L11 25L11 19z"/>
<path style="fill:#50524f; stroke:none;" d="M91 19L96 25L91 19z"/>
<path style="fill:#010400; stroke:none;" d="M9 25L9 32L10 32L9 25z"/>
<path style="fill:#818049; stroke:none;" d="M10 25L10 31L11 31L10 25z"/>
<path style="fill:#988f3f; stroke:none;" d="M95 25L95 28L96 28L95 25z"/>
<path style="fill:#565744; stroke:none;" d="M96 25L96 38L97 38L96 25z"/>
<path style="fill:#838418; stroke:none;" d="M20 26L22 27L20 26M30 26L30 27L33 27L30 26z"/>
<path style="fill:#99961a; stroke:none;" d="M19 27L19 40L20 40L19 27z"/>
<path style="fill:#000100; stroke:none;" d="M20 27L20 40L21 40L21 30L22 30L23 33L24 33L23 27L20 27z"/>
<path style="fill:#010400; stroke:none;" d="M27 38L26 38L25 34L24 34C24 37.8913 23.8815 40 28 40L30 30L31 30L31 40L33 40L33 27C28.0629 27 27 33.435 27 38z"/>
<path style="fill:#9fa21b; stroke:none;" d="M47 27L47 30L48 30L49 27L47 27z"/>
<path style="fill:#686714; stroke:none;" d="M23 28L24 30L23 28z"/>
<path style="fill:#535511; stroke:none;" d="M37 28C37 31.0493 36.9507 31 40 31L37 28z"/>
<path style="fill:#9fa21b; stroke:none;" d="M40 28L40 31L41 31L40 28z"/>
<path style="fill:#5b5c10; stroke:none;" d="M41 28L42 30L41 28z"/>
<path style="fill:#4c4a0e; stroke:none;" d="M48 28C48 31.0493 47.9507 31 51 31L51 30L48 28z"/>
<path style="fill:#000100; stroke:none;" d="M51 28L53 29L51 28z"/>
<path style="fill:#535511; stroke:none;" d="M51 29L53 30L51 29z"/>
<path style="fill:#838418; stroke:none;" d="M21 30L21 40L22 40L21 30z"/>
<path style="fill:#706e14; stroke:none;" d="M28 30L29 32L28 30z"/>
<path style="fill:#4c4a0e; stroke:none;" d="M59 30L59 31L63 31L59 30z"/>
<path style="fill:#5b5c10; stroke:none;" d="M67 30L69 31L67 30z"/>
<path style="fill:#4c4a0e; stroke:none;" d="M70 30L70 31L73 31L70 30z"/>
<path style="fill:#c2c020; stroke:none;" d="M77 30L77 44L78 44L80 31L77 30z"/>
<path style="fill:#4e500b; stroke:none;" d="M81 30L81 31L84 31L81 30z"/>
<path style="fill:#2b2c2a; stroke:none;" d="M10 31L11 45L12 45L10 31z"/>
<path style="fill:#000100; stroke:none;" d="M36 31C31.8046 33.7969 36.8331 43.4446 42 40C46.2931 37.1379 41.6777 27.2149 36 31z"/>
<path style="fill:#010400; stroke:none;" d="M47 31C43.3417 33.4389 46.2617 43.13 52 40C57.4363 37.0347 52.7674 27.155 47 31z"/>
<path style="fill:#000100; stroke:none;" d="M63 40L63 39L58 36L65 36L65 32L57 32L58 40L63 40z"/>
<path style="fill:#838418; stroke:none;" d="M63 31L64 32L63 31z"/>
<path style="fill:#000100; stroke:none;" d="M67 31L67 44L69 44L69 39C70.0809 39.5404 72.4628 40.9223 74 40C76.0806 38.7516 77.1202 32.5902 75 31C73.8357 30.1268 68.5383 31 67 31M78 31L78 44L79 44L79 39L85 40L85 31L78 31z"/>
<path style="fill:#686714; stroke:none;" d="M24 32L23 36L24 36L24 32z"/>
<path style="fill:#fffb2d; stroke:none;" d="M37 38L41 38L41 32C36.413 32 37 33.9941 37 38M49 32L48 38L52 38L51 32L49 32z"/>
<path style="fill:#f8fa29; stroke:none;" d="M59 32L59 34L62 34L62 32L59 32M70 32C67.3024 33.7984 69.4842 40.3439 73 38C75.6976 36.2016 73.5158 29.6561 70 32z"/>
<path style="fill:#fffb2d; stroke:none;" d="M80 38L84 38L84 32C79.413 32 80 33.9941 80 38z"/>
<path style="fill:#c3bd3c; stroke:none;" d="M11 33L11 39L12 39L11 33z"/>
<path style="fill:#b9b821; stroke:none;" d="M41 33L41 37L42 37L41 33z"/>
<path style="fill:#61610c; stroke:none;" d="M43 33L43 37L44 37L43 33z"/>
<path style="fill:#99961a; stroke:none;" d="M47 33L47 37L48 37L47 33z"/>
<path style="fill:#9fa21b; stroke:none;" d="M54 33L54 37L55 37L54 33z"/>
<path style="fill:#43430e; stroke:none;" d="M56 33L56 37L57 37L56 33z"/>
<path style="fill:#b9b821; stroke:none;" d="M58 33C58.6025 36.0124 62.3975 36.0124 63 33L58 33z"/>
<path style="fill:#535511; stroke:none;" d="M79 33L79 37L80 37L79 33z"/>
<path style="fill:#b9b821; stroke:none;" d="M84 33L84 37L85 37L84 33z"/>
<path style="fill:#686714; stroke:none;" d="M86 33L86 37L87 37L86 33z"/>
<path style="fill:#acad1f; stroke:none;" d="M25 34L26 36L25 34z"/>
<path style="fill:#5b5c10; stroke:none;" d="M36 34L36 37L37 37L36 34z"/>
<path style="fill:#838418; stroke:none;" d="M45 34L45 37L46 37L45 34z"/>
<path style="fill:#777a16; stroke:none;" d="M52 34L52 37L53 37L52 34z"/>
<path style="fill:#9e9838; stroke:none;" d="M95 35L95 38L96 38L95 35z"/>
<path style="fill:#777a16; stroke:none;" d="M26 36L27 38L26 36z"/>
<path style="fill:#99961a; stroke:none;" d="M28 36L29 38L28 36z"/>
<path style="fill:#4e500b; stroke:none;" d="M60 38L60 39C63.2914 39.5486 64.3413 40.9521 65 37L60 38z"/>
<path style="fill:#8f8e1a; stroke:none;" d="M69 37L70 38L69 37z"/>
<path style="fill:#706e14; stroke:none;" d="M73 37L74 38L73 37z"/>
<path style="fill:#b9b821; stroke:none;" d="M24 38L25 40L24 38z"/>
<path style="fill:#838418; stroke:none;" d="M38 38L40 39L38 38z"/>
<path style="fill:#777a16; stroke:none;" d="M49 38L51 39L49 38z"/>
<path style="fill:#8b812a; stroke:none;" d="M70 38L70 39L73 39L70 38z"/>
<path style="fill:#777a16; stroke:none;" d="M81 38L83 39L81 38z"/>
<path style="fill:#282a27; stroke:none;" d="M95 38C93.0811 43.7567 89.7459 48 83 48L88 59L89 59L85 49C86.2011 49 88.9485 49.5257 90 49C93.8049 47.0975 97.4282 40.4282 95 38z"/>
<path style="fill:#8f8e1a; stroke:none;" d="M52 39L53 40L52 39z"/>
<path style="fill:#939112; stroke:none;" d="M69 39L70 40L69 39z"/>
<path style="fill:#5b5c10; stroke:none;" d="M79 39L79 44L80 44L81 39L79 39z"/>
<path style="fill:#999c12; stroke:none;" d="M25 40L27 41L25 40z"/>
<path style="fill:#acad1f; stroke:none;" d="M31 40L33 41L31 40z"/>
<path style="fill:#999c12; stroke:none;" d="M38 40L40 41L38 40z"/>
<path style="fill:#9fa21b; stroke:none;" d="M49 40L51 41L49 40z"/>
<path style="fill:#999c12; stroke:none;" d="M59 40L59 41L63 41L59 40z"/>
<path style="fill:#99961a; stroke:none;" d="M70 40L70 41L73 41L70 40M81 40L81 41L84 41L81 40z"/>
<path style="fill:#9d944a; stroke:none;" d="M12 42L12 45L13 45L12 42z"/>
<path style="fill:#3a3625; stroke:none;" d="M12 45C12 49.1394 13.7967 52.2995 18 53L12 45z"/>
<path style="fill:#010400; stroke:none;" d="M98 45L98 46L101 46L98 45z"/>
<path style="fill:#363735; stroke:none;" d="M96 46L96 60L97 60L96 50L98 46L96 46z"/>
<path style="fill:#282a27; stroke:none;" d="M101 46L102 47L101 46z"/>
<path style="fill:#262825; stroke:none;" d="M102 47L98 51L98 52C101.948 52 105.004 50.0043 102 47z"/>
<path style="fill:#75723c; stroke:none;" d="M82 48L83 50L82 48z"/>
<path style="fill:#b2a122; stroke:none;" d="M18 52L20 53L18 52z"/>
<path style="fill:#363735; stroke:none;" d="M18 53L18 54L30 58L30 57L18 53z"/>
<path style="fill:#30312f; stroke:none;" d="M76 53L65 65L56 63L46 63L46 64L54 64L67 66L71 63L76 55L88 63L76 53z"/>
<path style="fill:#8b812a; stroke:none;" d="M74 55L75 57L74 55z"/>
<path style="fill:#988f3f; stroke:none;" d="M30 57L32 58L30 57z"/>
<path style="fill:#121411; stroke:none;" d="M30 58L30 59L33 59L30 58z"/>
<path style="fill:#e6c71a; stroke:none;" d="M87 58L86 61L96 66L87 58z"/>
<path style="fill:#191a18; stroke:none;" d="M33 59L33 60L36 60L33 59z"/>
<path style="fill:#91833b; stroke:none;" d="M36 59L38 60L36 59z"/>
<path style="fill:#383a37; stroke:none;" d="M89 59L101 68L89 59M36 60L36 61L43 62L36 60z"/>
<path style="fill:#bcb23b; stroke:none;" d="M40 60L42 61L40 60z"/>
<path style="fill:#20211f; stroke:none;" d="M97 60L97 61L100 61L97 60z"/>
<path style="fill:#2b2c2a; stroke:none;" d="M43 62L43 63L46 63L43 62z"/>
<path style="fill:#b5ac41; stroke:none;" d="M46 62L46 63L50 63L46 62z"/>
<path style="fill:#b8a125; stroke:none;" d="M70 63L72 64L70 63z"/>
<path style="fill:#171816; stroke:none;" d="M74 63L74 64L78 64L74 63z"/>
<path style="fill:#37311d; stroke:none;" d="M88 63L90 64L88 63z"/>
<path style="fill:#c5b034; stroke:none;" d="M61 64L61 65L66 65L61 64z"/>
<path style="fill:#2b2c2a; stroke:none;" d="M70 68L71 68L74 65C71.7533 62.7533 70 64.4813 70 68z"/>
<path style="fill:#171816; stroke:none;" d="M79 64L81 65L79 64z"/>
<path style="fill:#363735; stroke:none;" d="M90 64L90 65L97 68L90 64z"/>
<path style="fill:#070a06; stroke:none;" d="M81 65L81 66L84 66L81 65z"/>
<path style="fill:#121411; stroke:none;" d="M84 66L87 68L84 66z"/>
<path style="fill:#9e8d30; stroke:none;" d="M96 66L99 68L96 66z"/>
<path style="fill:#20211f; stroke:none;" d="M77 67L73 70L73 71L78 71L77 67z"/>
<path style="fill:#454744; stroke:none;" d="M71 68L74 70L74 69L71 68z"/>
<path style="fill:#1b1c1a; stroke:none;" d="M87 68L88 69L87 68z"/>
<path style="fill:#2e2c20; stroke:none;" d="M97 68L99 69L97 68z"/>
<path style="fill:#716626; stroke:none;" d="M99 68L101 69L99 68z"/>
<path style="fill:#1b1c1a; stroke:none;" d="M99 69L99 70L106 72C104.229 69.0481 102.374 67.8754 99 69z"/>
<path style="fill:#1e1f1d; stroke:none;" d="M88 69L89 70L88 69z"/>
</svg>
