<?xml version="1.0" standalone="yes"?>
<svg xmlns="http://www.w3.org/2000/svg" width="95" height="92">
<path style="fill:#040204; stroke:none;" d="M36 14C23.9907 18.0031 14.1925 25.4226 10 38C9.2029 40.3913 10 44.4569 10 47C10 49.5431 9.2029 53.6087 10 56C15.0868 71.2604 29.1074 80 45 80C48.109 80 53.0766 80.9745 56 80C65.9803 76.6732 77.4311 68.7066 81 58C81.4 56.8 80.6 55.2 81 54C85.4381 40.6858 77.8904 24.9361 66 18C60.124 14.5723 53.3836 14 46 14C43.1739 14 38.6574 13.1142 36 14z"/>
<path style="fill:#fcfe04; stroke:none;" d="M38 15C28.143 17.4643 19.0862 23.8275 15 32C14.2403 33.5194 12.5301 34.4098 12 36C11.6 37.2 12.4 38.8 12 40C8.32298 51.0311 12.9794 65.274 23 71L24 73C27.0547 75.0365 31.4795 75.8265 35 77C35.8772 77.2924 37.1105 78.8023 38 79C41.3005 79.7334 49.8124 80.0625 53 79C62.02 75.9933 71.0782 71.8593 76 63C76.654 61.8228 78.3987 61.2027 79 60C79.3949 59.2103 78.7189 57.8434 79 57C81.3481 49.9557 81.3481 44.0443 79 37C78.7189 36.1566 79.3949 34.7897 79 34C78.3987 32.7973 76.654 32.1772 76 31C69.4799 19.2638 52.5304 11.3674 38 15z"/>
<path style="fill:#040204; stroke:none;" d="M48 39C48 39.6102 47.6104 42.6104 48 43C49.4873 44.4873 55.698 44.736 57 43C60.4578 38.3896 52.6497 35.4664 51 34C49.5307 32.6939 49.5984 29.0656 48 28C43.6814 25.121 37.6697 33.1161 40 37C41.4698 39.4496 45.3974 39 48 39z"/>
<path style="fill:#fcfe04; stroke:none;" d="M49 34L50 36L49 34M81 40L82 41L81 40z"/>
<path style="fill:#040204; stroke:none;" d="M29 47C29 49.2796 27.788 56.182 29 58C29.0939 58.1408 31.4911 59.4063 32 60C36.2051 64.9059 41.4468 66.8883 49 65C51.5197 64.3701 55.0723 65.9277 57 64C59.4872 61.5128 57.7036 59.4506 55 59L54 62L47 62L42 63L34 56L31 54L31 47L29 47z"/>
<path style="fill:#fcfe04; stroke:none;" d="M78 62L77 64L78 62M75 67L76 68L75 67M73 69L74 70L73 69M71 71L70 73L71 71M68 73L67 75L68 73M65 75L63 76L63 77L65 75M60 77L61 78L60 77z"/>
</svg>
